STARTFONT 2.1
FONT -Misc-Fixed-Medium-R-Normal--52-500-75-75-C-290-ISO10646-1
SIZE 50 75 75
FONTBOUNDINGBOX 26 52 0 -12
COMMENT "Generated by fontforge, http://fontforge.sourceforge.net"
COMMENT "Public domain font.  Share and enjoy."
STARTPROPERTIES 32
FOUNDRY "Misc"
FAMILY_NAME "Fixed"
WEIGHT_NAME "Medium"
SLANT "R"
SETWIDTH_NAME "Normal"
ADD_STYLE_NAME ""
PIXEL_SIZE 52
POINT_SIZE 500
RESOLUTION_X 75
RESOLUTION_Y 75
SPACING "C"
AVERAGE_WIDTH 290
CHARSET_REGISTRY "ISO10646"
CHARSET_ENCODING "1"
FONTNAME_REGISTRY ""
CHARSET_COLLECTIONS "ASCII ISOLatin1Encoding ISO8859-2 ISO8859-5 ISO8859-7 ISO8859-9 ISO8859-8 ISO8859-4 ISO8859-11 ISO10646-1"
FONT_NAME "FixedMedium"
FACE_NAME "Fixed Medium"
COPYRIGHT "Public domain font.  Share and enjoy."
FONT_VERSION "001.000"
FONT_ASCENT 40
FONT_DESCENT 12
UNDERLINE_POSITION -5
UNDERLINE_THICKNESS 3
X_HEIGHT 19
CAP_HEIGHT 27
RAW_ASCENT 777
RAW_DESCENT 223
NORM_SPACE 29
FIGURE_WIDTH 29
AVG_LOWERCASE_WIDTH 290
AVG_UPPERCASE_WIDTH 290
ENDPROPERTIES
CHARS 4766
STARTCHAR char0
ENCODING 0
SWIDTH 540 0
DWIDTH 29 0
BBX 20 28 3 0
BITMAP
FC7C70
FC7C70
000070
000070
000070
E00000
E00000
E00000
E00070
E00070
E00070
000070
000070
000070
E00000
E00000
E00000
E00070
E00070
E00070
000070
000070
000070
E00000
E00000
E00000
E3E3F0
E3E3F0
ENDCHAR
STARTCHAR space
ENCODING 32
SWIDTH 540 0
DWIDTH 29 0
BBX 1 1 25 -12
BITMAP
00
ENDCHAR
STARTCHAR exclam
ENCODING 33
SWIDTH 540 0
DWIDTH 29 0
BBX 2 31 12 0
BITMAP
C0
C0
C0
C0
C0
C0
C0
C0
C0
C0
C0
C0
C0
C0
C0
C0
C0
C0
C0
C0
00
00
00
00
00
00
C0
C0
C0
C0
C0
ENDCHAR
STARTCHAR quotedbl
ENCODING 34
SWIDTH 540 0
DWIDTH 29 0
BBX 11 11 9 20
BITMAP
E0E0
E0E0
E0E0
E0E0
E0E0
E0E0
E0E0
E0E0
E0E0
E0E0
E0E0
ENDCHAR
STARTCHAR numbersign
ENCODING 35
SWIDTH 540 0
DWIDTH 29 0
BBX 23 28 0 0
BITMAP
038380
038380
038380
038380
038380
038380
038380
038380
FFFFFE
FFFFFE
FFFFFE
038380
038380
038380
038380
038380
038380
FFFFFE
FFFFFE
FFFFFE
038380
038380
038380
038380
038380
038380
038380
038380
ENDCHAR
STARTCHAR dollar
ENCODING 36
SWIDTH 540 0
DWIDTH 29 0
BBX 20 31 3 -3
BITMAP
006000
006000
1FFF80
1FFF80
1FFF80
E0F070
E06070
E06070
E06000
E06000
E06000
1C6000
1C6000
1C6000
03FC00
03FC00
03FC00
006380
006380
006380
006070
006070
006070
E06070
E06070
E0F070
1FFF80
1FFF80
00F000
006000
006000
ENDCHAR
STARTCHAR percent
ENCODING 37
SWIDTH 540 0
DWIDTH 29 0
BBX 20 28 3 0
BITMAP
1C0070
1C0070
E30180
E38380
E38380
E38380
E38380
E38380
1C0C00
1C1C00
1C1C00
006000
006000
006000
006000
006000
006000
038380
038380
030380
1C1C70
1C1C70
1C1C70
1C1C70
1C1C70
180C70
E00380
E00380
ENDCHAR
STARTCHAR ampersand
ENCODING 38
SWIDTH 540 0
DWIDTH 29 0
BBX 20 28 3 0
BITMAP
1F8000
1F8000
E06000
E06000
E06000
E06000
E06000
E06000
E06000
E06000
E06000
1F8000
1F8000
1F8000
1F8070
1F8070
1F8070
E06380
E06380
E06380
E01C00
E01C00
E01C00
E06380
E06380
E06180
1F8070
1F8070
ENDCHAR
STARTCHAR quotesingle
ENCODING 39
SWIDTH 540 0
DWIDTH 29 0
BBX 2 11 12 20
BITMAP
C0
C0
C0
C0
C0
C0
C0
C0
C0
C0
C0
ENDCHAR
STARTCHAR parenleft
ENCODING 40
SWIDTH 540 0
DWIDTH 29 0
BBX 8 34 9 -3
BITMAP
07
07
07
18
18
18
18
18
E0
E0
E0
E0
E0
E0
E0
E0
E0
E0
E0
E0
E0
E0
E0
E0
E0
E0
18
18
18
18
18
07
07
07
ENDCHAR
STARTCHAR parenright
ENCODING 41
SWIDTH 540 0
DWIDTH 29 0
BBX 8 34 9 -3
BITMAP
E0
E0
E0
18
18
18
18
18
07
07
07
07
07
07
07
07
07
07
07
07
07
07
07
07
07
07
18
18
18
18
18
E0
E0
E0
ENDCHAR
STARTCHAR asterisk
ENCODING 42
SWIDTH 540 0
DWIDTH 29 0
BBX 20 20 3 8
BITMAP
006000
006000
C06030
E06070
E06070
186180
1C6380
1C6380
03FC00
03FC00
03FC00
1CF380
1C6380
1C6380
E06070
E06070
E06070
006000
006000
006000
ENDCHAR
STARTCHAR plus
ENCODING 43
SWIDTH 540 0
DWIDTH 29 0
BBX 20 21 3 2
BITMAP
006000
006000
006000
006000
006000
006000
006000
006000
006000
FFFFF0
FFFFF0
FFFFF0
006000
006000
006000
006000
006000
006000
006000
006000
006000
ENDCHAR
STARTCHAR comma
ENCODING 44
SWIDTH 540 0
DWIDTH 29 0
BBX 5 11 12 -6
BITMAP
F8
F8
F8
F8
F8
38
38
38
C0
C0
C0
ENDCHAR
STARTCHAR hyphen
ENCODING 45
SWIDTH 540 0
DWIDTH 29 0
BBX 20 3 3 11
BITMAP
FFFFF0
FFFFF0
FFFFF0
ENDCHAR
STARTCHAR period
ENCODING 46
SWIDTH 540 0
DWIDTH 29 0
BBX 5 5 12 0
BITMAP
F8
F8
F8
F8
F8
ENDCHAR
STARTCHAR slash
ENCODING 47
SWIDTH 540 0
DWIDTH 29 0
BBX 20 28 3 0
BITMAP
000070
000070
000180
000380
000380
000380
000380
000380
000C00
001C00
001C00
006000
006000
006000
006000
006000
006000
038000
038000
030000
1C0000
1C0000
1C0000
1C0000
1C0000
180000
E00000
E00000
ENDCHAR
STARTCHAR zero
ENCODING 48
SWIDTH 540 0
DWIDTH 29 0
BBX 20 28 3 0
BITMAP
03FC00
03FC00
1C0380
1C0380
1C0380
E00070
E00070
E00070
E00070
E00070
E00070
E00070
E00070
E00070
E00070
E00070
E00070
E00070
E00070
E00070
E00070
E00070
E00070
1C0380
1C0380
1C0380
03FC00
03FC00
ENDCHAR
STARTCHAR one
ENCODING 49
SWIDTH 540 0
DWIDTH 29 0
BBX 20 28 3 0
BITMAP
006000
006000
03E000
03E000
03E000
1CE000
1C6000
1C6000
E06000
E06000
E06000
006000
006000
006000
006000
006000
006000
006000
006000
006000
006000
006000
006000
006000
006000
00F000
FFFFF0
FFFFF0
ENDCHAR
STARTCHAR two
ENCODING 50
SWIDTH 540 0
DWIDTH 29 0
BBX 20 28 3 0
BITMAP
03FC00
03FC00
1C0380
1C0380
1C0380
E00070
E00070
E00070
000070
000070
000070
000380
000380
000380
001C00
001C00
001C00
006000
006000
006000
038000
038000
030000
1C0000
1C0000
3C0000
FFFFF0
FFFFF0
ENDCHAR
STARTCHAR three
ENCODING 51
SWIDTH 540 0
DWIDTH 29 0
BBX 20 28 3 0
BITMAP
FFFFF0
FFFFF0
000070
000070
000070
000180
000380
000380
000C00
001C00
001C00
007C00
007C00
007C00
000380
000380
000380
000070
000070
000070
000070
000070
000070
E00380
E00380
E00380
1FFC00
1FFC00
ENDCHAR
STARTCHAR four
ENCODING 52
SWIDTH 540 0
DWIDTH 29 0
BBX 20 28 3 0
BITMAP
000380
000380
000F80
001F80
001F80
006380
006380
006380
038380
038380
038380
1C0380
1C0380
1C0380
E00380
E00380
E00380
FFFFF0
FFFFF0
FFFFF0
000380
000380
000380
000380
000380
000380
000380
000380
ENDCHAR
STARTCHAR five
ENCODING 53
SWIDTH 540 0
DWIDTH 29 0
BBX 20 28 3 0
BITMAP
FFFFF0
FFFFF0
E00000
E00000
E00000
E00000
E00000
E00000
E00000
E00000
E00000
FFFC00
FFFC00
FFFC00
000380
000380
000380
000070
000070
000070
000070
000070
000070
E00380
E00380
E00380
1FFC00
1FFC00
ENDCHAR
STARTCHAR six
ENCODING 54
SWIDTH 540 0
DWIDTH 29 0
BBX 20 28 3 0
BITMAP
03FF80
03FF80
1C0000
1C0000
1C0000
E00000
E00000
E00000
E00000
E00000
E00000
E3FC00
E3FC00
E3FC00
FC0380
FC0380
FC0380
E00070
E00070
E00070
E00070
E00070
E00070
1C0380
1C0380
1C0380
03FC00
03FC00
ENDCHAR
STARTCHAR seven
ENCODING 55
SWIDTH 540 0
DWIDTH 29 0
BBX 20 28 3 0
BITMAP
FFFFF0
FFFFF0
000070
000070
000070
000180
000380
000380
000380
000380
000380
000C00
001C00
001C00
001C00
001C00
001C00
006000
006000
006000
006000
006000
006000
006000
006000
006000
006000
006000
ENDCHAR
STARTCHAR eight
ENCODING 56
SWIDTH 540 0
DWIDTH 29 0
BBX 20 28 3 0
BITMAP
03FC00
03FC00
1C0380
1C0380
1C0380
E00070
E00070
E00070
1C0380
1C0380
1C0380
03FC00
03FC00
03FC00
1C0380
1C0380
1C0380
E00070
E00070
E00070
E00070
E00070
E00070
1C0380
1C0380
1C0380
03FC00
03FC00
ENDCHAR
STARTCHAR nine
ENCODING 57
SWIDTH 540 0
DWIDTH 29 0
BBX 20 28 3 0
BITMAP
03FC00
03FC00
1C0380
1C0380
1C0380
E00070
E00070
E00070
E00070
E00070
E00070
1C03F0
1C03F0
1C03F0
03FC70
03FC70
03FC70
000070
000070
000070
000070
000070
000070
000380
000380
000380
1FFC00
1FFC00
ENDCHAR
STARTCHAR colon
ENCODING 58
SWIDTH 540 0
DWIDTH 29 0
BBX 5 20 12 0
BITMAP
F8
F8
F8
F8
F8
F8
00
00
00
00
00
00
00
00
00
F8
F8
F8
F8
F8
ENDCHAR
STARTCHAR semicolon
ENCODING 59
SWIDTH 540 0
DWIDTH 29 0
BBX 5 26 12 -6
BITMAP
F8
F8
F8
F8
F8
F8
00
00
00
00
00
00
00
00
00
F8
F8
F8
F8
F8
38
38
38
C0
C0
C0
ENDCHAR
STARTCHAR less
ENCODING 60
SWIDTH 540 0
DWIDTH 29 0
BBX 14 26 6 0
BITMAP
000C
001C
001C
0060
00E0
00E0
0300
0300
0300
1C00
1C00
1C00
E000
E000
E000
1C00
1C00
1C00
0300
0300
0300
00E0
00E0
0060
001C
001C
ENDCHAR
STARTCHAR equal
ENCODING 61
SWIDTH 540 0
DWIDTH 29 0
BBX 20 12 3 5
BITMAP
FFFFF0
FFFFF0
FFFFF0
000000
000000
000000
000000
000000
000000
FFFFF0
FFFFF0
FFFFF0
ENDCHAR
STARTCHAR greater
ENCODING 62
SWIDTH 540 0
DWIDTH 29 0
BBX 14 26 6 0
BITMAP
C000
E000
E000
1800
1C00
1C00
0300
0300
0300
00E0
00E0
00E0
001C
001C
001C
00E0
00E0
00E0
0300
0300
0300
1C00
1C00
1800
E000
E000
ENDCHAR
STARTCHAR question
ENCODING 63
SWIDTH 540 0
DWIDTH 29 0
BBX 20 28 3 0
BITMAP
03FC00
03FC00
1C0380
1C0380
1C0380
E00070
E00070
E00070
000070
000070
000070
000380
000380
000380
001C00
001C00
001C00
006000
006000
006000
006000
006000
006000
000000
000000
000000
006000
006000
ENDCHAR
STARTCHAR at
ENCODING 64
SWIDTH 540 0
DWIDTH 29 0
BBX 20 28 3 0
BITMAP
03FC00
03FC00
1C0380
1C0380
1C0380
E07C70
E07C70
E07C70
E39C70
E39C70
E39C70
E39C70
E39C70
E39C70
E39C70
E39C70
E39C70
E39C70
E39C70
E39C70
E07F80
E07F80
E07F80
1C0000
1C0000
1C0000
03FF80
03FF80
ENDCHAR
STARTCHAR A
ENCODING 65
SWIDTH 540 0
DWIDTH 29 0
BBX 20 28 3 0
BITMAP
006000
006000
039C00
039C00
039C00
039C00
039C00
039C00
039C00
039C00
039C00
1C0380
1C0380
1C0380
1FFF80
1FFF80
1FFF80
1C0380
1C0380
1C0380
E00070
E00070
E00070
E00070
E00070
E00070
E00070
E00070
ENDCHAR
STARTCHAR B
ENCODING 66
SWIDTH 540 0
DWIDTH 29 0
BBX 20 28 3 0
BITMAP
FFFC00
FFFC00
E00380
E00380
E00380
E00070
E00070
E00070
E00380
E00380
E00380
FFFC00
FFFC00
FFFC00
E00380
E00380
E00380
E00070
E00070
E00070
E00070
E00070
E00070
E00380
E00380
E00380
FFFC00
FFFC00
ENDCHAR
STARTCHAR C
ENCODING 67
SWIDTH 540 0
DWIDTH 29 0
BBX 20 28 3 0
BITMAP
03FF80
03FF80
1C0070
1C0070
1C0070
E00000
E00000
E00000
E00000
E00000
E00000
E00000
E00000
E00000
E00000
E00000
E00000
E00000
E00000
E00000
E00000
E00000
E00000
1C0070
1C0070
1C0070
03FF80
03FF80
ENDCHAR
STARTCHAR D
ENCODING 68
SWIDTH 540 0
DWIDTH 29 0
BBX 20 28 3 0
BITMAP
FFFC00
FFFC00
E00380
E00380
E00380
E00070
E00070
E00070
E00070
E00070
E00070
E00070
E00070
E00070
E00070
E00070
E00070
E00070
E00070
E00070
E00070
E00070
E00070
E00380
E00380
E00380
FFFC00
FFFC00
ENDCHAR
STARTCHAR E
ENCODING 69
SWIDTH 540 0
DWIDTH 29 0
BBX 20 28 3 0
BITMAP
FFFFF0
FFFFF0
E00000
E00000
E00000
E00000
E00000
E00000
E00000
E00000
E00000
FFFC00
FFFC00
FFFC00
E00000
E00000
E00000
E00000
E00000
E00000
E00000
E00000
E00000
E00000
E00000
E00000
FFFFF0
FFFFF0
ENDCHAR
STARTCHAR F
ENCODING 70
SWIDTH 540 0
DWIDTH 29 0
BBX 20 28 3 0
BITMAP
FFFFF0
FFFFF0
E00000
E00000
E00000
E00000
E00000
E00000
E00000
E00000
E00000
FFFC00
FFFC00
FFFC00
E00000
E00000
E00000
E00000
E00000
E00000
E00000
E00000
E00000
E00000
E00000
E00000
E00000
E00000
ENDCHAR
STARTCHAR G
ENCODING 71
SWIDTH 540 0
DWIDTH 29 0
BBX 20 28 3 0
BITMAP
03FC00
03FC00
1C0380
1C0380
1C0380
E00070
E00070
E00070
E00000
E00000
E00000
E00000
E00000
E00000
E01FF0
E01FF0
E00FF0
E00070
E00070
E00070
E00070
E00070
E00070
1C0380
1C0380
1C0380
03FC00
03FC00
ENDCHAR
STARTCHAR H
ENCODING 72
SWIDTH 540 0
DWIDTH 29 0
BBX 20 28 3 0
BITMAP
E00070
E00070
E00070
E00070
E00070
E00070
E00070
E00070
E00070
E00070
E00070
FFFFF0
FFFFF0
FFFFF0
E00070
E00070
E00070
E00070
E00070
E00070
E00070
E00070
E00070
E00070
E00070
E00070
E00070
E00070
ENDCHAR
STARTCHAR I
ENCODING 73
SWIDTH 540 0
DWIDTH 29 0
BBX 14 28 6 0
BITMAP
FFFC
FFFC
0780
0300
0300
0300
0300
0300
0300
0300
0300
0300
0300
0300
0300
0300
0300
0300
0300
0300
0300
0300
0300
0300
0300
0780
FFFC
FFFC
ENDCHAR
STARTCHAR J
ENCODING 74
SWIDTH 540 0
DWIDTH 29 0
BBX 20 28 3 0
BITMAP
03FFF0
03FFF0
001E00
001C00
001C00
001C00
001C00
001C00
001C00
001C00
001C00
001C00
001C00
001C00
001C00
001C00
001C00
001C00
001C00
001C00
E01C00
E01C00
E01C00
E01C00
E01C00
E01C00
1FE000
1FE000
ENDCHAR
STARTCHAR K
ENCODING 75
SWIDTH 540 0
DWIDTH 29 0
BBX 20 28 3 0
BITMAP
E00070
E00070
E00180
E00380
E00380
E00C00
E01C00
E01C00
E06000
E06000
E06000
E38000
E38000
E38000
FC6000
FC6000
FC6000
E01C00
E01C00
E00C00
E00380
E00380
E00180
E00070
E00070
E00070
E00070
E00070
ENDCHAR
STARTCHAR L
ENCODING 76
SWIDTH 540 0
DWIDTH 29 0
BBX 20 28 3 0
BITMAP
E00000
E00000
E00000
E00000
E00000
E00000
E00000
E00000
E00000
E00000
E00000
E00000
E00000
E00000
E00000
E00000
E00000
E00000
E00000
E00000
E00000
E00000
E00000
E00000
E00000
E00000
FFFFF0
FFFFF0
ENDCHAR
STARTCHAR M
ENCODING 77
SWIDTH 540 0
DWIDTH 29 0
BBX 20 28 3 0
BITMAP
E00070
E00070
E00070
E00070
E00070
F801F0
FC03F0
FC03F0
E30C70
E39C70
E39C70
E06070
E06070
E06070
E00070
E00070
E00070
E00070
E00070
E00070
E00070
E00070
E00070
E00070
E00070
E00070
E00070
E00070
ENDCHAR
STARTCHAR N
ENCODING 78
SWIDTH 540 0
DWIDTH 29 0
BBX 20 28 3 0
BITMAP
E00070
E00070
E00070
E00070
E00070
F80070
FC0070
FC0070
E30070
E38070
E38070
E06070
E06070
E06070
E01C70
E01C70
E00C70
E003F0
E003F0
E003F0
E00070
E00070
E00070
E00070
E00070
E00070
E00070
E00070
ENDCHAR
STARTCHAR O
ENCODING 79
SWIDTH 540 0
DWIDTH 29 0
BBX 20 28 3 0
BITMAP
1FFF80
1FFF80
E00070
E00070
E00070
E00070
E00070
E00070
E00070
E00070
E00070
E00070
E00070
E00070
E00070
E00070
E00070
E00070
E00070
E00070
E00070
E00070
E00070
E00070
E00070
E00070
1FFF80
1FFF80
ENDCHAR
STARTCHAR P
ENCODING 80
SWIDTH 540 0
DWIDTH 29 0
BBX 20 28 3 0
BITMAP
FFFC00
FFFC00
E00380
E00380
E00380
E00070
E00070
E00070
E00070
E00070
E00070
E00380
E00380
E00380
FFFC00
FFFC00
FFFC00
E00000
E00000
E00000
E00000
E00000
E00000
E00000
E00000
E00000
E00000
E00000
ENDCHAR
STARTCHAR Q
ENCODING 81
SWIDTH 540 0
DWIDTH 29 0
BBX 23 31 3 -3
BITMAP
03FC00
03FC00
1C0380
1C0380
1C0380
E00070
E00070
E00070
E00070
E00070
E00070
E00070
E00070
E00070
E00070
E00070
E00070
E00070
E00070
E00070
E01C70
E01C70
E00C70
1C0380
1C0380
1C0380
03FC70
03FC70
00000E
00000E
00000E
ENDCHAR
STARTCHAR R
ENCODING 82
SWIDTH 540 0
DWIDTH 29 0
BBX 20 28 3 0
BITMAP
FFFC00
FFFC00
E00380
E00380
E00380
E00070
E00070
E00070
E00070
E00070
E00070
E00380
E00380
E00380
FFFC00
FFFC00
FFFC00
E06000
E06000
E06000
E01C00
E01C00
E00C00
E00380
E00380
E00180
E00070
E00070
ENDCHAR
STARTCHAR S
ENCODING 83
SWIDTH 540 0
DWIDTH 29 0
BBX 20 28 3 0
BITMAP
1FFF80
1FFF80
E00070
E00070
E00070
E00000
E00000
E00000
E00000
E00000
E00000
1FFF80
1FFF80
1FFF80
000070
000070
000070
000070
000070
000070
000070
000070
000070
E00070
E00070
E00070
1FFF80
1FFF80
ENDCHAR
STARTCHAR T
ENCODING 84
SWIDTH 540 0
DWIDTH 29 0
BBX 20 28 3 0
BITMAP
FFFFF0
FFFFF0
00F000
006000
006000
006000
006000
006000
006000
006000
006000
006000
006000
006000
006000
006000
006000
006000
006000
006000
006000
006000
006000
006000
006000
006000
006000
006000
ENDCHAR
STARTCHAR U
ENCODING 85
SWIDTH 540 0
DWIDTH 29 0
BBX 20 28 3 0
BITMAP
E00070
E00070
E00070
E00070
E00070
E00070
E00070
E00070
E00070
E00070
E00070
E00070
E00070
E00070
E00070
E00070
E00070
E00070
E00070
E00070
E00070
E00070
E00070
1C0380
1C0380
1C0380
03FC00
03FC00
ENDCHAR
STARTCHAR V
ENCODING 86
SWIDTH 540 0
DWIDTH 29 0
BBX 20 28 3 0
BITMAP
E00070
E00070
E00070
E00070
E00070
E00070
E00070
E00070
1C0380
1C0380
1C0380
1C0380
1C0380
1C0380
1C0380
1C0380
1C0380
039C00
039C00
039C00
039C00
039C00
039C00
039C00
039C00
039C00
006000
006000
ENDCHAR
STARTCHAR W
ENCODING 87
SWIDTH 540 0
DWIDTH 29 0
BBX 20 28 3 0
BITMAP
E00070
E00070
E00070
E00070
E00070
E00070
E00070
E00070
E00070
E00070
E00070
E06070
E06070
E06070
E06070
E06070
E06070
E06070
E06070
E06070
E06070
E06070
E06070
E39C70
E39C70
E30C70
1C0380
1C0380
ENDCHAR
STARTCHAR X
ENCODING 88
SWIDTH 540 0
DWIDTH 29 0
BBX 20 28 3 0
BITMAP
E00070
E00070
E00070
E00070
E00070
180180
1C0380
1C0380
030C00
039C00
039C00
006000
006000
006000
006000
006000
006000
039C00
039C00
030C00
1C0380
1C0380
180180
E00070
E00070
E00070
E00070
E00070
ENDCHAR
STARTCHAR Y
ENCODING 89
SWIDTH 540 0
DWIDTH 29 0
BBX 20 28 3 0
BITMAP
E00070
E00070
E00070
E00070
E00070
180180
1C0380
1C0380
030C00
039C00
039C00
006000
006000
006000
006000
006000
006000
006000
006000
006000
006000
006000
006000
006000
006000
006000
006000
006000
ENDCHAR
STARTCHAR Z
ENCODING 90
SWIDTH 540 0
DWIDTH 29 0
BBX 20 28 3 0
BITMAP
FFFFF0
FFFFF0
000070
000070
000070
000180
000380
000380
000C00
001C00
001C00
006000
006000
006000
038000
038000
030000
1C0000
1C0000
1C0000
E00000
E00000
E00000
E00000
E00000
E00000
FFFFF0
FFFFF0
ENDCHAR
STARTCHAR bracketleft
ENCODING 91
SWIDTH 540 0
DWIDTH 29 0
BBX 11 34 9 -3
BITMAP
FFE0
FFE0
FFE0
E000
E000
E000
E000
E000
E000
E000
E000
E000
E000
E000
E000
E000
E000
E000
E000
E000
E000
E000
E000
E000
E000
E000
E000
E000
E000
E000
E000
FFE0
FFE0
FFE0
ENDCHAR
STARTCHAR backslash
ENCODING 92
SWIDTH 540 0
DWIDTH 29 0
BBX 20 28 3 0
BITMAP
E00000
E00000
180000
1C0000
1C0000
1C0000
1C0000
1C0000
030000
038000
038000
006000
006000
006000
006000
006000
006000
001C00
001C00
000C00
000380
000380
000380
000380
000380
000180
000070
000070
ENDCHAR
STARTCHAR bracketright
ENCODING 93
SWIDTH 540 0
DWIDTH 29 0
BBX 11 34 6 -3
BITMAP
FFE0
FFE0
FFE0
00E0
00E0
00E0
00E0
00E0
00E0
00E0
00E0
00E0
00E0
00E0
00E0
00E0
00E0
00E0
00E0
00E0
00E0
00E0
00E0
00E0
00E0
00E0
00E0
00E0
00E0
00E0
00E0
FFE0
FFE0
FFE0
ENDCHAR
STARTCHAR asciicircum
ENCODING 94
SWIDTH 540 0
DWIDTH 29 0
BBX 20 11 3 17
BITMAP
006000
006000
039C00
039C00
039C00
1C0380
1C0380
1C0380
E00070
E00070
E00070
ENDCHAR
STARTCHAR underscore
ENCODING 95
SWIDTH 540 0
DWIDTH 29 0
BBX 23 3 0 -3
BITMAP
FFFFFE
FFFFFE
FFFFFE
ENDCHAR
STARTCHAR grave
ENCODING 96
SWIDTH 540 0
DWIDTH 29 0
BBX 8 9 9 28
BITMAP
E0
E0
E0
18
18
18
07
07
03
ENDCHAR
STARTCHAR a
ENCODING 97
SWIDTH 540 0
DWIDTH 29 0
BBX 20 20 3 0
BITMAP
1FFF80
1FFF80
1FFF80
000070
000070
000070
000070
000070
000070
1FFFF0
1FFFF0
1FFFF0
E00070
E00070
E00070
E003F0
E003F0
E003F0
1FFC70
1FFC70
ENDCHAR
STARTCHAR b
ENCODING 98
SWIDTH 540 0
DWIDTH 29 0
BBX 20 28 3 0
BITMAP
E00000
E00000
E00000
E00000
E00000
E00000
E00000
E00000
E3FF80
E3FF80
E3FF80
FC0070
FC0070
FC0070
E00070
E00070
E00070
E00070
E00070
E00070
E00070
E00070
E00070
FC0070
FC0070
FC0070
E3FF80
E3FF80
ENDCHAR
STARTCHAR c
ENCODING 99
SWIDTH 540 0
DWIDTH 29 0
BBX 20 20 3 0
BITMAP
1FFF80
1FFF80
1FFF80
E00070
E00070
E00070
E00000
E00000
E00000
E00000
E00000
E00000
E00000
E00000
E00000
E00070
E00070
E00070
1FFF80
1FFF80
ENDCHAR
STARTCHAR d
ENCODING 100
SWIDTH 540 0
DWIDTH 29 0
BBX 20 28 3 0
BITMAP
000070
000070
000070
000070
000070
000070
000070
000070
1FFC70
1FFC70
1FFC70
E003F0
E003F0
E003F0
E00070
E00070
E00070
E00070
E00070
E00070
E00070
E00070
E00070
E003F0
E003F0
E003F0
1FFC70
1FFC70
ENDCHAR
STARTCHAR e
ENCODING 101
SWIDTH 540 0
DWIDTH 29 0
BBX 20 20 3 0
BITMAP
1FFF80
1FFF80
1FFF80
E00070
E00070
E00070
E00070
E00070
E00070
FFFFF0
FFFFF0
FFFFF0
E00000
E00000
E00000
E00070
E00070
E00070
1FFF80
1FFF80
ENDCHAR
STARTCHAR f
ENCODING 102
SWIDTH 540 0
DWIDTH 29 0
BBX 20 28 3 0
BITMAP
007F80
007F80
038070
038070
038070
038070
038070
038070
038000
038000
038000
038000
038000
038000
FFFC00
FFFC00
FFFC00
038000
038000
038000
038000
038000
038000
038000
038000
038000
038000
038000
ENDCHAR
STARTCHAR g
ENCODING 103
SWIDTH 540 0
DWIDTH 29 0
BBX 20 29 3 -9
BITMAP
1FFC70
1FFC70
1FFC70
E00380
E00380
E00380
E00380
E00380
E00380
E00380
E00380
E00380
1FFC00
1FFC00
1FFC00
E00000
E00000
E00000
1FFF80
1FFF80
E00070
E00070
E00070
E00070
E00070
E00070
1FFF80
1FFF80
1FFF80
ENDCHAR
STARTCHAR h
ENCODING 104
SWIDTH 540 0
DWIDTH 29 0
BBX 20 28 3 0
BITMAP
E00000
E00000
E00000
E00000
E00000
E00000
E00000
E00000
E3FF80
E3FF80
E3FF80
FC0070
FC0070
FC0070
E00070
E00070
E00070
E00070
E00070
E00070
E00070
E00070
E00070
E00070
E00070
E00070
E00070
E00070
ENDCHAR
STARTCHAR i
ENCODING 105
SWIDTH 540 0
DWIDTH 29 0
BBX 14 28 6 0
BITMAP
1F00
1F00
0000
0000
0000
0000
0000
0000
FF00
FF00
FF00
0700
0300
0300
0300
0300
0300
0300
0300
0300
0300
0300
0300
0300
0300
0780
FFFC
FFFC
ENDCHAR
STARTCHAR j
ENCODING 106
SWIDTH 540 0
DWIDTH 29 0
BBX 14 37 6 -9
BITMAP
00FC
00FC
0000
0000
0000
0000
0000
0000
03FC
03FC
03FC
001C
001C
001C
001C
001C
001C
001C
001C
001C
001C
001C
001C
001C
001C
001C
001C
001C
C01C
E01C
E01C
E01C
E01C
E01C
1FE0
1FE0
1FE0
ENDCHAR
STARTCHAR k
ENCODING 107
SWIDTH 540 0
DWIDTH 29 0
BBX 20 28 3 0
BITMAP
E00000
E00000
E00000
E00000
E00000
E00000
E00000
E00000
E00380
E00380
E00380
E00C00
E01C00
E01C00
E06000
E06000
E0E000
E3E000
E3E000
E3E000
FC1C00
FC1C00
F80C00
E00380
E00380
E00180
E00070
E00070
ENDCHAR
STARTCHAR l
ENCODING 108
SWIDTH 540 0
DWIDTH 29 0
BBX 14 28 6 0
BITMAP
FF00
FF00
0700
0300
0300
0300
0300
0300
0300
0300
0300
0300
0300
0300
0300
0300
0300
0300
0300
0300
0300
0300
0300
0300
0300
0780
FFFC
FFFC
ENDCHAR
STARTCHAR m
ENCODING 109
SWIDTH 540 0
DWIDTH 29 0
BBX 20 20 3 0
BITMAP
FF0F80
FF9F80
FF9F80
E06070
E06070
E06070
E06070
E06070
E06070
E06070
E06070
E06070
E06070
E06070
E06070
E06070
E06070
E06070
E00070
E00070
ENDCHAR
STARTCHAR n
ENCODING 110
SWIDTH 540 0
DWIDTH 29 0
BBX 20 20 3 0
BITMAP
E3FF80
E3FF80
E3FF80
FC0070
FC0070
FC0070
E00070
E00070
E00070
E00070
E00070
E00070
E00070
E00070
E00070
E00070
E00070
E00070
E00070
E00070
ENDCHAR
STARTCHAR o
ENCODING 111
SWIDTH 540 0
DWIDTH 29 0
BBX 20 20 3 0
BITMAP
1FFF80
1FFF80
1FFF80
E00070
E00070
E00070
E00070
E00070
E00070
E00070
E00070
E00070
E00070
E00070
E00070
E00070
E00070
E00070
1FFF80
1FFF80
ENDCHAR
STARTCHAR p
ENCODING 112
SWIDTH 540 0
DWIDTH 29 0
BBX 20 29 3 -9
BITMAP
E3FC00
E3FC00
E3FC00
FC0380
FC0380
FC0380
E00070
E00070
E00070
E00070
E00070
E00070
E00070
E00070
E00070
FC0380
FC0380
FC0380
E3FC00
E3FC00
E00000
E00000
E00000
E00000
E00000
E00000
E00000
E00000
E00000
ENDCHAR
STARTCHAR q
ENCODING 113
SWIDTH 540 0
DWIDTH 29 0
BBX 20 29 3 -9
BITMAP
03FC70
03FC70
03FC70
1C03F0
1C03F0
1C03F0
E00070
E00070
E00070
E00070
E00070
E00070
E00070
E00070
E00070
1C03F0
1C03F0
1C03F0
03FC70
03FC70
000070
000070
000070
000070
000070
000070
000070
000070
000070
ENDCHAR
STARTCHAR r
ENCODING 114
SWIDTH 540 0
DWIDTH 29 0
BBX 20 20 3 0
BITMAP
E07F80
E07F80
E07F80
1F8070
1F8070
1F8070
1C0070
1C0070
1C0070
1C0000
1C0000
1C0000
1C0000
1C0000
1C0000
1C0000
1C0000
1C0000
1C0000
1C0000
ENDCHAR
STARTCHAR s
ENCODING 115
SWIDTH 540 0
DWIDTH 29 0
BBX 20 20 3 0
BITMAP
1FFF80
1FFF80
1FFF80
E00070
E00070
E00070
E00000
E00000
E00000
1FFF80
1FFF80
1FFF80
000070
000070
000070
E00070
E00070
E00070
1FFF80
1FFF80
ENDCHAR
STARTCHAR t
ENCODING 116
SWIDTH 540 0
DWIDTH 29 0
BBX 20 26 3 0
BITMAP
030000
038000
038000
038000
038000
038000
FFFF80
FFFF80
FFFF80
038000
038000
038000
038000
038000
038000
038000
038000
038000
038000
038000
038000
038070
038070
038070
007F80
007F80
ENDCHAR
STARTCHAR u
ENCODING 117
SWIDTH 540 0
DWIDTH 29 0
BBX 20 20 3 0
BITMAP
E00070
E00070
E00070
E00070
E00070
E00070
E00070
E00070
E00070
E00070
E00070
E00070
E00070
E00070
E00070
E003F0
E003F0
E003F0
1FFC70
1FFC70
ENDCHAR
STARTCHAR v
ENCODING 118
SWIDTH 540 0
DWIDTH 29 0
BBX 20 20 3 0
BITMAP
E00070
E00070
E00070
E00070
E00070
E00070
1C0380
1C0380
1C0380
1C0380
1C0380
1C0380
039C00
039C00
039C00
039C00
039C00
039C00
006000
006000
ENDCHAR
STARTCHAR w
ENCODING 119
SWIDTH 540 0
DWIDTH 29 0
BBX 20 20 3 0
BITMAP
E00070
E00070
E00070
E00070
E00070
E00070
E06070
E06070
E06070
E06070
E06070
E06070
E06070
E06070
E06070
E39C70
E39C70
E30C70
1C0380
1C0380
ENDCHAR
STARTCHAR x
ENCODING 120
SWIDTH 540 0
DWIDTH 29 0
BBX 20 20 3 0
BITMAP
E00070
E00070
E00070
1C0380
1C0380
1C0380
039C00
039C00
039C00
006000
006000
006000
039C00
039C00
030C00
1C0380
1C0380
180180
E00070
E00070
ENDCHAR
STARTCHAR y
ENCODING 121
SWIDTH 540 0
DWIDTH 29 0
BBX 20 29 3 -9
BITMAP
1C0070
1C0070
1C0070
1C0070
1C0070
1C0070
038380
038380
038380
038380
038380
038380
038380
038380
038380
007C00
007C00
007C00
007C00
007C00
007000
006000
006000
E06000
E06000
E06000
1F8000
1F8000
1F8000
ENDCHAR
STARTCHAR z
ENCODING 122
SWIDTH 540 0
DWIDTH 29 0
BBX 20 20 3 0
BITMAP
FFFFF0
FFFFF0
FFFFF0
000380
000380
000380
001C00
001C00
001C00
006000
006000
006000
038000
038000
030000
1C0000
1C0000
3C0000
FFFFF0
FFFFF0
ENDCHAR
STARTCHAR braceleft
ENCODING 123
SWIDTH 540 0
DWIDTH 29 0
BBX 17 31 6 0
BITMAP
00FF80
00FF80
00FF80
030000
030000
030000
030000
030000
030000
030000
030000
030000
030000
030000
FC0000
FC0000
FC0000
030000
030000
030000
030000
030000
030000
030000
030000
030000
030000
030000
030000
00FF80
00FF80
ENDCHAR
STARTCHAR bar
ENCODING 124
SWIDTH 540 0
DWIDTH 29 0
BBX 2 34 12 -3
BITMAP
C0
C0
C0
C0
C0
C0
C0
C0
C0
C0
C0
C0
C0
C0
C0
C0
C0
C0
C0
C0
C0
C0
C0
C0
C0
C0
C0
C0
C0
C0
C0
C0
C0
C0
ENDCHAR
STARTCHAR braceright
ENCODING 125
SWIDTH 540 0
DWIDTH 29 0
BBX 17 31 3 0
BITMAP
FF8000
FF8000
FF8000
006000
006000
006000
006000
006000
006000
006000
006000
006000
006000
006000
001F80
001F80
001F80
006000
006000
006000
006000
006000
006000
006000
006000
006000
006000
006000
006000
FF8000
FF8000
ENDCHAR
STARTCHAR asciitilde
ENCODING 126
SWIDTH 540 0
DWIDTH 29 0
BBX 20 8 3 20
BITMAP
1F8070
1F8070
E06070
E06070
E06070
E01F80
E01F80
E01F80
ENDCHAR
STARTCHAR space
ENCODING 160
SWIDTH 540 0
DWIDTH 29 0
BBX 1 1 25 -12
BITMAP
00
ENDCHAR
STARTCHAR exclamdown
ENCODING 161
SWIDTH 540 0
DWIDTH 29 0
BBX 2 31 12 0
BITMAP
C0
C0
C0
C0
C0
00
00
00
00
00
00
C0
C0
C0
C0
C0
C0
C0
C0
C0
C0
C0
C0
C0
C0
C0
C0
C0
C0
C0
C0
ENDCHAR
STARTCHAR cent
ENCODING 162
SWIDTH 540 0
DWIDTH 29 0
BBX 17 23 3 0
BITMAP
000C00
001C00
001C00
1FFC00
1FFC00
1FFC00
E0F380
E06380
E06380
E06000
E06000
E06000
E38000
E38000
E38000
E38380
E38380
E78380
1FFC00
1FFC00
1FFC00
1C0000
1C0000
ENDCHAR
STARTCHAR sterling
ENCODING 163
SWIDTH 540 0
DWIDTH 29 0
BBX 20 28 3 0
BITMAP
007F80
007F80
038070
038070
038070
038000
038000
038000
038000
038000
038000
FFFC00
FFFC00
FFFC00
038000
038000
038000
038000
038000
038000
1F8000
1F8000
1F8000
E38070
E38070
E38070
1C7F80
1C7F80
ENDCHAR
STARTCHAR currency
ENCODING 164
SWIDTH 540 0
DWIDTH 29 0
BBX 20 18 3 8
BITMAP
C00030
E00070
E00070
1FFF80
1FFF80
1FFF80
1C0380
1C0380
1C0380
1C0380
1C0380
1C0380
1FFF80
1FFF80
1FFF80
E00070
E00070
E00070
ENDCHAR
STARTCHAR yen
ENCODING 165
SWIDTH 540 0
DWIDTH 29 0
BBX 20 28 3 0
BITMAP
E00070
E00070
E00070
E00070
E00070
180180
1C0380
1C0380
030C00
039C00
039C00
1FFF80
1FFF80
1FFF80
006000
006000
00F000
1FFF80
1FFF80
1FFF80
006000
006000
006000
006000
006000
006000
006000
006000
ENDCHAR
STARTCHAR brokenbar
ENCODING 166
SWIDTH 540 0
DWIDTH 29 0
BBX 2 31 12 -3
BITMAP
C0
C0
C0
C0
C0
C0
C0
C0
C0
C0
C0
C0
C0
C0
00
00
00
C0
C0
C0
C0
C0
C0
C0
C0
C0
C0
C0
C0
C0
C0
ENDCHAR
STARTCHAR section
ENCODING 167
SWIDTH 540 0
DWIDTH 29 0
BBX 11 31 6 -3
BITMAP
1F00
1F00
E0E0
E0E0
E0E0
E000
E000
E000
1F00
1F00
1F00
E0E0
E0E0
E0E0
E0E0
E0E0
E0E0
E0E0
E0E0
E0E0
1F00
1F00
1F00
00E0
00E0
00E0
E0E0
E0E0
1F00
1F00
1F00
ENDCHAR
STARTCHAR dieresis
ENCODING 168
SWIDTH 540 0
DWIDTH 29 0
BBX 8 6 9 31
BITMAP
E7
E7
E7
E7
E7
C3
ENDCHAR
STARTCHAR copyright
ENCODING 169
SWIDTH 540 0
DWIDTH 29 0
BBX 23 26 0 2
BITMAP
03FF80
03FF80
1C0070
1C0070
1C0070
E07C0E
E07C0E
E07C0E
E3838E
E3838E
E3838E
E3800E
E3800E
E3800E
E3838E
E3838E
E3838E
E07C0E
E07C0E
E07C0E
1C0070
1C0070
1C0070
03FF80
03FF80
03FF80
ENDCHAR
STARTCHAR ordfeminine
ENCODING 170
SWIDTH 540 0
DWIDTH 29 0
BBX 14 20 3 8
BITMAP
1F80
1F80
E060
E060
E060
1FE0
1FE0
1FE0
E0E0
E060
E060
1FFC
1FFC
1FFC
0000
0000
0000
FFFC
FFFC
FFFC
ENDCHAR
STARTCHAR guillemotleft
ENCODING 171
SWIDTH 540 0
DWIDTH 29 0
BBX 20 24 3 2
BITMAP
006030
006070
006070
038180
038380
038380
1C0C00
1C1C00
1C1C00
E06000
E06000
E06000
E06000
E06000
E06000
1C1C00
1C1C00
1C0C00
038380
038380
038180
006070
006070
006030
ENDCHAR
STARTCHAR logicalnot
ENCODING 172
SWIDTH 540 0
DWIDTH 29 0
BBX 17 12 3 5
BITMAP
FFFF80
FFFF80
FFFF80
000380
000380
000380
000380
000380
000380
000380
000380
000180
ENDCHAR
STARTCHAR hyphen
ENCODING 173
SWIDTH 540 0
DWIDTH 29 0
BBX 14 3 6 11
BITMAP
FFFC
FFFC
FFFC
ENDCHAR
STARTCHAR registered
ENCODING 174
SWIDTH 540 0
DWIDTH 29 0
BBX 23 26 0 2
BITMAP
03FF80
03FF80
1C0070
1C0070
1C0070
E3FC0E
E3FC0E
E3FC0E
E3838E
E3838E
E3838E
E3FF8E
E3FF8E
E3FF8E
E38C0E
E38C0E
E38C0E
E3838E
E3838E
E3818E
1C0070
1C0070
1C0070
03FF80
03FF80
03FF80
ENDCHAR
STARTCHAR macron
ENCODING 175
SWIDTH 540 0
DWIDTH 29 0
BBX 17 2 3 26
BITMAP
FFFF80
FFFF80
ENDCHAR
STARTCHAR degree
ENCODING 176
SWIDTH 540 0
DWIDTH 29 0
BBX 11 11 9 17
BITMAP
1F00
1F00
E0E0
E0E0
E0E0
E0E0
E0E0
E0E0
1F00
1F00
1F00
ENDCHAR
STARTCHAR plusminus
ENCODING 177
SWIDTH 540 0
DWIDTH 29 0
BBX 20 26 3 2
BITMAP
006000
006000
006000
006000
006000
006000
006000
006000
FFFFF0
FFFFF0
FFFFF0
00F000
006000
006000
006000
006000
006000
006000
006000
006000
000000
000000
000000
FFFFF0
FFFFF0
FFFFF0
ENDCHAR
STARTCHAR twosuperior
ENCODING 178
SWIDTH 540 0
DWIDTH 29 0
BBX 11 17 3 11
BITMAP
1F80
1F80
E060
E060
E060
0060
0060
0060
1F80
1F80
1F80
E000
E000
E000
FFE0
FFE0
FFE0
ENDCHAR
STARTCHAR threesuperior
ENCODING 179
SWIDTH 540 0
DWIDTH 29 0
BBX 11 17 3 11
BITMAP
1F80
1F80
E060
E060
E060
0380
0380
0380
0060
0060
0060
E060
E060
E060
1F80
1F80
1F00
ENDCHAR
STARTCHAR acute
ENCODING 180
SWIDTH 540 0
DWIDTH 29 0
BBX 8 9 9 28
BITMAP
07
07
07
18
18
18
E0
E0
C0
ENDCHAR
STARTCHAR mu
ENCODING 181
SWIDTH 540 0
DWIDTH 29 0
BBX 20 26 3 -6
BITMAP
E00070
E00070
E00070
E00070
E00070
E00070
E00070
E00070
E00070
E00070
E00070
E00070
E00070
E00070
E00070
FC03F0
FC03F0
FC03F0
E3FC70
E3FC70
E00000
E00000
E00000
E00000
E00000
E00000
ENDCHAR
STARTCHAR paragraph
ENCODING 182
SWIDTH 540 0
DWIDTH 29 0
BBX 20 28 3 0
BITMAP
1FFFF0
1FFFF0
E01E70
E01C70
E01C70
E01C70
E01C70
E01C70
E01C70
E01C70
E01C70
1FFC70
1FFC70
1FFC70
001C70
001C70
001C70
001C70
001C70
001C70
001C70
001C70
001C70
001C70
001C70
001C70
001C70
001C70
ENDCHAR
STARTCHAR periodcentered
ENCODING 183
SWIDTH 540 0
DWIDTH 29 0
BBX 5 6 12 11
BITMAP
F8
F8
F8
F8
F8
F8
ENDCHAR
STARTCHAR cedilla
ENCODING 184
SWIDTH 540 0
DWIDTH 29 0
BBX 11 9 6 -9
BITMAP
0300
0300
0300
C0E0
E0E0
E0E0
1F00
1F00
1F00
ENDCHAR
STARTCHAR onesuperior
ENCODING 185
SWIDTH 540 0
DWIDTH 29 0
BBX 9 17 3 11
BITMAP
1C00
1C00
FC00
FC00
FC00
1C00
1C00
1C00
1C00
1C00
1C00
1C00
1C00
1C00
FF80
FF80
FF00
ENDCHAR
STARTCHAR ordmasculine
ENCODING 186
SWIDTH 540 0
DWIDTH 29 0
BBX 14 17 3 11
BITMAP
1FE0
1FE0
E01C
E01C
E01C
E01C
E01C
E01C
1FE0
1FE0
1FE0
0000
0000
0000
FFFC
FFFC
FFFC
ENDCHAR
STARTCHAR guillemotright
ENCODING 187
SWIDTH 540 0
DWIDTH 29 0
BBX 20 24 3 2
BITMAP
C06000
E06000
E06000
181C00
1C1C00
1C1C00
030380
038380
038380
006070
006070
006070
006070
006070
006070
038380
038380
030380
1C1C00
1C1C00
181C00
E06000
E06000
C06000
ENDCHAR
STARTCHAR onequarter
ENCODING 188
SWIDTH 540 0
DWIDTH 29 0
BBX 20 28 3 0
BITMAP
1C0000
1C0000
FC0000
FC0000
FC0000
1C0000
1C0000
1C0000
1C0000
1C0000
1C0000
1C0070
1C0070
1C0070
FF83F0
FF83F0
FF03F0
001C70
001C70
001C70
006070
006070
007070
007C70
007C70
007C70
0003F0
0003F0
ENDCHAR
STARTCHAR onehalf
ENCODING 189
SWIDTH 540 0
DWIDTH 29 0
BBX 20 28 3 0
BITMAP
1C0000
1C0000
FC0000
FC0000
FC0000
1C0000
1C0000
1C0000
1C0000
1C0000
1C0000
1C0F80
1C1F80
1C1F80
FFE070
FFE070
FFE070
000070
000070
000070
001F80
001F80
001F80
006000
006000
007000
007FF0
007FF0
ENDCHAR
STARTCHAR threequarters
ENCODING 190
SWIDTH 540 0
DWIDTH 29 0
BBX 20 28 3 0
BITMAP
1F8000
1F8000
E06000
E06000
E06000
038000
038000
038000
006000
006000
006000
E06070
E06070
E06070
1F83F0
1F83F0
1F03F0
001C70
001C70
001C70
006070
006070
007070
007C70
007C70
007C70
0003F0
0003F0
ENDCHAR
STARTCHAR questiondown
ENCODING 191
SWIDTH 540 0
DWIDTH 29 0
BBX 20 28 3 0
BITMAP
006000
006000
000000
000000
000000
006000
006000
006000
006000
006000
006000
038000
038000
038000
1C0000
1C0000
1C0000
E00000
E00000
E00000
E00070
E00070
E00070
E00070
E00070
E00070
1FFF80
1FFF80
ENDCHAR
STARTCHAR Agrave
ENCODING 192
SWIDTH 540 0
DWIDTH 29 0
BBX 20 40 3 0
BITMAP
038000
038000
038000
006000
006000
006000
001C00
001C00
000C00
000000
000000
000000
006000
006000
039C00
039C00
039C00
039C00
039C00
039C00
039C00
039C00
039C00
1C0380
1C0380
1C0380
1FFF80
1FFF80
1FFF80
1C0380
1C0380
1C0380
E00070
E00070
E00070
E00070
E00070
E00070
E00070
E00070
ENDCHAR
STARTCHAR Aacute
ENCODING 193
SWIDTH 540 0
DWIDTH 29 0
BBX 20 40 3 0
BITMAP
001C00
001C00
001C00
006000
006000
006000
038000
038000
030000
000000
000000
000000
006000
006000
039C00
039C00
039C00
039C00
039C00
039C00
039C00
039C00
039C00
1C0380
1C0380
1C0380
1FFF80
1FFF80
1FFF80
1C0380
1C0380
1C0380
E00070
E00070
E00070
E00070
E00070
E00070
E00070
E00070
ENDCHAR
STARTCHAR Acircumflex
ENCODING 194
SWIDTH 540 0
DWIDTH 29 0
BBX 20 40 3 0
BITMAP
006000
006000
006000
039C00
039C00
030C00
1C0380
1C0380
180180
000000
000000
000000
006000
006000
039C00
039C00
039C00
039C00
039C00
039C00
039C00
039C00
039C00
1C0380
1C0380
1C0380
1FFF80
1FFF80
1FFF80
1C0380
1C0380
1C0380
E00070
E00070
E00070
E00070
E00070
E00070
E00070
E00070
ENDCHAR
STARTCHAR Atilde
ENCODING 195
SWIDTH 540 0
DWIDTH 29 0
BBX 20 37 3 0
BITMAP
03E380
03E380
03F380
1C7C00
1C7C00
187C00
000000
000000
000000
006000
006000
039C00
039C00
039C00
039C00
039C00
039C00
039C00
039C00
039C00
1C0380
1C0380
1C0380
1FFF80
1FFF80
1FFF80
1C0380
1C0380
1C0380
E00070
E00070
E00070
E00070
E00070
E00070
E00070
E00070
ENDCHAR
STARTCHAR Adieresis
ENCODING 196
SWIDTH 540 0
DWIDTH 29 0
BBX 20 37 3 0
BITMAP
039C00
039C00
039C00
039C00
039C00
030C00
000000
000000
000000
006000
006000
039C00
039C00
039C00
039C00
039C00
039C00
039C00
039C00
039C00
1C0380
1C0380
1C0380
1FFF80
1FFF80
1FFF80
1C0380
1C0380
1C0380
E00070
E00070
E00070
E00070
E00070
E00070
E00070
E00070
ENDCHAR
STARTCHAR Aring
ENCODING 197
SWIDTH 540 0
DWIDTH 29 0
BBX 20 40 3 0
BITMAP
006000
006000
006000
039C00
039C00
039C00
039C00
039C00
039C00
006000
006000
006000
006000
006000
039C00
039C00
039C00
039C00
039C00
039C00
039C00
039C00
039C00
1C0380
1C0380
1C0380
1FFF80
1FFF80
1FFF80
1C0380
1C0380
1C0380
E00070
E00070
E00070
E00070
E00070
E00070
E00070
E00070
ENDCHAR
STARTCHAR AE
ENCODING 198
SWIDTH 540 0
DWIDTH 29 0
BBX 20 28 3 0
BITMAP
007FF0
007FF0
039E00
039C00
039C00
039C00
039C00
039C00
039C00
039C00
039C00
1C1FF0
1C1FF0
1C1FF0
1FFC00
1FFC00
1FFC00
1C1C00
1C1C00
1C1C00
E01C00
E01C00
E01C00
E01C00
E01C00
E01E00
E01FF0
E01FF0
ENDCHAR
STARTCHAR Ccedilla
ENCODING 199
SWIDTH 540 0
DWIDTH 29 0
BBX 20 37 3 -9
BITMAP
03FF80
03FF80
1C0070
1C0070
1C0070
E00000
E00000
E00000
E00000
E00000
E00000
E00000
E00000
E00000
E00000
E00000
E00000
E00000
E00000
E00000
E00000
E00000
E00000
1C0070
1C0070
1C0070
03FF80
03FF80
001E00
001C00
001C00
030380
038380
038380
007C00
007C00
007C00
ENDCHAR
STARTCHAR Egrave
ENCODING 200
SWIDTH 540 0
DWIDTH 29 0
BBX 20 40 3 0
BITMAP
038000
038000
038000
006000
006000
006000
001C00
001C00
000C00
000000
000000
000000
FFFFF0
FFFFF0
E00000
E00000
E00000
E00000
E00000
E00000
E00000
E00000
E00000
FFFC00
FFFC00
FFFC00
E00000
E00000
E00000
E00000
E00000
E00000
E00000
E00000
E00000
E00000
E00000
E00000
FFFFF0
FFFFF0
ENDCHAR
STARTCHAR Eacute
ENCODING 201
SWIDTH 540 0
DWIDTH 29 0
BBX 20 40 3 0
BITMAP
001C00
001C00
001C00
006000
006000
006000
038000
038000
030000
000000
000000
000000
FFFFF0
FFFFF0
E00000
E00000
E00000
E00000
E00000
E00000
E00000
E00000
E00000
FFFC00
FFFC00
FFFC00
E00000
E00000
E00000
E00000
E00000
E00000
E00000
E00000
E00000
E00000
E00000
E00000
FFFFF0
FFFFF0
ENDCHAR
STARTCHAR Ecircumflex
ENCODING 202
SWIDTH 540 0
DWIDTH 29 0
BBX 20 40 3 0
BITMAP
006000
006000
006000
039C00
039C00
030C00
1C0380
1C0380
180180
000000
000000
000000
FFFFF0
FFFFF0
E00000
E00000
E00000
E00000
E00000
E00000
E00000
E00000
E00000
FFFC00
FFFC00
FFFC00
E00000
E00000
E00000
E00000
E00000
E00000
E00000
E00000
E00000
E00000
E00000
E00000
FFFFF0
FFFFF0
ENDCHAR
STARTCHAR Edieresis
ENCODING 203
SWIDTH 540 0
DWIDTH 29 0
BBX 20 37 3 0
BITMAP
039C00
039C00
039C00
039C00
039C00
030C00
000000
000000
000000
FFFFF0
FFFFF0
E00000
E00000
E00000
E00000
E00000
E00000
E00000
E00000
E00000
FFFC00
FFFC00
FFFC00
E00000
E00000
E00000
E00000
E00000
E00000
E00000
E00000
E00000
E00000
E00000
E00000
FFFFF0
FFFFF0
ENDCHAR
STARTCHAR Igrave
ENCODING 204
SWIDTH 540 0
DWIDTH 29 0
BBX 14 40 6 0
BITMAP
1C00
1C00
1C00
0300
0300
0300
00E0
00E0
0060
0000
0000
0000
FFFC
FFFC
0780
0300
0300
0300
0300
0300
0300
0300
0300
0300
0300
0300
0300
0300
0300
0300
0300
0300
0300
0300
0300
0300
0300
0780
FFFC
FFFC
ENDCHAR
STARTCHAR Iacute
ENCODING 205
SWIDTH 540 0
DWIDTH 29 0
BBX 14 40 6 0
BITMAP
00E0
00E0
00E0
0300
0300
0300
1C00
1C00
1800
0000
0000
0000
FFFC
FFFC
0780
0300
0300
0300
0300
0300
0300
0300
0300
0300
0300
0300
0300
0300
0300
0300
0300
0300
0300
0300
0300
0300
0300
0780
FFFC
FFFC
ENDCHAR
STARTCHAR Icircumflex
ENCODING 206
SWIDTH 540 0
DWIDTH 29 0
BBX 14 40 6 0
BITMAP
0300
0300
0300
1CE0
1CE0
1860
E01C
E01C
C00C
0000
0000
0000
FFFC
FFFC
0780
0300
0300
0300
0300
0300
0300
0300
0300
0300
0300
0300
0300
0300
0300
0300
0300
0300
0300
0300
0300
0300
0300
0780
FFFC
FFFC
ENDCHAR
STARTCHAR Idieresis
ENCODING 207
SWIDTH 540 0
DWIDTH 29 0
BBX 14 37 6 0
BITMAP
1CE0
1CE0
1CE0
1CE0
1CE0
1860
0000
0000
0000
FFFC
FFFC
0780
0300
0300
0300
0300
0300
0300
0300
0300
0300
0300
0300
0300
0300
0300
0300
0300
0300
0300
0300
0300
0300
0300
0780
FFFC
FFFC
ENDCHAR
STARTCHAR Eth
ENCODING 208
SWIDTH 540 0
DWIDTH 29 0
BBX 20 28 3 0
BITMAP
1FFC00
1FFC00
1C0380
1C0380
1C0380
1C0070
1C0070
1C0070
1C0070
1C0070
1C0070
FFE070
FFE070
FFE070
1C0070
1C0070
1C0070
1C0070
1C0070
1C0070
1C0070
1C0070
1C0070
1C0380
1C0380
1C0380
1FFC00
1FFC00
ENDCHAR
STARTCHAR Ntilde
ENCODING 209
SWIDTH 540 0
DWIDTH 29 0
BBX 20 37 3 0
BITMAP
03E380
03E380
03F380
1C7C00
1C7C00
187C00
000000
000000
000000
E00070
E00070
E00070
E00070
E00070
F80070
FC0070
FC0070
E30070
E38070
E38070
E06070
E06070
E06070
E01C70
E01C70
E00C70
E003F0
E003F0
E003F0
E00070
E00070
E00070
E00070
E00070
E00070
E00070
E00070
ENDCHAR
STARTCHAR Ograve
ENCODING 210
SWIDTH 540 0
DWIDTH 29 0
BBX 20 40 3 0
BITMAP
038000
038000
038000
006000
006000
006000
001C00
001C00
000C00
000000
000000
000000
1FFF80
1FFF80
E00070
E00070
E00070
E00070
E00070
E00070
E00070
E00070
E00070
E00070
E00070
E00070
E00070
E00070
E00070
E00070
E00070
E00070
E00070
E00070
E00070
E00070
E00070
E00070
1FFF80
1FFF80
ENDCHAR
STARTCHAR Oacute
ENCODING 211
SWIDTH 540 0
DWIDTH 29 0
BBX 20 40 3 0
BITMAP
001C00
001C00
001C00
006000
006000
006000
038000
038000
030000
000000
000000
000000
1FFF80
1FFF80
E00070
E00070
E00070
E00070
E00070
E00070
E00070
E00070
E00070
E00070
E00070
E00070
E00070
E00070
E00070
E00070
E00070
E00070
E00070
E00070
E00070
E00070
E00070
E00070
1FFF80
1FFF80
ENDCHAR
STARTCHAR Ocircumflex
ENCODING 212
SWIDTH 540 0
DWIDTH 29 0
BBX 20 40 3 0
BITMAP
006000
006000
006000
039C00
039C00
030C00
1C0380
1C0380
180180
000000
000000
000000
1FFF80
1FFF80
E00070
E00070
E00070
E00070
E00070
E00070
E00070
E00070
E00070
E00070
E00070
E00070
E00070
E00070
E00070
E00070
E00070
E00070
E00070
E00070
E00070
E00070
E00070
E00070
1FFF80
1FFF80
ENDCHAR
STARTCHAR Otilde
ENCODING 213
SWIDTH 540 0
DWIDTH 29 0
BBX 20 37 3 0
BITMAP
03E380
03E380
03F380
1C7C00
1C7C00
187C00
000000
000000
000000
1FFF80
1FFF80
E00070
E00070
E00070
E00070
E00070
E00070
E00070
E00070
E00070
E00070
E00070
E00070
E00070
E00070
E00070
E00070
E00070
E00070
E00070
E00070
E00070
E00070
E00070
E00070
1FFF80
1FFF80
ENDCHAR
STARTCHAR Odieresis
ENCODING 214
SWIDTH 540 0
DWIDTH 29 0
BBX 20 37 3 0
BITMAP
039C00
039C00
039C00
039C00
039C00
030C00
000000
000000
000000
1FFF80
1FFF80
E00070
E00070
E00070
E00070
E00070
E00070
E00070
E00070
E00070
E00070
E00070
E00070
E00070
E00070
E00070
E00070
E00070
E00070
E00070
E00070
E00070
E00070
E00070
E00070
1FFF80
1FFF80
ENDCHAR
STARTCHAR multiply
ENCODING 215
SWIDTH 540 0
DWIDTH 29 0
BBX 20 21 3 2
BITMAP
E00070
E00070
E00070
1C0380
1C0380
1C0380
030C00
039C00
039C00
006000
006000
006000
039C00
039C00
030C00
1C0380
1C0380
180180
E00070
E00070
C00030
ENDCHAR
STARTCHAR Oslash
ENCODING 216
SWIDTH 540 0
DWIDTH 29 0
BBX 20 34 3 -3
BITMAP
000070
000070
000070
1FFF80
1FFF80
E003F0
E003F0
E003F0
E00C70
E01C70
E01C70
E01C70
E01C70
E01C70
E06070
E06070
E06070
E06070
E06070
E06070
E38070
E38070
E38070
E38070
E38070
E30070
FC0070
FC0070
FC0070
1FFF80
1FFF80
E00000
E00000
E00000
ENDCHAR
STARTCHAR Ugrave
ENCODING 217
SWIDTH 540 0
DWIDTH 29 0
BBX 20 40 3 0
BITMAP
038000
038000
038000
006000
006000
006000
001C00
001C00
000C00
000000
000000
000000
E00070
E00070
E00070
E00070
E00070
E00070
E00070
E00070
E00070
E00070
E00070
E00070
E00070
E00070
E00070
E00070
E00070
E00070
E00070
E00070
E00070
E00070
E00070
1C0380
1C0380
1C0380
03FC00
03FC00
ENDCHAR
STARTCHAR Uacute
ENCODING 218
SWIDTH 540 0
DWIDTH 29 0
BBX 20 40 3 0
BITMAP
001C00
001C00
001C00
006000
006000
006000
038000
038000
030000
000000
000000
000000
E00070
E00070
E00070
E00070
E00070
E00070
E00070
E00070
E00070
E00070
E00070
E00070
E00070
E00070
E00070
E00070
E00070
E00070
E00070
E00070
E00070
E00070
E00070
1C0380
1C0380
1C0380
03FC00
03FC00
ENDCHAR
STARTCHAR Ucircumflex
ENCODING 219
SWIDTH 540 0
DWIDTH 29 0
BBX 20 40 3 0
BITMAP
006000
006000
006000
039C00
039C00
030C00
1C0380
1C0380
180180
000000
000000
000000
E00070
E00070
E00070
E00070
E00070
E00070
E00070
E00070
E00070
E00070
E00070
E00070
E00070
E00070
E00070
E00070
E00070
E00070
E00070
E00070
E00070
E00070
E00070
1C0380
1C0380
1C0380
03FC00
03FC00
ENDCHAR
STARTCHAR Udieresis
ENCODING 220
SWIDTH 540 0
DWIDTH 29 0
BBX 20 37 3 0
BITMAP
039C00
039C00
039C00
039C00
039C00
030C00
000000
000000
000000
E00070
E00070
E00070
E00070
E00070
E00070
E00070
E00070
E00070
E00070
E00070
E00070
E00070
E00070
E00070
E00070
E00070
E00070
E00070
E00070
E00070
E00070
E00070
1C0380
1C0380
1C0380
03FC00
03FC00
ENDCHAR
STARTCHAR Yacute
ENCODING 221
SWIDTH 540 0
DWIDTH 29 0
BBX 20 40 3 0
BITMAP
001C00
001C00
001C00
006000
006000
006000
038000
038000
030000
000000
000000
000000
E00070
E00070
E00070
E00070
E00070
180180
1C0380
1C0380
030C00
039C00
039C00
006000
006000
006000
006000
006000
006000
006000
006000
006000
006000
006000
006000
006000
006000
006000
006000
006000
ENDCHAR
STARTCHAR Thorn
ENCODING 222
SWIDTH 540 0
DWIDTH 29 0
BBX 20 28 3 0
BITMAP
E00000
E00000
E00000
E00000
E00000
FFFF80
FFFF80
FFFF80
E00070
E00070
E00070
E00070
E00070
E00070
E00070
E00070
E00070
FFFF80
FFFF80
FFFF80
E00000
E00000
E00000
E00000
E00000
E00000
E00000
E00000
ENDCHAR
STARTCHAR germandbls
ENCODING 223
SWIDTH 540 0
DWIDTH 29 0
BBX 17 28 3 0
BITMAP
03FC00
03FC00
1C0380
1C0380
1C0380
1C0380
1C0380
1C0380
1C0C00
1C1C00
1C1C00
FC6000
FC6000
FC6000
1C1C00
1C1C00
1C0C00
1C0380
1C0380
1C0380
1C0380
1C0380
1C0380
1C0380
1C0380
1C0380
1C7C00
1C7C00
ENDCHAR
STARTCHAR agrave
ENCODING 224
SWIDTH 540 0
DWIDTH 29 0
BBX 20 31 3 0
BITMAP
038000
038000
038000
006000
006000
001C00
001C00
001C00
000000
000000
000000
1FFF80
1FFF80
1FFF80
000070
000070
000070
000070
000070
000070
1FFFF0
1FFFF0
1FFFF0
E00070
E00070
E00070
E003F0
E003F0
E003F0
1FFC70
1FFC70
ENDCHAR
STARTCHAR aacute
ENCODING 225
SWIDTH 540 0
DWIDTH 29 0
BBX 20 31 3 0
BITMAP
001C00
001C00
001C00
006000
006000
038000
038000
038000
000000
000000
000000
1FFF80
1FFF80
1FFF80
000070
000070
000070
000070
000070
000070
1FFFF0
1FFFF0
1FFFF0
E00070
E00070
E00070
E003F0
E003F0
E003F0
1FFC70
1FFC70
ENDCHAR
STARTCHAR acircumflex
ENCODING 226
SWIDTH 540 0
DWIDTH 29 0
BBX 20 31 3 0
BITMAP
006000
006000
006000
039C00
039C00
1C0380
1C0380
1C0380
000000
000000
000000
1FFF80
1FFF80
1FFF80
000070
000070
000070
000070
000070
000070
1FFFF0
1FFFF0
1FFFF0
E00070
E00070
E00070
E003F0
E003F0
E003F0
1FFC70
1FFC70
ENDCHAR
STARTCHAR atilde
ENCODING 227
SWIDTH 540 0
DWIDTH 29 0
BBX 20 28 3 0
BITMAP
03E380
03E380
1CFC00
1C7C00
1C7C00
000000
000000
000000
1FFF80
1FFF80
1FFF80
000070
000070
000070
000070
000070
000070
1FFFF0
1FFFF0
1FFFF0
E00070
E00070
E00070
E003F0
E003F0
E003F0
1FFC70
1FFC70
ENDCHAR
STARTCHAR adieresis
ENCODING 228
SWIDTH 540 0
DWIDTH 29 0
BBX 20 28 3 0
BITMAP
039C00
039C00
039C00
039C00
039C00
000000
000000
000000
1FFF80
1FFF80
1FFF80
000070
000070
000070
000070
000070
000070
1FFFF0
1FFFF0
1FFFF0
E00070
E00070
E00070
E003F0
E003F0
E003F0
1FFC70
1FFC70
ENDCHAR
STARTCHAR aring
ENCODING 229
SWIDTH 540 0
DWIDTH 29 0
BBX 20 34 3 0
BITMAP
006000
006000
006000
039C00
039C00
039C00
039C00
039C00
006000
006000
006000
000000
000000
000000
1FFF80
1FFF80
1FFF80
000070
000070
000070
000070
000070
000070
1FFFF0
1FFFF0
1FFFF0
E00070
E00070
E00070
E003F0
E003F0
E003F0
1FFC70
1FFC70
ENDCHAR
STARTCHAR ae
ENCODING 230
SWIDTH 540 0
DWIDTH 29 0
BBX 20 20 3 0
BITMAP
1F0F80
1F9F80
1F9F80
006070
006070
006070
006070
006070
00F070
1FFFF0
1FFFF0
1FFFF0
E06000
E06000
E06000
E06070
E06070
E06070
1F9F80
1F9F80
ENDCHAR
STARTCHAR ccedilla
ENCODING 231
SWIDTH 540 0
DWIDTH 29 0
BBX 20 29 3 -9
BITMAP
1FFF80
1FFF80
1FFF80
E00070
E00070
E00070
E00000
E00000
E00000
E00000
E00000
E00000
E00000
E00000
E00000
E00070
E00070
E00070
1FFF80
1FFF80
00F000
006000
006000
181C00
1C1C00
1C1C00
03E000
03E000
03E000
ENDCHAR
STARTCHAR egrave
ENCODING 232
SWIDTH 540 0
DWIDTH 29 0
BBX 20 31 3 0
BITMAP
038000
038000
038000
006000
006000
001C00
001C00
001C00
000000
000000
000000
1FFF80
1FFF80
1FFF80
E00070
E00070
E00070
E00070
E00070
E00070
FFFFF0
FFFFF0
FFFFF0
E00000
E00000
E00000
E00070
E00070
E00070
1FFF80
1FFF80
ENDCHAR
STARTCHAR eacute
ENCODING 233
SWIDTH 540 0
DWIDTH 29 0
BBX 20 31 3 0
BITMAP
001C00
001C00
001C00
006000
006000
038000
038000
038000
000000
000000
000000
1FFF80
1FFF80
1FFF80
E00070
E00070
E00070
E00070
E00070
E00070
FFFFF0
FFFFF0
FFFFF0
E00000
E00000
E00000
E00070
E00070
E00070
1FFF80
1FFF80
ENDCHAR
STARTCHAR ecircumflex
ENCODING 234
SWIDTH 540 0
DWIDTH 29 0
BBX 20 31 3 0
BITMAP
006000
006000
006000
039C00
039C00
1C0380
1C0380
1C0380
000000
000000
000000
1FFF80
1FFF80
1FFF80
E00070
E00070
E00070
E00070
E00070
E00070
FFFFF0
FFFFF0
FFFFF0
E00000
E00000
E00000
E00070
E00070
E00070
1FFF80
1FFF80
ENDCHAR
STARTCHAR edieresis
ENCODING 235
SWIDTH 540 0
DWIDTH 29 0
BBX 20 28 3 0
BITMAP
039C00
039C00
039C00
039C00
039C00
000000
000000
000000
1FFF80
1FFF80
1FFF80
E00070
E00070
E00070
E00070
E00070
E00070
FFFFF0
FFFFF0
FFFFF0
E00000
E00000
E00000
E00070
E00070
E00070
1FFF80
1FFF80
ENDCHAR
STARTCHAR igrave
ENCODING 236
SWIDTH 540 0
DWIDTH 29 0
BBX 14 34 6 0
BITMAP
E000
E000
E000
1C00
1C00
1C00
0300
0300
0000
0000
0000
0000
0000
0000
FF00
FF00
FF00
0700
0300
0300
0300
0300
0300
0300
0300
0300
0300
0300
0300
0300
0300
0780
FFFC
FFFC
ENDCHAR
STARTCHAR iacute
ENCODING 237
SWIDTH 540 0
DWIDTH 29 0
BBX 14 34 6 0
BITMAP
00E0
00E0
00E0
0300
0300
0300
1C00
1C00
0000
0000
0000
0000
0000
0000
FF00
FF00
FF00
0700
0300
0300
0300
0300
0300
0300
0300
0300
0300
0300
0300
0300
0300
0780
FFFC
FFFC
ENDCHAR
STARTCHAR icircumflex
ENCODING 238
SWIDTH 540 0
DWIDTH 29 0
BBX 14 34 6 0
BITMAP
0300
0300
0300
1CE0
1CE0
1860
E01C
E01C
0000
0000
0000
0000
0000
0000
FF00
FF00
FF00
0700
0300
0300
0300
0300
0300
0300
0300
0300
0300
0300
0300
0300
0300
0780
FFFC
FFFC
ENDCHAR
STARTCHAR idieresis
ENCODING 239
SWIDTH 540 0
DWIDTH 29 0
BBX 14 31 6 0
BITMAP
1CE0
1CE0
1CE0
1CE0
1CE0
0000
0000
0000
0000
0000
0000
FF00
FF00
FF00
0700
0300
0300
0300
0300
0300
0300
0300
0300
0300
0300
0300
0300
0300
0780
FFFC
FFFC
ENDCHAR
STARTCHAR eth
ENCODING 240
SWIDTH 540 0
DWIDTH 29 0
BBX 20 31 3 0
BITMAP
1C1C00
1C1C00
1C1C00
03E000
03E000
1CE000
1C6000
1C6000
001C00
001C00
001C00
03FF80
03FF80
03FF80
1C0380
1C0380
1C0380
E00070
E00070
E00070
E00070
E00070
E00070
E00070
E00070
E00070
1C0380
1C0380
1C0380
03FC00
03FC00
ENDCHAR
STARTCHAR ntilde
ENCODING 241
SWIDTH 540 0
DWIDTH 29 0
BBX 20 28 3 0
BITMAP
03E380
03E380
1CFC00
1C7C00
1C7C00
000000
000000
000000
E3FF80
E3FF80
E3FF80
FC0070
FC0070
FC0070
E00070
E00070
E00070
E00070
E00070
E00070
E00070
E00070
E00070
E00070
E00070
E00070
E00070
E00070
ENDCHAR
STARTCHAR ograve
ENCODING 242
SWIDTH 540 0
DWIDTH 29 0
BBX 20 31 3 0
BITMAP
038000
038000
038000
006000
006000
001C00
001C00
001C00
000000
000000
000000
1FFF80
1FFF80
1FFF80
E00070
E00070
E00070
E00070
E00070
E00070
E00070
E00070
E00070
E00070
E00070
E00070
E00070
E00070
E00070
1FFF80
1FFF80
ENDCHAR
STARTCHAR oacute
ENCODING 243
SWIDTH 540 0
DWIDTH 29 0
BBX 20 31 3 0
BITMAP
001C00
001C00
001C00
006000
006000
038000
038000
038000
000000
000000
000000
1FFF80
1FFF80
1FFF80
E00070
E00070
E00070
E00070
E00070
E00070
E00070
E00070
E00070
E00070
E00070
E00070
E00070
E00070
E00070
1FFF80
1FFF80
ENDCHAR
STARTCHAR ocircumflex
ENCODING 244
SWIDTH 540 0
DWIDTH 29 0
BBX 20 31 3 0
BITMAP
006000
006000
006000
039C00
039C00
1C0380
1C0380
1C0380
000000
000000
000000
1FFF80
1FFF80
1FFF80
E00070
E00070
E00070
E00070
E00070
E00070
E00070
E00070
E00070
E00070
E00070
E00070
E00070
E00070
E00070
1FFF80
1FFF80
ENDCHAR
STARTCHAR otilde
ENCODING 245
SWIDTH 540 0
DWIDTH 29 0
BBX 20 28 3 0
BITMAP
03E380
03E380
1CFC00
1C7C00
1C7C00
000000
000000
000000
1FFF80
1FFF80
1FFF80
E00070
E00070
E00070
E00070
E00070
E00070
E00070
E00070
E00070
E00070
E00070
E00070
E00070
E00070
E00070
1FFF80
1FFF80
ENDCHAR
STARTCHAR odieresis
ENCODING 246
SWIDTH 540 0
DWIDTH 29 0
BBX 20 28 3 0
BITMAP
039C00
039C00
039C00
039C00
039C00
000000
000000
000000
1FFF80
1FFF80
1FFF80
E00070
E00070
E00070
E00070
E00070
E00070
E00070
E00070
E00070
E00070
E00070
E00070
E00070
E00070
E00070
1FFF80
1FFF80
ENDCHAR
STARTCHAR divide
ENCODING 247
SWIDTH 540 0
DWIDTH 29 0
BBX 20 26 3 0
BITMAP
006000
006000
006000
03FC00
03FC00
03FC00
00F000
006000
006000
000000
000000
000000
FFFFF0
FFFFF0
FFFFF0
000000
000000
000000
006000
006000
00F000
03FC00
03FC00
03FC00
006000
006000
ENDCHAR
STARTCHAR oslash
ENCODING 248
SWIDTH 540 0
DWIDTH 29 0
BBX 20 26 3 -3
BITMAP
000070
000070
000070
1FFF80
1FFF80
1FFF80
E01C70
E01C70
E01C70
E01C70
E01C70
E01C70
E06070
E06070
E06070
E38070
E38070
E38070
E38070
E38070
E78070
1FFF80
1FFF80
E00000
E00000
E00000
ENDCHAR
STARTCHAR ugrave
ENCODING 249
SWIDTH 540 0
DWIDTH 29 0
BBX 20 31 3 0
BITMAP
1C0000
1C0000
1C0000
038000
038000
006000
006000
006000
000000
000000
000000
E00070
E00070
E00070
E00070
E00070
E00070
E00070
E00070
E00070
E00070
E00070
E00070
E00070
E00070
E00070
E003F0
E003F0
E003F0
1FFC70
1FFC70
ENDCHAR
STARTCHAR uacute
ENCODING 250
SWIDTH 540 0
DWIDTH 29 0
BBX 20 31 3 0
BITMAP
001C00
001C00
001C00
006000
006000
038000
038000
038000
000000
000000
000000
E00070
E00070
E00070
E00070
E00070
E00070
E00070
E00070
E00070
E00070
E00070
E00070
E00070
E00070
E00070
E003F0
E003F0
E003F0
1FFC70
1FFC70
ENDCHAR
STARTCHAR ucircumflex
ENCODING 251
SWIDTH 540 0
DWIDTH 29 0
BBX 20 31 3 0
BITMAP
006000
006000
006000
039C00
039C00
1C0380
1C0380
1C0380
000000
000000
000000
E00070
E00070
E00070
E00070
E00070
E00070
E00070
E00070
E00070
E00070
E00070
E00070
E00070
E00070
E00070
E003F0
E003F0
E003F0
1FFC70
1FFC70
ENDCHAR
STARTCHAR udieresis
ENCODING 252
SWIDTH 540 0
DWIDTH 29 0
BBX 20 28 3 0
BITMAP
039C00
039C00
039C00
039C00
039C00
000000
000000
000000
E00070
E00070
E00070
E00070
E00070
E00070
E00070
E00070
E00070
E00070
E00070
E00070
E00070
E00070
E00070
E003F0
E003F0
E003F0
1FFC70
1FFC70
ENDCHAR
STARTCHAR yacute
ENCODING 253
SWIDTH 540 0
DWIDTH 29 0
BBX 20 40 3 -9
BITMAP
000380
000380
000380
001C00
001C00
006000
006000
006000
000000
000000
000000
1C0070
1C0070
1C0070
1C0070
1C0070
1C0070
038380
038380
038380
038380
038380
038380
038380
038380
038380
007C00
007C00
007C00
007C00
007C00
007000
006000
006000
E06000
E06000
E06000
1F8000
1F8000
1F8000
ENDCHAR
STARTCHAR thorn
ENCODING 254
SWIDTH 540 0
DWIDTH 29 0
BBX 20 32 3 -6
BITMAP
C00000
E00000
E00000
E00000
E00000
E00000
E3FC00
E3FC00
E3FC00
FC0380
FC0380
FC0380
E00070
E00070
E00070
E00070
E00070
E00070
E00070
E00070
E00070
FC0380
FC0380
FC0380
E3FC00
E3FC00
E00000
E00000
E00000
E00000
E00000
E00000
ENDCHAR
STARTCHAR ydieresis
ENCODING 255
SWIDTH 540 0
DWIDTH 29 0
BBX 20 37 3 -9
BITMAP
038380
038380
038380
038380
038380
000000
000000
000000
1C0070
1C0070
1C0070
1C0070
1C0070
1C0070
038380
038380
038380
038380
038380
038380
038380
038380
038380
007C00
007C00
007C00
007C00
007C00
007000
006000
006000
E06000
E06000
E06000
1F8000
1F8000
1F8000
ENDCHAR
STARTCHAR Amacron
ENCODING 256
SWIDTH 540 0
DWIDTH 29 0
BBX 20 34 3 0
BITMAP
1FFF80
1FFF80
1FFF80
000000
000000
000000
006000
006000
039C00
039C00
039C00
039C00
039C00
039C00
039C00
039C00
039C00
1C0380
1C0380
1C0380
1FFF80
1FFF80
1FFF80
1C0380
1C0380
1C0380
E00070
E00070
E00070
E00070
E00070
E00070
E00070
E00070
ENDCHAR
STARTCHAR amacron
ENCODING 257
SWIDTH 540 0
DWIDTH 29 0
BBX 20 26 3 0
BITMAP
1FFF80
1FFF80
1FFF80
000000
000000
000000
1FFF80
1FFF80
1FFF80
000070
000070
000070
000070
000070
000070
1FFFF0
1FFFF0
1FFFF0
E00070
E00070
E00070
E003F0
E003F0
E003F0
1FFC70
1FFC70
ENDCHAR
STARTCHAR Abreve
ENCODING 258
SWIDTH 540 0
DWIDTH 29 0
BBX 20 37 3 0
BITMAP
1C0380
1C0380
1C0380
03FC00
03FC00
03FC00
000000
000000
000000
006000
006000
039C00
039C00
039C00
039C00
039C00
039C00
039C00
039C00
039C00
1C0380
1C0380
1C0380
1FFF80
1FFF80
1FFF80
1C0380
1C0380
1C0380
E00070
E00070
E00070
E00070
E00070
E00070
E00070
E00070
ENDCHAR
STARTCHAR abreve
ENCODING 259
SWIDTH 540 0
DWIDTH 29 0
BBX 20 28 3 0
BITMAP
1C0380
1C0380
03FC00
03FC00
03FC00
000000
000000
000000
1FFF80
1FFF80
1FFF80
000070
000070
000070
000070
000070
000070
1FFFF0
1FFFF0
1FFFF0
E00070
E00070
E00070
E003F0
E003F0
E003F0
1FFC70
1FFC70
ENDCHAR
STARTCHAR Aogonek
ENCODING 260
SWIDTH 540 0
DWIDTH 29 0
BBX 23 37 3 -9
BITMAP
006000
006000
039C00
039C00
039C00
039C00
039C00
039C00
039C00
039C00
039C00
1C0380
1C0380
1C0380
1FFF80
1FFF80
1FFF80
1C0380
1C0380
1C0380
E00070
E00070
E00070
E00070
E00070
E00070
E00070
E00070
000070
000070
000070
000180
000380
000380
00007E
00007E
00007E
ENDCHAR
STARTCHAR aogonek
ENCODING 261
SWIDTH 540 0
DWIDTH 29 0
BBX 20 29 3 -9
BITMAP
1FFF80
1FFF80
1FFF80
000070
000070
000070
000070
000070
000070
1FFFF0
1FFFF0
1FFFF0
E00070
E00070
E00070
E003F0
E003F0
E003F0
1FFC70
1FFC70
00F000
006000
006000
038000
038000
038000
007F80
007F80
007F80
ENDCHAR
STARTCHAR Cacute
ENCODING 262
SWIDTH 540 0
DWIDTH 29 0
BBX 20 40 3 0
BITMAP
001C00
001C00
001C00
006000
006000
006000
038000
038000
030000
000000
000000
000000
03FF80
03FF80
1C0070
1C0070
1C0070
E00000
E00000
E00000
E00000
E00000
E00000
E00000
E00000
E00000
E00000
E00000
E00000
E00000
E00000
E00000
E00000
E00000
E00000
1C0070
1C0070
1C0070
03FF80
03FF80
ENDCHAR
STARTCHAR cacute
ENCODING 263
SWIDTH 540 0
DWIDTH 29 0
BBX 20 31 3 0
BITMAP
001C00
001C00
001C00
006000
006000
038000
038000
038000
000000
000000
000000
1FFF80
1FFF80
1FFF80
E00070
E00070
E00070
E00000
E00000
E00000
E00000
E00000
E00000
E00000
E00000
E00000
E00070
E00070
E00070
1FFF80
1FFF80
ENDCHAR
STARTCHAR Ccircumflex
ENCODING 264
SWIDTH 540 0
DWIDTH 29 0
BBX 20 40 3 0
BITMAP
006000
006000
006000
039C00
039C00
030C00
1C0380
1C0380
180180
000000
000000
000000
03FF80
03FF80
1C0070
1C0070
1C0070
E00000
E00000
E00000
E00000
E00000
E00000
E00000
E00000
E00000
E00000
E00000
E00000
E00000
E00000
E00000
E00000
E00000
E00000
1C0070
1C0070
1C0070
03FF80
03FF80
ENDCHAR
STARTCHAR ccircumflex
ENCODING 265
SWIDTH 540 0
DWIDTH 29 0
BBX 20 31 3 0
BITMAP
006000
006000
006000
039C00
039C00
1C0380
1C0380
1C0380
000000
000000
000000
1FFF80
1FFF80
1FFF80
E00070
E00070
E00070
E00000
E00000
E00000
E00000
E00000
E00000
E00000
E00000
E00000
E00070
E00070
E00070
1FFF80
1FFF80
ENDCHAR
STARTCHAR Cdotaccent
ENCODING 266
SWIDTH 540 0
DWIDTH 29 0
BBX 20 37 3 0
BITMAP
006000
006000
006000
006000
006000
006000
000000
000000
000000
03FF80
03FF80
1C0070
1C0070
1C0070
E00000
E00000
E00000
E00000
E00000
E00000
E00000
E00000
E00000
E00000
E00000
E00000
E00000
E00000
E00000
E00000
E00000
E00000
1C0070
1C0070
1C0070
03FF80
03FF80
ENDCHAR
STARTCHAR cdotaccent
ENCODING 267
SWIDTH 540 0
DWIDTH 29 0
BBX 20 28 3 0
BITMAP
006000
006000
006000
006000
006000
000000
000000
000000
1FFF80
1FFF80
1FFF80
E00070
E00070
E00070
E00000
E00000
E00000
E00000
E00000
E00000
E00000
E00000
E00000
E00070
E00070
E00070
1FFF80
1FFF80
ENDCHAR
STARTCHAR Ccaron
ENCODING 268
SWIDTH 540 0
DWIDTH 29 0
BBX 20 40 3 0
BITMAP
1C0380
1C0380
1C0380
039C00
039C00
039C00
006000
006000
006000
000000
000000
000000
03FF80
03FF80
1C0070
1C0070
1C0070
E00000
E00000
E00000
E00000
E00000
E00000
E00000
E00000
E00000
E00000
E00000
E00000
E00000
E00000
E00000
E00000
E00000
E00000
1C0070
1C0070
1C0070
03FF80
03FF80
ENDCHAR
STARTCHAR ccaron
ENCODING 269
SWIDTH 540 0
DWIDTH 29 0
BBX 20 31 3 0
BITMAP
1C0380
1C0380
1C0380
039C00
039C00
006000
006000
006000
000000
000000
000000
1FFF80
1FFF80
1FFF80
E00070
E00070
E00070
E00000
E00000
E00000
E00000
E00000
E00000
E00000
E00000
E00000
E00070
E00070
E00070
1FFF80
1FFF80
ENDCHAR
STARTCHAR Dcaron
ENCODING 270
SWIDTH 540 0
DWIDTH 29 0
BBX 20 40 3 0
BITMAP
1C0380
1C0380
1C0380
039C00
039C00
039C00
006000
006000
006000
000000
000000
000000
FFFC00
FFFC00
E00380
E00380
E00380
E00070
E00070
E00070
E00070
E00070
E00070
E00070
E00070
E00070
E00070
E00070
E00070
E00070
E00070
E00070
E00070
E00070
E00070
E00380
E00380
E00380
FFFC00
FFFC00
ENDCHAR
STARTCHAR dcaron
ENCODING 271
SWIDTH 540 0
DWIDTH 29 0
BBX 20 37 3 0
BITMAP
1C0380
1C0380
1C0380
039C00
039C00
039C00
006000
006000
006000
000070
000070
000070
000070
000070
000070
000070
000070
1FFC70
1FFC70
1FFC70
E003F0
E003F0
E003F0
E00070
E00070
E00070
E00070
E00070
E00070
E00070
E00070
E00070
E003F0
E003F0
E003F0
1FFC70
1FFC70
ENDCHAR
STARTCHAR Dcroat
ENCODING 272
SWIDTH 540 0
DWIDTH 29 0
BBX 23 28 0 0
BITMAP
1FFF80
1FFF80
1C0070
1C0070
1C0070
1C000E
1C000E
1C000E
1C000E
1C000E
1C000E
FFE00E
FFF00E
FFF00E
1C000E
1C000E
1C000E
1C000E
1C000E
1C000E
1C000E
1C000E
1C000E
1C0070
1C0070
1C0070
1FFF80
1FFF80
ENDCHAR
STARTCHAR dcroat
ENCODING 273
SWIDTH 540 0
DWIDTH 29 0
BBX 23 28 3 0
BITMAP
000070
000070
007FFE
007FFE
007FFE
000070
000070
000070
1FFC70
1FFC70
1FFC70
E003F0
E003F0
E003F0
E00070
E00070
E00070
E00070
E00070
E00070
E00070
E00070
E00070
E003F0
E003F0
E003F0
1FFC70
1FFC70
ENDCHAR
STARTCHAR Emacron
ENCODING 274
SWIDTH 540 0
DWIDTH 29 0
BBX 20 34 3 0
BITMAP
1FFF80
1FFF80
1FFF80
000000
000000
000000
FFFFF0
FFFFF0
E00000
E00000
E00000
E00000
E00000
E00000
E00000
E00000
E00000
FFFC00
FFFC00
FFFC00
E00000
E00000
E00000
E00000
E00000
E00000
E00000
E00000
E00000
E00000
E00000
E00000
FFFFF0
FFFFF0
ENDCHAR
STARTCHAR emacron
ENCODING 275
SWIDTH 540 0
DWIDTH 29 0
BBX 20 26 3 0
BITMAP
1FFF80
1FFF80
1FFF80
000000
000000
000000
1FFF80
1FFF80
1FFF80
E00070
E00070
E00070
E00070
E00070
E00070
FFFFF0
FFFFF0
FFFFF0
E00000
E00000
E00000
E00070
E00070
E00070
1FFF80
1FFF80
ENDCHAR
STARTCHAR Ebreve
ENCODING 276
SWIDTH 540 0
DWIDTH 29 0
BBX 20 37 3 0
BITMAP
1C0380
1C0380
1C0380
03FC00
03FC00
03FC00
000000
000000
000000
FFFFF0
FFFFF0
E00000
E00000
E00000
E00000
E00000
E00000
E00000
E00000
E00000
FFFC00
FFFC00
FFFC00
E00000
E00000
E00000
E00000
E00000
E00000
E00000
E00000
E00000
E00000
E00000
E00000
FFFFF0
FFFFF0
ENDCHAR
STARTCHAR ebreve
ENCODING 277
SWIDTH 540 0
DWIDTH 29 0
BBX 20 28 3 0
BITMAP
1C0380
1C0380
03FC00
03FC00
03FC00
000000
000000
000000
1FFF80
1FFF80
1FFF80
E00070
E00070
E00070
E00070
E00070
E00070
FFFFF0
FFFFF0
FFFFF0
E00000
E00000
E00000
E00070
E00070
E00070
1FFF80
1FFF80
ENDCHAR
STARTCHAR Edotaccent
ENCODING 278
SWIDTH 540 0
DWIDTH 29 0
BBX 20 37 3 0
BITMAP
006000
006000
006000
006000
006000
006000
000000
000000
000000
FFFFF0
FFFFF0
E00000
E00000
E00000
E00000
E00000
E00000
E00000
E00000
E00000
FFFC00
FFFC00
FFFC00
E00000
E00000
E00000
E00000
E00000
E00000
E00000
E00000
E00000
E00000
E00000
E00000
FFFFF0
FFFFF0
ENDCHAR
STARTCHAR edotaccent
ENCODING 279
SWIDTH 540 0
DWIDTH 29 0
BBX 20 28 3 0
BITMAP
006000
006000
006000
006000
006000
000000
000000
000000
1FFF80
1FFF80
1FFF80
E00070
E00070
E00070
E00070
E00070
E00070
FFFFF0
FFFFF0
FFFFF0
E00000
E00000
E00000
E00070
E00070
E00070
1FFF80
1FFF80
ENDCHAR
STARTCHAR Eogonek
ENCODING 280
SWIDTH 540 0
DWIDTH 29 0
BBX 20 37 3 -9
BITMAP
FFFFF0
FFFFF0
E00000
E00000
E00000
E00000
E00000
E00000
E00000
E00000
E00000
FFFC00
FFFC00
FFFC00
E00000
E00000
E00000
E00000
E00000
E00000
E00000
E00000
E00000
E00000
E00000
E00000
FFFFF0
FFFFF0
00F000
006000
006000
038000
038000
038000
007F80
007F80
007F80
ENDCHAR
STARTCHAR eogonek
ENCODING 281
SWIDTH 540 0
DWIDTH 29 0
BBX 20 29 3 -9
BITMAP
1FFF80
1FFF80
1FFF80
E00070
E00070
E00070
E00070
E00070
E00070
FFFFF0
FFFFF0
FFFFF0
E00000
E00000
E00000
E00070
E00070
E00070
1FFF80
1FFF80
00F000
006000
006000
038000
038000
038000
007F80
007F80
007F80
ENDCHAR
STARTCHAR Ecaron
ENCODING 282
SWIDTH 540 0
DWIDTH 29 0
BBX 20 40 3 0
BITMAP
1C0380
1C0380
1C0380
039C00
039C00
039C00
006000
006000
006000
000000
000000
000000
FFFFF0
FFFFF0
E00000
E00000
E00000
E00000
E00000
E00000
E00000
E00000
E00000
FFFC00
FFFC00
FFFC00
E00000
E00000
E00000
E00000
E00000
E00000
E00000
E00000
E00000
E00000
E00000
E00000
FFFFF0
FFFFF0
ENDCHAR
STARTCHAR ecaron
ENCODING 283
SWIDTH 540 0
DWIDTH 29 0
BBX 20 31 3 0
BITMAP
1C0380
1C0380
1C0380
039C00
039C00
006000
006000
006000
000000
000000
000000
1FFF80
1FFF80
1FFF80
E00070
E00070
E00070
E00070
E00070
E00070
FFFFF0
FFFFF0
FFFFF0
E00000
E00000
E00000
E00070
E00070
E00070
1FFF80
1FFF80
ENDCHAR
STARTCHAR Gcircumflex
ENCODING 284
SWIDTH 540 0
DWIDTH 29 0
BBX 20 40 3 0
BITMAP
006000
006000
006000
039C00
039C00
030C00
1C0380
1C0380
180180
000000
000000
000000
03FC00
03FC00
1C0380
1C0380
1C0380
E00070
E00070
E00070
E00000
E00000
E00000
E00000
E00000
E00000
E01FF0
E01FF0
E00FF0
E00070
E00070
E00070
E00070
E00070
E00070
1C0380
1C0380
1C0380
03FC00
03FC00
ENDCHAR
STARTCHAR gcircumflex
ENCODING 285
SWIDTH 540 0
DWIDTH 29 0
BBX 20 40 3 -9
BITMAP
006000
006000
006000
039C00
039C00
1C0380
1C0380
1C0380
000000
000000
000000
1FFC70
1FFC70
1FFC70
E00380
E00380
E00380
E00380
E00380
E00380
E00380
E00380
E00380
1FFC00
1FFC00
1FFC00
E00000
E00000
E00000
1FFF80
1FFF80
E00070
E00070
E00070
E00070
E00070
E00070
1FFF80
1FFF80
1FFF80
ENDCHAR
STARTCHAR Gbreve
ENCODING 286
SWIDTH 540 0
DWIDTH 29 0
BBX 20 37 3 0
BITMAP
1C0380
1C0380
1C0380
03FC00
03FC00
03FC00
000000
000000
000000
03FC00
03FC00
1C0380
1C0380
1C0380
E00070
E00070
E00070
E00000
E00000
E00000
E00000
E00000
E00000
E01FF0
E01FF0
E00FF0
E00070
E00070
E00070
E00070
E00070
E00070
1C0380
1C0380
1C0380
03FC00
03FC00
ENDCHAR
STARTCHAR gbreve
ENCODING 287
SWIDTH 540 0
DWIDTH 29 0
BBX 20 37 3 -9
BITMAP
1C0380
1C0380
03FC00
03FC00
03FC00
000000
000000
000000
1FFC70
1FFC70
1FFC70
E00380
E00380
E00380
E00380
E00380
E00380
E00380
E00380
E00380
1FFC00
1FFC00
1FFC00
E00000
E00000
E00000
1FFF80
1FFF80
E00070
E00070
E00070
E00070
E00070
E00070
1FFF80
1FFF80
1FFF80
ENDCHAR
STARTCHAR Gdotaccent
ENCODING 288
SWIDTH 540 0
DWIDTH 29 0
BBX 20 37 3 0
BITMAP
006000
006000
006000
006000
006000
006000
000000
000000
000000
03FC00
03FC00
1C0380
1C0380
1C0380
E00070
E00070
E00070
E00000
E00000
E00000
E00000
E00000
E00000
E01FF0
E01FF0
E00FF0
E00070
E00070
E00070
E00070
E00070
E00070
1C0380
1C0380
1C0380
03FC00
03FC00
ENDCHAR
STARTCHAR gdotaccent
ENCODING 289
SWIDTH 540 0
DWIDTH 29 0
BBX 20 37 3 -9
BITMAP
006000
006000
006000
006000
006000
000000
000000
000000
1FFC70
1FFC70
1FFC70
E00380
E00380
E00380
E00380
E00380
E00380
E00380
E00380
E00380
1FFC00
1FFC00
1FFC00
E00000
E00000
E00000
1FFF80
1FFF80
E00070
E00070
E00070
E00070
E00070
E00070
1FFF80
1FFF80
1FFF80
ENDCHAR
STARTCHAR Gcommaaccent
ENCODING 290
SWIDTH 540 0
DWIDTH 29 0
BBX 20 37 3 -9
BITMAP
03FC00
03FC00
1C0380
1C0380
1C0380
E00070
E00070
E00070
E00000
E00000
E00000
E00000
E00000
E00000
E01FF0
E01FF0
E00FF0
E00070
E00070
E00070
E00070
E00070
E00070
1C0380
1C0380
1C0380
03FC00
03FC00
00F000
006000
006000
181C00
1C1C00
1C1C00
03E000
03E000
03E000
ENDCHAR
STARTCHAR gcommaaccent
ENCODING 291
SWIDTH 540 0
DWIDTH 29 0
BBX 20 40 3 -9
BITMAP
006000
006000
006000
038000
038000
03E000
03E000
03E000
000000
000000
000000
1FFC70
1FFC70
1FFC70
E00380
E00380
E00380
E00380
E00380
E00380
E00380
E00380
E00380
1FFC00
1FFC00
1FFC00
E00000
E00000
E00000
1FFF80
1FFF80
E00070
E00070
E00070
E00070
E00070
E00070
1FFF80
1FFF80
1FFF80
ENDCHAR
STARTCHAR Hcircumflex
ENCODING 292
SWIDTH 540 0
DWIDTH 29 0
BBX 20 40 3 0
BITMAP
006000
006000
006000
039C00
039C00
030C00
1C0380
1C0380
180180
000000
000000
000000
E00070
E00070
E00070
E00070
E00070
E00070
E00070
E00070
E00070
E00070
E00070
FFFFF0
FFFFF0
FFFFF0
E00070
E00070
E00070
E00070
E00070
E00070
E00070
E00070
E00070
E00070
E00070
E00070
E00070
E00070
ENDCHAR
STARTCHAR hcircumflex
ENCODING 293
SWIDTH 540 0
DWIDTH 29 0
BBX 20 40 3 0
BITMAP
006000
006000
006000
039C00
039C00
030C00
1C0380
1C0380
180180
000000
000000
000000
E00000
E00000
E00000
E00000
E00000
E00000
E00000
E00000
E3FF80
E3FF80
E3FF80
FC0070
FC0070
FC0070
E00070
E00070
E00070
E00070
E00070
E00070
E00070
E00070
E00070
E00070
E00070
E00070
E00070
E00070
ENDCHAR
STARTCHAR Hbar
ENCODING 294
SWIDTH 540 0
DWIDTH 29 0
BBX 26 28 0 0
BITMAP
1C000E00
1C000E00
1C000E00
1C000E00
1C000E00
FFFFFFC0
FFFFFFC0
FFFFFFC0
1C000E00
1C000E00
1C000E00
1FFFFE00
1FFFFE00
1FFFFE00
1C000E00
1C000E00
1C000E00
1C000E00
1C000E00
1C000E00
1C000E00
1C000E00
1C000E00
1C000E00
1C000E00
1C000E00
1C000E00
1C000E00
ENDCHAR
STARTCHAR hbar
ENCODING 295
SWIDTH 540 0
DWIDTH 29 0
BBX 23 28 0 0
BITMAP
1C0000
1C0000
FFFC00
FFFC00
FFFC00
1C0000
1C0000
1C0000
1C7FF0
1C7FF0
1C7FF0
1F800E
1F800E
1F800E
1C000E
1C000E
1C000E
1C000E
1C000E
1C000E
1C000E
1C000E
1C000E
1C000E
1C000E
1C000E
1C000E
1C000E
ENDCHAR
STARTCHAR Itilde
ENCODING 296
SWIDTH 540 0
DWIDTH 29 0
BBX 14 37 6 0
BITMAP
1F1C
1F1C
1F9C
E3E0
E3E0
C3E0
0000
0000
0000
FFFC
FFFC
0780
0300
0300
0300
0300
0300
0300
0300
0300
0300
0300
0300
0300
0300
0300
0300
0300
0300
0300
0300
0300
0300
0300
0780
FFFC
FFFC
ENDCHAR
STARTCHAR itilde
ENCODING 297
SWIDTH 540 0
DWIDTH 29 0
BBX 14 28 6 0
BITMAP
1F1C
1F1C
E7E0
E3E0
E3E0
0000
0000
0000
FF00
FF00
FF00
0700
0300
0300
0300
0300
0300
0300
0300
0300
0300
0300
0300
0300
0300
0780
FFFC
FFFC
ENDCHAR
STARTCHAR Imacron
ENCODING 298
SWIDTH 540 0
DWIDTH 29 0
BBX 14 34 6 0
BITMAP
FFFC
FFFC
FFFC
0000
0000
0000
FFFC
FFFC
0780
0300
0300
0300
0300
0300
0300
0300
0300
0300
0300
0300
0300
0300
0300
0300
0300
0300
0300
0300
0300
0300
0300
0780
FFFC
FFFC
ENDCHAR
STARTCHAR imacron
ENCODING 299
SWIDTH 540 0
DWIDTH 29 0
BBX 14 26 6 0
BITMAP
FFFC
FFFC
FFFC
0000
0000
0000
FF00
FF00
FF00
0700
0300
0300
0300
0300
0300
0300
0300
0300
0300
0300
0300
0300
0300
0780
FFFC
FFFC
ENDCHAR
STARTCHAR Ibreve
ENCODING 300
SWIDTH 540 0
DWIDTH 29 0
BBX 14 37 6 0
BITMAP
E01C
E01C
E01C
1FE0
1FE0
1FE0
0000
0000
0000
FFFC
FFFC
0780
0300
0300
0300
0300
0300
0300
0300
0300
0300
0300
0300
0300
0300
0300
0300
0300
0300
0300
0300
0300
0300
0300
0780
FFFC
FFFC
ENDCHAR
STARTCHAR ibreve
ENCODING 301
SWIDTH 540 0
DWIDTH 29 0
BBX 14 28 6 0
BITMAP
E01C
E01C
1FE0
1FE0
1FE0
0000
0000
0000
FF00
FF00
FF00
0700
0300
0300
0300
0300
0300
0300
0300
0300
0300
0300
0300
0300
0300
0780
FFFC
FFFC
ENDCHAR
STARTCHAR Iogonek
ENCODING 302
SWIDTH 540 0
DWIDTH 29 0
BBX 14 37 6 -9
BITMAP
FFFC
FFFC
0780
0300
0300
0300
0300
0300
0300
0300
0300
0300
0300
0300
0300
0300
0300
0300
0300
0300
0300
0300
0300
0300
0300
0780
FFFC
FFFC
0780
0300
0300
1C00
1C00
1C00
03E0
03E0
03E0
ENDCHAR
STARTCHAR iogonek
ENCODING 303
SWIDTH 540 0
DWIDTH 29 0
BBX 14 35 6 -9
BITMAP
1F00
1F00
1F00
0000
0000
0000
FF00
FF00
FF00
0700
0300
0300
0300
0300
0300
0300
0300
0300
0300
0300
0300
0300
0300
0780
FFFC
FFFC
0780
0300
0300
1C00
1C00
1C00
03E0
03E0
03E0
ENDCHAR
STARTCHAR Idotaccent
ENCODING 304
SWIDTH 540 0
DWIDTH 29 0
BBX 14 37 6 0
BITMAP
0300
0300
0300
0300
0300
0300
0000
0000
0000
FFFC
FFFC
0780
0300
0300
0300
0300
0300
0300
0300
0300
0300
0300
0300
0300
0300
0300
0300
0300
0300
0300
0300
0300
0300
0300
0780
FFFC
FFFC
ENDCHAR
STARTCHAR dotlessi
ENCODING 305
SWIDTH 540 0
DWIDTH 29 0
BBX 14 20 6 0
BITMAP
FF00
FF00
FF00
0700
0300
0300
0300
0300
0300
0300
0300
0300
0300
0300
0300
0300
0300
0780
FFFC
FFFC
ENDCHAR
STARTCHAR IJ
ENCODING 306
SWIDTH 540 0
DWIDTH 29 0
BBX 20 28 3 0
BITMAP
FF9FF0
FF9FF0
3C0070
1C0070
1C0070
1C0070
1C0070
1C0070
1C0070
1C0070
1C0070
1C0070
1C0070
1C0070
1C0070
1C0070
1C0070
1C0070
1C0070
1C0070
1C0070
1C0070
1C0070
1C6070
1C6070
3C6070
FF9F80
FF9F80
ENDCHAR
STARTCHAR ij
ENCODING 307
SWIDTH 540 0
DWIDTH 29 0
BBX 20 35 3 -9
BITMAP
1F01F0
1F83F0
1F83F0
000000
000000
000000
FF0FF0
FF9FF0
FF9FF0
038070
038070
038070
038070
038070
038070
038070
038070
038070
038070
038070
038070
038070
038070
078070
FFFC70
FFFC70
000070
000070
000070
030070
038070
038070
007F80
007F80
007F80
ENDCHAR
STARTCHAR Jcircumflex
ENCODING 308
SWIDTH 540 0
DWIDTH 29 0
BBX 20 40 3 0
BITMAP
001C00
001C00
001C00
006380
006380
006380
038070
038070
030070
000000
000000
000000
03FFF0
03FFF0
001E00
001C00
001C00
001C00
001C00
001C00
001C00
001C00
001C00
001C00
001C00
001C00
001C00
001C00
001C00
001C00
001C00
001C00
E01C00
E01C00
E01C00
E01C00
E01C00
E01C00
1FE000
1FE000
ENDCHAR
STARTCHAR jcircumflex
ENCODING 309
SWIDTH 540 0
DWIDTH 29 0
BBX 20 43 3 -9
BITMAP
001C00
001C00
001C00
006380
006380
006180
038070
038070
000000
000000
000000
000000
000000
000000
007C00
007C00
007C00
001C00
001C00
001C00
001C00
001C00
001C00
001C00
001C00
001C00
001C00
001C00
001C00
001C00
001C00
001C00
001C00
001C00
C01C00
E01C00
E01C00
E01C00
E01C00
E01C00
1FE000
1FE000
1FE000
ENDCHAR
STARTCHAR Kcommaaccent
ENCODING 310
SWIDTH 540 0
DWIDTH 29 0
BBX 20 37 3 -9
BITMAP
E00070
E00070
E00180
E00380
E00380
E00C00
E01C00
E01C00
E06000
E06000
E06000
E38000
E38000
E38000
FC6000
FC6000
FC6000
E01C00
E01C00
E00C00
E00380
E00380
E00180
E00070
E00070
E00070
E00070
E00070
000C00
001C00
001C00
030380
038380
038380
007C00
007C00
007C00
ENDCHAR
STARTCHAR kcommaaccent
ENCODING 311
SWIDTH 540 0
DWIDTH 29 0
BBX 20 37 3 -9
BITMAP
E00000
E00000
E00000
E00000
E00000
E00000
E00000
E00000
E00380
E00380
E00380
E00C00
E01C00
E01C00
E06000
E06000
E0E000
E3E000
E3E000
E3E000
FC1C00
FC1C00
F80C00
E00380
E00380
E00180
E00070
E00070
000C00
001C00
001C00
030380
038380
038380
007C00
007C00
007C00
ENDCHAR
STARTCHAR kgreenlandic
ENCODING 312
SWIDTH 540 0
DWIDTH 29 0
BBX 17 20 3 0
BITMAP
E00380
E00380
E00380
E00C00
E01C00
E01C00
E06000
E06000
E06000
FF8000
FF8000
FF8000
E06000
E06000
E06000
E01C00
E01C00
E00C00
E00380
E00380
ENDCHAR
STARTCHAR Lacute
ENCODING 313
SWIDTH 540 0
DWIDTH 29 0
BBX 20 40 3 0
BITMAP
001C00
001C00
001C00
006000
006000
006000
038000
038000
030000
000000
000000
000000
E00000
E00000
E00000
E00000
E00000
E00000
E00000
E00000
E00000
E00000
E00000
E00000
E00000
E00000
E00000
E00000
E00000
E00000
E00000
E00000
E00000
E00000
E00000
E00000
E00000
E00000
FFFFF0
FFFFF0
ENDCHAR
STARTCHAR lacute
ENCODING 314
SWIDTH 540 0
DWIDTH 29 0
BBX 14 40 6 0
BITMAP
00E0
00E0
00E0
0300
0300
0300
1C00
1C00
1800
0000
0000
0000
FF00
FF00
0700
0300
0300
0300
0300
0300
0300
0300
0300
0300
0300
0300
0300
0300
0300
0300
0300
0300
0300
0300
0300
0300
0300
0780
FFFC
FFFC
ENDCHAR
STARTCHAR Lcommaaccent
ENCODING 315
SWIDTH 540 0
DWIDTH 29 0
BBX 20 37 3 -9
BITMAP
E00000
E00000
E00000
E00000
E00000
E00000
E00000
E00000
E00000
E00000
E00000
E00000
E00000
E00000
E00000
E00000
E00000
E00000
E00000
E00000
E00000
E00000
E00000
E00000
E00000
E00000
FFFFF0
FFFFF0
00F000
006000
006000
181C00
1C1C00
1C1C00
03E000
03E000
03E000
ENDCHAR
STARTCHAR lcommaaccent
ENCODING 316
SWIDTH 540 0
DWIDTH 29 0
BBX 14 37 6 -9
BITMAP
FF00
FF00
0700
0300
0300
0300
0300
0300
0300
0300
0300
0300
0300
0300
0300
0300
0300
0300
0300
0300
0300
0300
0300
0300
0300
0780
FFFC
FFFC
0780
0300
0300
C0E0
E0E0
E0E0
1F00
1F00
1F00
ENDCHAR
STARTCHAR Lcaron
ENCODING 317
SWIDTH 540 0
DWIDTH 29 0
BBX 20 40 3 0
BITMAP
1C0380
1C0380
1C0380
039C00
039C00
039C00
006000
006000
006000
000000
000000
000000
E00000
E00000
E00000
E00000
E00000
E00000
E00000
E00000
E00000
E00000
E00000
E00000
E00000
E00000
E00000
E00000
E00000
E00000
E00000
E00000
E00000
E00000
E00000
E00000
E00000
E00000
FFFFF0
FFFFF0
ENDCHAR
STARTCHAR lcaron
ENCODING 318
SWIDTH 540 0
DWIDTH 29 0
BBX 14 40 6 0
BITMAP
E01C
E01C
E01C
1CE0
1CE0
1CE0
0300
0300
0300
0000
0000
0000
FF00
FF00
0700
0300
0300
0300
0300
0300
0300
0300
0300
0300
0300
0300
0300
0300
0300
0300
0300
0300
0300
0300
0300
0300
0300
0780
FFFC
FFFC
ENDCHAR
STARTCHAR Ldot
ENCODING 319
SWIDTH 540 0
DWIDTH 29 0
BBX 20 28 3 0
BITMAP
E00000
E00000
E00000
E00000
E00000
E00000
E00000
E00000
E00000
E00000
E00000
E07C00
E07C00
E07C00
E00000
E00000
E00000
E00000
E00000
E00000
E00000
E00000
E00000
E00000
E00000
E00000
FFFFF0
FFFFF0
ENDCHAR
STARTCHAR ldot
ENCODING 320
SWIDTH 540 0
DWIDTH 29 0
BBX 17 28 6 0
BITMAP
FF0000
FF0000
070000
030000
030000
030000
030000
030000
030000
030000
030000
031F80
031F80
031F80
030000
030000
030000
030000
030000
030000
030000
030000
030000
030000
030000
078000
FFFC00
FFFC00
ENDCHAR
STARTCHAR Lslash
ENCODING 321
SWIDTH 540 0
DWIDTH 29 0
BBX 23 28 0 0
BITMAP
038000
038000
038000
038000
038000
038000
038000
038000
038C00
038C00
038C00
03F000
03F000
03F000
1F8000
1F8000
1F8000
E38000
E38000
E38000
038000
038000
038000
038000
038000
038000
03FFFE
03FFFE
ENDCHAR
STARTCHAR lslash
ENCODING 322
SWIDTH 540 0
DWIDTH 29 0
BBX 14 28 6 0
BITMAP
FF00
FF00
0700
0300
0300
0300
0300
0300
031C
031C
031C
03E0
03E0
03E0
1F00
1F00
1F00
E300
E300
E300
0300
0300
0300
0300
0300
0780
FFFC
FFFC
ENDCHAR
STARTCHAR Nacute
ENCODING 323
SWIDTH 540 0
DWIDTH 29 0
BBX 20 40 3 0
BITMAP
001C00
001C00
001C00
006000
006000
006000
038000
038000
030000
000000
000000
000000
E00070
E00070
E00070
E00070
E00070
F80070
FC0070
FC0070
E30070
E38070
E38070
E06070
E06070
E06070
E01C70
E01C70
E00C70
E003F0
E003F0
E003F0
E00070
E00070
E00070
E00070
E00070
E00070
E00070
E00070
ENDCHAR
STARTCHAR nacute
ENCODING 324
SWIDTH 540 0
DWIDTH 29 0
BBX 20 31 3 0
BITMAP
001C00
001C00
001C00
006000
006000
038000
038000
038000
000000
000000
000000
E3FF80
E3FF80
E3FF80
FC0070
FC0070
FC0070
E00070
E00070
E00070
E00070
E00070
E00070
E00070
E00070
E00070
E00070
E00070
E00070
E00070
E00070
ENDCHAR
STARTCHAR Ncommaaccent
ENCODING 325
SWIDTH 540 0
DWIDTH 29 0
BBX 20 37 3 -9
BITMAP
E00070
E00070
E00070
E00070
E00070
F80070
FC0070
FC0070
E30070
E38070
E38070
E06070
E06070
E06070
E01C70
E01C70
E00C70
E003F0
E003F0
E003F0
E00070
E00070
E00070
E00070
E00070
E00070
E00070
E00070
006000
006000
006000
181C00
1C1C00
1C1C00
03E000
03E000
03E000
ENDCHAR
STARTCHAR ncommaaccent
ENCODING 326
SWIDTH 540 0
DWIDTH 29 0
BBX 20 29 3 -9
BITMAP
E3FF80
E3FF80
E3FF80
FC0070
FC0070
FC0070
E00070
E00070
E00070
E00070
E00070
E00070
E00070
E00070
E00070
E00070
E00070
E00070
E00070
E00070
006000
006000
006000
181C00
1C1C00
1C1C00
03E000
03E000
03E000
ENDCHAR
STARTCHAR Ncaron
ENCODING 327
SWIDTH 540 0
DWIDTH 29 0
BBX 20 40 3 0
BITMAP
1C0380
1C0380
1C0380
039C00
039C00
039C00
006000
006000
006000
000000
000000
000000
E00070
E00070
E00070
E00070
E00070
F80070
FC0070
FC0070
E30070
E38070
E38070
E06070
E06070
E06070
E01C70
E01C70
E00C70
E003F0
E003F0
E003F0
E00070
E00070
E00070
E00070
E00070
E00070
E00070
E00070
ENDCHAR
STARTCHAR ncaron
ENCODING 328
SWIDTH 540 0
DWIDTH 29 0
BBX 20 31 3 0
BITMAP
1C0380
1C0380
1C0380
039C00
039C00
006000
006000
006000
000000
000000
000000
E3FF80
E3FF80
E3FF80
FC0070
FC0070
FC0070
E00070
E00070
E00070
E00070
E00070
E00070
E00070
E00070
E00070
E00070
E00070
E00070
E00070
E00070
ENDCHAR
STARTCHAR napostrophe
ENCODING 329
SWIDTH 540 0
DWIDTH 29 0
BBX 20 31 3 0
BITMAP
FC0000
FC0000
FC0000
1C0000
1C0000
E00000
E00000
E00000
000000
000000
000000
1C7F80
1C7F80
1C7F80
1F8070
1F8070
1F8070
1C0070
1C0070
1C0070
1C0070
1C0070
1C0070
1C0070
1C0070
1C0070
1C0070
1C0070
1C0070
1C0070
1C0070
ENDCHAR
STARTCHAR Eng
ENCODING 330
SWIDTH 540 0
DWIDTH 29 0
BBX 20 37 3 -9
BITMAP
E00070
E00070
E00070
E00070
E00070
F80070
FC0070
FC0070
E30070
E38070
E38070
E06070
E06070
E06070
E01C70
E01C70
E00C70
E003F0
E003F0
E003F0
E00070
E00070
E00070
E00070
E00070
E00070
E00070
E00070
000070
000070
000070
030070
038070
038070
007F80
007F80
007F80
ENDCHAR
STARTCHAR eng
ENCODING 331
SWIDTH 540 0
DWIDTH 29 0
BBX 20 29 3 -9
BITMAP
E3FF80
E3FF80
E3FF80
FC0070
FC0070
FC0070
E00070
E00070
E00070
E00070
E00070
E00070
E00070
E00070
E00070
E00070
E00070
E00070
E00070
E00070
000070
000070
000070
030070
038070
038070
007F80
007F80
007F80
ENDCHAR
STARTCHAR Omacron
ENCODING 332
SWIDTH 540 0
DWIDTH 29 0
BBX 20 34 3 0
BITMAP
1FFF80
1FFF80
1FFF80
000000
000000
000000
1FFF80
1FFF80
E00070
E00070
E00070
E00070
E00070
E00070
E00070
E00070
E00070
E00070
E00070
E00070
E00070
E00070
E00070
E00070
E00070
E00070
E00070
E00070
E00070
E00070
E00070
E00070
1FFF80
1FFF80
ENDCHAR
STARTCHAR omacron
ENCODING 333
SWIDTH 540 0
DWIDTH 29 0
BBX 20 26 3 0
BITMAP
1FFF80
1FFF80
1FFF80
000000
000000
000000
1FFF80
1FFF80
1FFF80
E00070
E00070
E00070
E00070
E00070
E00070
E00070
E00070
E00070
E00070
E00070
E00070
E00070
E00070
E00070
1FFF80
1FFF80
ENDCHAR
STARTCHAR Obreve
ENCODING 334
SWIDTH 540 0
DWIDTH 29 0
BBX 20 37 3 0
BITMAP
1C0380
1C0380
1C0380
03FC00
03FC00
03FC00
000000
000000
000000
1FFF80
1FFF80
E00070
E00070
E00070
E00070
E00070
E00070
E00070
E00070
E00070
E00070
E00070
E00070
E00070
E00070
E00070
E00070
E00070
E00070
E00070
E00070
E00070
E00070
E00070
E00070
1FFF80
1FFF80
ENDCHAR
STARTCHAR obreve
ENCODING 335
SWIDTH 540 0
DWIDTH 29 0
BBX 20 28 3 0
BITMAP
1C0380
1C0380
03FC00
03FC00
03FC00
000000
000000
000000
1FFF80
1FFF80
1FFF80
E00070
E00070
E00070
E00070
E00070
E00070
E00070
E00070
E00070
E00070
E00070
E00070
E00070
E00070
E00070
1FFF80
1FFF80
ENDCHAR
STARTCHAR Ohungarumlaut
ENCODING 336
SWIDTH 540 0
DWIDTH 29 0
BBX 20 40 3 0
BITMAP
006070
006070
006070
038380
038380
030380
1C1C00
1C1C00
180C00
000000
000000
000000
1FFF80
1FFF80
E00070
E00070
E00070
E00070
E00070
E00070
E00070
E00070
E00070
E00070
E00070
E00070
E00070
E00070
E00070
E00070
E00070
E00070
E00070
E00070
E00070
E00070
E00070
E00070
1FFF80
1FFF80
ENDCHAR
STARTCHAR ohungarumlaut
ENCODING 337
SWIDTH 540 0
DWIDTH 29 0
BBX 20 31 3 0
BITMAP
006070
006070
006070
038380
038380
1C0C00
1C1C00
1C1C00
000000
000000
000000
1FFF80
1FFF80
1FFF80
E00070
E00070
E00070
E00070
E00070
E00070
E00070
E00070
E00070
E00070
E00070
E00070
E00070
E00070
E00070
1FFF80
1FFF80
ENDCHAR
STARTCHAR OE
ENCODING 338
SWIDTH 540 0
DWIDTH 29 0
BBX 20 28 3 0
BITMAP
1FFFF0
1FFFF0
E0F000
E06000
E06000
E06000
E06000
E06000
E06000
E06000
E06000
E07F80
E07F80
E07F80
E06000
E06000
E06000
E06000
E06000
E06000
E06000
E06000
E06000
E06000
E06000
E0F000
1FFFF0
1FFFF0
ENDCHAR
STARTCHAR oe
ENCODING 339
SWIDTH 540 0
DWIDTH 29 0
BBX 20 20 3 0
BITMAP
1F0F80
1F9F80
1F9F80
E06070
E06070
E06070
E06070
E06070
E07070
E07FF0
E07FF0
E07FF0
E06000
E06000
E06000
E06070
E06070
E06070
1F9F80
1F9F80
ENDCHAR
STARTCHAR Racute
ENCODING 340
SWIDTH 540 0
DWIDTH 29 0
BBX 20 40 3 0
BITMAP
001C00
001C00
001C00
006000
006000
006000
038000
038000
030000
000000
000000
000000
FFFC00
FFFC00
E00380
E00380
E00380
E00070
E00070
E00070
E00070
E00070
E00070
E00380
E00380
E00380
FFFC00
FFFC00
FFFC00
E06000
E06000
E06000
E01C00
E01C00
E00C00
E00380
E00380
E00180
E00070
E00070
ENDCHAR
STARTCHAR racute
ENCODING 341
SWIDTH 540 0
DWIDTH 29 0
BBX 20 31 3 0
BITMAP
001C00
001C00
001C00
006000
006000
038000
038000
038000
000000
000000
000000
E07F80
E07F80
E07F80
1F8070
1F8070
1F8070
1C0070
1C0070
1C0070
1C0000
1C0000
1C0000
1C0000
1C0000
1C0000
1C0000
1C0000
1C0000
1C0000
1C0000
ENDCHAR
STARTCHAR Rcommaaccent
ENCODING 342
SWIDTH 540 0
DWIDTH 29 0
BBX 20 37 3 -9
BITMAP
FFFC00
FFFC00
E00380
E00380
E00380
E00070
E00070
E00070
E00070
E00070
E00070
E00380
E00380
E00380
FFFC00
FFFC00
FFFC00
E06000
E06000
E06000
E01C00
E01C00
E00C00
E00380
E00380
E00180
E00070
E00070
006000
006000
006000
181C00
1C1C00
1C1C00
03E000
03E000
03E000
ENDCHAR
STARTCHAR rcommaaccent
ENCODING 343
SWIDTH 540 0
DWIDTH 29 0
BBX 20 29 3 -9
BITMAP
E07F80
E07F80
E07F80
1F8070
1F8070
1F8070
1C0070
1C0070
1C0070
1C0000
1C0000
1C0000
1C0000
1C0000
1C0000
1C0000
1C0000
1C0000
1C0000
1C0000
006000
006000
006000
181C00
1C1C00
1C1C00
03E000
03E000
03E000
ENDCHAR
STARTCHAR Rcaron
ENCODING 344
SWIDTH 540 0
DWIDTH 29 0
BBX 20 40 3 0
BITMAP
E01C00
E01C00
E01C00
1C6000
1C6000
1C6000
038000
038000
030000
000000
000000
000000
FFFC00
FFFC00
E00380
E00380
E00380
E00070
E00070
E00070
E00070
E00070
E00070
E00380
E00380
E00380
FFFC00
FFFC00
FFFC00
E06000
E06000
E06000
E01C00
E01C00
E00C00
E00380
E00380
E00180
E00070
E00070
ENDCHAR
STARTCHAR rcaron
ENCODING 345
SWIDTH 540 0
DWIDTH 29 0
BBX 20 31 3 0
BITMAP
E01C00
E01C00
E01C00
1C6000
1C6000
038000
038000
038000
000000
000000
000000
E07F80
E07F80
E07F80
1F8070
1F8070
1F8070
1C0070
1C0070
1C0070
1C0000
1C0000
1C0000
1C0000
1C0000
1C0000
1C0000
1C0000
1C0000
1C0000
1C0000
ENDCHAR
STARTCHAR Sacute
ENCODING 346
SWIDTH 540 0
DWIDTH 29 0
BBX 20 40 3 0
BITMAP
001C00
001C00
001C00
006000
006000
006000
038000
038000
030000
000000
000000
000000
1FFF80
1FFF80
E00070
E00070
E00070
E00000
E00000
E00000
E00000
E00000
E00000
1FFF80
1FFF80
1FFF80
000070
000070
000070
000070
000070
000070
000070
000070
000070
E00070
E00070
E00070
1FFF80
1FFF80
ENDCHAR
STARTCHAR sacute
ENCODING 347
SWIDTH 540 0
DWIDTH 29 0
BBX 20 31 3 0
BITMAP
001C00
001C00
001C00
006000
006000
038000
038000
038000
000000
000000
000000
1FFF80
1FFF80
1FFF80
E00070
E00070
E00070
E00000
E00000
E00000
1FFF80
1FFF80
1FFF80
000070
000070
000070
E00070
E00070
E00070
1FFF80
1FFF80
ENDCHAR
STARTCHAR Scircumflex
ENCODING 348
SWIDTH 540 0
DWIDTH 29 0
BBX 20 40 3 0
BITMAP
006000
006000
006000
039C00
039C00
030C00
1C0380
1C0380
180180
000000
000000
000000
1FFF80
1FFF80
E00070
E00070
E00070
E00000
E00000
E00000
E00000
E00000
E00000
1FFF80
1FFF80
1FFF80
000070
000070
000070
000070
000070
000070
000070
000070
000070
E00070
E00070
E00070
1FFF80
1FFF80
ENDCHAR
STARTCHAR scircumflex
ENCODING 349
SWIDTH 540 0
DWIDTH 29 0
BBX 20 31 3 0
BITMAP
006000
006000
006000
039C00
039C00
1C0380
1C0380
1C0380
000000
000000
000000
1FFF80
1FFF80
1FFF80
E00070
E00070
E00070
E00000
E00000
E00000
1FFF80
1FFF80
1FFF80
000070
000070
000070
E00070
E00070
E00070
1FFF80
1FFF80
ENDCHAR
STARTCHAR Scedilla
ENCODING 350
SWIDTH 540 0
DWIDTH 29 0
BBX 20 37 3 -9
BITMAP
1FFF80
1FFF80
E00070
E00070
E00070
E00000
E00000
E00000
E00000
E00000
E00000
1FFF80
1FFF80
1FFF80
000070
000070
000070
000070
000070
000070
000070
000070
000070
E00070
E00070
E00070
1FFF80
1FFF80
00F000
006000
006000
181C00
1C1C00
1C1C00
03E000
03E000
03E000
ENDCHAR
STARTCHAR scedilla
ENCODING 351
SWIDTH 540 0
DWIDTH 29 0
BBX 20 29 3 -9
BITMAP
1FFF80
1FFF80
1FFF80
E00070
E00070
E00070
E00000
E00000
E00000
1FFF80
1FFF80
1FFF80
000070
000070
000070
E00070
E00070
E00070
1FFF80
1FFF80
00F000
006000
006000
181C00
1C1C00
1C1C00
03E000
03E000
03E000
ENDCHAR
STARTCHAR Scaron
ENCODING 352
SWIDTH 540 0
DWIDTH 29 0
BBX 20 40 3 0
BITMAP
1C0380
1C0380
1C0380
039C00
039C00
039C00
006000
006000
006000
000000
000000
000000
1FFF80
1FFF80
E00070
E00070
E00070
E00000
E00000
E00000
E00000
E00000
E00000
1FFF80
1FFF80
1FFF80
000070
000070
000070
000070
000070
000070
000070
000070
000070
E00070
E00070
E00070
1FFF80
1FFF80
ENDCHAR
STARTCHAR scaron
ENCODING 353
SWIDTH 540 0
DWIDTH 29 0
BBX 20 31 3 0
BITMAP
1C0380
1C0380
1C0380
039C00
039C00
006000
006000
006000
000000
000000
000000
1FFF80
1FFF80
1FFF80
E00070
E00070
E00070
E00000
E00000
E00000
1FFF80
1FFF80
1FFF80
000070
000070
000070
E00070
E00070
E00070
1FFF80
1FFF80
ENDCHAR
STARTCHAR Tcommaaccent
ENCODING 354
SWIDTH 540 0
DWIDTH 29 0
BBX 20 37 3 -9
BITMAP
FFFFF0
FFFFF0
00F000
006000
006000
006000
006000
006000
006000
006000
006000
006000
006000
006000
006000
006000
006000
006000
006000
006000
006000
006000
006000
006000
006000
006000
006000
006000
001C00
001C00
001C00
030380
038380
038380
007C00
007C00
007C00
ENDCHAR
STARTCHAR tcommaaccent
ENCODING 355
SWIDTH 540 0
DWIDTH 29 0
BBX 20 35 3 -9
BITMAP
030000
038000
038000
038000
038000
038000
FFFF80
FFFF80
FFFF80
038000
038000
038000
038000
038000
038000
038000
038000
038000
038000
038000
038000
038070
038070
038070
007F80
007F80
001E00
001C00
001C00
030380
038380
038380
007C00
007C00
007C00
ENDCHAR
STARTCHAR Tcaron
ENCODING 356
SWIDTH 540 0
DWIDTH 29 0
BBX 20 40 3 0
BITMAP
1C0380
1C0380
1C0380
039C00
039C00
039C00
006000
006000
006000
000000
000000
000000
FFFFF0
FFFFF0
00F000
006000
006000
006000
006000
006000
006000
006000
006000
006000
006000
006000
006000
006000
006000
006000
006000
006000
006000
006000
006000
006000
006000
006000
006000
006000
ENDCHAR
STARTCHAR tcaron
ENCODING 357
SWIDTH 540 0
DWIDTH 29 0
BBX 20 37 3 0
BITMAP
E01C00
E01C00
E01C00
1C6000
1C6000
1C6000
038000
038000
030000
000000
000000
030000
038000
038000
038000
038000
038000
FFFF80
FFFF80
FFFF80
038000
038000
038000
038000
038000
038000
038000
038000
038000
038000
038000
038000
038070
038070
038070
007F80
007F80
ENDCHAR
STARTCHAR Tbar
ENCODING 358
SWIDTH 540 0
DWIDTH 29 0
BBX 20 28 3 0
BITMAP
FFFFF0
FFFFF0
00F000
006000
006000
006000
006000
006000
1FFF80
1FFF80
1FFF80
00F000
006000
006000
006000
006000
006000
006000
006000
006000
006000
006000
006000
006000
006000
006000
006000
006000
ENDCHAR
STARTCHAR tbar
ENCODING 359
SWIDTH 540 0
DWIDTH 29 0
BBX 20 26 3 0
BITMAP
030000
038000
038000
038000
038000
038000
FFFF80
FFFF80
FFFF80
038000
038000
038000
FFFF80
FFFF80
FFFF80
038000
038000
038000
038000
038000
038000
038070
038070
038070
007F80
007F80
ENDCHAR
STARTCHAR Utilde
ENCODING 360
SWIDTH 540 0
DWIDTH 29 0
BBX 20 37 3 0
BITMAP
03E380
03E380
03F380
1C7C00
1C7C00
187C00
000000
000000
000000
E00070
E00070
E00070
E00070
E00070
E00070
E00070
E00070
E00070
E00070
E00070
E00070
E00070
E00070
E00070
E00070
E00070
E00070
E00070
E00070
E00070
E00070
E00070
1C0380
1C0380
1C0380
03FC00
03FC00
ENDCHAR
STARTCHAR utilde
ENCODING 361
SWIDTH 540 0
DWIDTH 29 0
BBX 20 28 3 0
BITMAP
03E380
03E380
1CFC00
1C7C00
1C7C00
000000
000000
000000
E00070
E00070
E00070
E00070
E00070
E00070
E00070
E00070
E00070
E00070
E00070
E00070
E00070
E00070
E00070
E003F0
E003F0
E003F0
1FFC70
1FFC70
ENDCHAR
STARTCHAR Umacron
ENCODING 362
SWIDTH 540 0
DWIDTH 29 0
BBX 20 34 3 0
BITMAP
1FFF80
1FFF80
1FFF80
000000
000000
000000
E00070
E00070
E00070
E00070
E00070
E00070
E00070
E00070
E00070
E00070
E00070
E00070
E00070
E00070
E00070
E00070
E00070
E00070
E00070
E00070
E00070
E00070
E00070
1C0380
1C0380
1C0380
03FC00
03FC00
ENDCHAR
STARTCHAR umacron
ENCODING 363
SWIDTH 540 0
DWIDTH 29 0
BBX 20 26 3 0
BITMAP
1FFF80
1FFF80
1FFF80
000000
000000
000000
E00070
E00070
E00070
E00070
E00070
E00070
E00070
E00070
E00070
E00070
E00070
E00070
E00070
E00070
E00070
E003F0
E003F0
E003F0
1FFC70
1FFC70
ENDCHAR
STARTCHAR Ubreve
ENCODING 364
SWIDTH 540 0
DWIDTH 29 0
BBX 20 37 3 0
BITMAP
1C0380
1C0380
1C0380
03FC00
03FC00
03FC00
000000
000000
000000
E00070
E00070
E00070
E00070
E00070
E00070
E00070
E00070
E00070
E00070
E00070
E00070
E00070
E00070
E00070
E00070
E00070
E00070
E00070
E00070
E00070
E00070
E00070
1C0380
1C0380
1C0380
03FC00
03FC00
ENDCHAR
STARTCHAR ubreve
ENCODING 365
SWIDTH 540 0
DWIDTH 29 0
BBX 20 28 3 0
BITMAP
1C0380
1C0380
03FC00
03FC00
03FC00
000000
000000
000000
E00070
E00070
E00070
E00070
E00070
E00070
E00070
E00070
E00070
E00070
E00070
E00070
E00070
E00070
E00070
E003F0
E003F0
E003F0
1FFC70
1FFC70
ENDCHAR
STARTCHAR Uring
ENCODING 366
SWIDTH 540 0
DWIDTH 29 0
BBX 20 40 3 0
BITMAP
006000
006000
006000
039C00
039C00
039C00
039C00
039C00
039C00
006000
006000
006000
E00070
E00070
E00070
E00070
E00070
E00070
E00070
E00070
E00070
E00070
E00070
E00070
E00070
E00070
E00070
E00070
E00070
E00070
E00070
E00070
E00070
E00070
E00070
1C0380
1C0380
1C0380
03FC00
03FC00
ENDCHAR
STARTCHAR uring
ENCODING 367
SWIDTH 540 0
DWIDTH 29 0
BBX 20 31 3 0
BITMAP
006000
006000
006000
039C00
039C00
039C00
039C00
039C00
006000
006000
006000
E00070
E00070
E00070
E00070
E00070
E00070
E00070
E00070
E00070
E00070
E00070
E00070
E00070
E00070
E00070
E003F0
E003F0
E003F0
1FFC70
1FFC70
ENDCHAR
STARTCHAR Uhungarumlaut
ENCODING 368
SWIDTH 540 0
DWIDTH 29 0
BBX 20 40 3 0
BITMAP
006070
006070
006070
038380
038380
030380
1C1C00
1C1C00
180C00
000000
000000
000000
E00070
E00070
E00070
E00070
E00070
E00070
E00070
E00070
E00070
E00070
E00070
E00070
E00070
E00070
E00070
E00070
E00070
E00070
E00070
E00070
E00070
E00070
E00070
1C0380
1C0380
1C0380
03FC00
03FC00
ENDCHAR
STARTCHAR uhungarumlaut
ENCODING 369
SWIDTH 540 0
DWIDTH 29 0
BBX 20 31 3 0
BITMAP
006070
006070
006070
038380
038380
1C0C00
1C1C00
1C1C00
000000
000000
000000
E00070
E00070
E00070
E00070
E00070
E00070
E00070
E00070
E00070
E00070
E00070
E00070
E00070
E00070
E00070
E003F0
E003F0
E003F0
1FFC70
1FFC70
ENDCHAR
STARTCHAR Uogonek
ENCODING 370
SWIDTH 540 0
DWIDTH 29 0
BBX 20 37 3 -9
BITMAP
E00070
E00070
E00070
E00070
E00070
E00070
E00070
E00070
E00070
E00070
E00070
E00070
E00070
E00070
E00070
E00070
E00070
E00070
E00070
E00070
E00070
E00070
E00070
1C0380
1C0380
1C0380
03FC00
03FC00
00F000
006000
006000
038000
038000
038000
007F80
007F80
007F80
ENDCHAR
STARTCHAR uogonek
ENCODING 371
SWIDTH 540 0
DWIDTH 29 0
BBX 20 29 3 -9
BITMAP
E00070
E00070
E00070
E00070
E00070
E00070
E00070
E00070
E00070
E00070
E00070
E00070
E00070
E00070
E00070
E003F0
E003F0
E003F0
1FFC70
1FFC70
078000
038000
038000
1C0000
1C0000
1C0000
03FC00
03FC00
03FC00
ENDCHAR
STARTCHAR Wcircumflex
ENCODING 372
SWIDTH 540 0
DWIDTH 29 0
BBX 20 40 3 0
BITMAP
006000
006000
006000
039C00
039C00
030C00
1C0380
1C0380
180180
000000
000000
000000
E00070
E00070
E00070
E00070
E00070
E00070
E00070
E00070
E00070
E00070
E00070
E06070
E06070
E06070
E06070
E06070
E06070
E06070
E06070
E06070
E06070
E06070
E06070
E39C70
E39C70
E30C70
1C0380
1C0380
ENDCHAR
STARTCHAR wcircumflex
ENCODING 373
SWIDTH 540 0
DWIDTH 29 0
BBX 20 31 3 0
BITMAP
006000
006000
006000
039C00
039C00
1C0380
1C0380
1C0380
000000
000000
000000
E00070
E00070
E00070
E00070
E00070
E00070
E06070
E06070
E06070
E06070
E06070
E06070
E06070
E06070
E06070
E39C70
E39C70
E30C70
1C0380
1C0380
ENDCHAR
STARTCHAR Ycircumflex
ENCODING 374
SWIDTH 540 0
DWIDTH 29 0
BBX 20 40 3 0
BITMAP
006000
006000
006000
039C00
039C00
030C00
1C0380
1C0380
180180
000000
000000
000000
E00070
E00070
E00070
E00070
E00070
180180
1C0380
1C0380
030C00
039C00
039C00
006000
006000
006000
006000
006000
006000
006000
006000
006000
006000
006000
006000
006000
006000
006000
006000
006000
ENDCHAR
STARTCHAR ycircumflex
ENCODING 375
SWIDTH 540 0
DWIDTH 29 0
BBX 20 40 3 -9
BITMAP
001C00
001C00
001C00
006380
006380
038070
038070
038070
000000
000000
000000
1C0070
1C0070
1C0070
1C0070
1C0070
1C0070
038380
038380
038380
038380
038380
038380
038380
038380
038380
007C00
007C00
007C00
007C00
007C00
007000
006000
006000
E06000
E06000
E06000
1F8000
1F8000
1F8000
ENDCHAR
STARTCHAR Ydieresis
ENCODING 376
SWIDTH 540 0
DWIDTH 29 0
BBX 20 37 3 0
BITMAP
039C00
039C00
039C00
039C00
039C00
030C00
000000
000000
000000
E00070
E00070
E00070
E00070
E00070
180180
1C0380
1C0380
030C00
039C00
039C00
006000
006000
006000
006000
006000
006000
006000
006000
006000
006000
006000
006000
006000
006000
006000
006000
006000
ENDCHAR
STARTCHAR Zacute
ENCODING 377
SWIDTH 540 0
DWIDTH 29 0
BBX 20 40 3 0
BITMAP
001C00
001C00
001C00
006000
006000
006000
038000
038000
030000
000000
000000
000000
FFFFF0
FFFFF0
000070
000070
000070
000180
000380
000380
000C00
001C00
001C00
006000
006000
006000
038000
038000
030000
1C0000
1C0000
1C0000
E00000
E00000
E00000
E00000
E00000
E00000
FFFFF0
FFFFF0
ENDCHAR
STARTCHAR zacute
ENCODING 378
SWIDTH 540 0
DWIDTH 29 0
BBX 20 31 3 0
BITMAP
001C00
001C00
001C00
006000
006000
038000
038000
038000
000000
000000
000000
FFFFF0
FFFFF0
FFFFF0
000380
000380
000380
001C00
001C00
001C00
006000
006000
006000
038000
038000
030000
1C0000
1C0000
3C0000
FFFFF0
FFFFF0
ENDCHAR
STARTCHAR Zdotaccent
ENCODING 379
SWIDTH 540 0
DWIDTH 29 0
BBX 20 37 3 0
BITMAP
006000
006000
006000
006000
006000
006000
000000
000000
000000
FFFFF0
FFFFF0
000070
000070
000070
000180
000380
000380
000C00
001C00
001C00
006000
006000
006000
038000
038000
030000
1C0000
1C0000
1C0000
E00000
E00000
E00000
E00000
E00000
E00000
FFFFF0
FFFFF0
ENDCHAR
STARTCHAR zdotaccent
ENCODING 380
SWIDTH 540 0
DWIDTH 29 0
BBX 20 28 3 0
BITMAP
006000
006000
006000
006000
006000
000000
000000
000000
FFFFF0
FFFFF0
FFFFF0
000380
000380
000380
001C00
001C00
001C00
006000
006000
006000
038000
038000
030000
1C0000
1C0000
3C0000
FFFFF0
FFFFF0
ENDCHAR
STARTCHAR Zcaron
ENCODING 381
SWIDTH 540 0
DWIDTH 29 0
BBX 20 40 3 0
BITMAP
1C0380
1C0380
1C0380
039C00
039C00
039C00
006000
006000
006000
000000
000000
000000
FFFFF0
FFFFF0
000070
000070
000070
000180
000380
000380
000C00
001C00
001C00
006000
006000
006000
038000
038000
030000
1C0000
1C0000
1C0000
E00000
E00000
E00000
E00000
E00000
E00000
FFFFF0
FFFFF0
ENDCHAR
STARTCHAR zcaron
ENCODING 382
SWIDTH 540 0
DWIDTH 29 0
BBX 20 31 3 0
BITMAP
1C0380
1C0380
1C0380
039C00
039C00
006000
006000
006000
000000
000000
000000
FFFFF0
FFFFF0
FFFFF0
000380
000380
000380
001C00
001C00
001C00
006000
006000
006000
038000
038000
030000
1C0000
1C0000
3C0000
FFFFF0
FFFFF0
ENDCHAR
STARTCHAR longs
ENCODING 383
SWIDTH 540 0
DWIDTH 29 0
BBX 14 28 6 0
BITMAP
03E0
03E0
1C1C
1C1C
1C1C
1C00
1C00
1C00
1C00
1C00
1C00
1C00
1C00
1C00
FC00
FC00
FC00
1C00
1C00
1C00
1C00
1C00
1C00
1C00
1C00
1C00
1C00
1C00
ENDCHAR
STARTCHAR uni0180
ENCODING 384
SWIDTH 540 0
DWIDTH 29 0
BBX 23 28 0 0
BITMAP
1C0000
1C0000
FFFC00
FFFC00
FFFC00
1C0000
1C0000
1C0000
1C7FF0
1C7FF0
1C7FF0
1F800E
1F800E
1F800E
1C000E
1C000E
1C000E
1C000E
1C000E
1C000E
1C000E
1C000E
1C000E
1F800E
1F800E
1F800E
1C7FF0
1C7FF0
ENDCHAR
STARTCHAR uni0181
ENCODING 385
SWIDTH 540 0
DWIDTH 29 0
BBX 23 28 0 0
BITMAP
1FFF80
1FFF80
E78070
E38070
E38070
E3800E
E3800E
E3800E
038070
038070
038070
03FF80
03FF80
03FF80
038070
038070
038070
03800E
03800E
03800E
03800E
03800E
03800E
038070
038070
038070
03FF80
03FF80
ENDCHAR
STARTCHAR uni0182
ENCODING 386
SWIDTH 540 0
DWIDTH 29 0
BBX 20 28 3 0
BITMAP
FFFF80
FFFF80
E00000
E00000
E00000
E00000
E00000
E00000
E00000
E00000
E00000
FFFC00
FFFC00
FFFC00
E00380
E00380
E00380
E00070
E00070
E00070
E00070
E00070
E00070
E00380
E00380
E00380
FFFC00
FFFC00
ENDCHAR
STARTCHAR uni0183
ENCODING 387
SWIDTH 540 0
DWIDTH 29 0
BBX 17 28 3 0
BITMAP
FFFC00
FFFC00
E00000
E00000
E00000
E00000
E00000
E00000
E3FC00
E3FC00
E3FC00
FC0380
FC0380
FC0380
E00380
E00380
E00380
E00380
E00380
E00380
E00380
E00380
E00380
FC0380
FC0380
FC0380
E3FC00
E3FC00
ENDCHAR
STARTCHAR uni0184
ENCODING 388
SWIDTH 540 0
DWIDTH 29 0
BBX 23 28 0 0
BITMAP
1C0000
1C0000
FC0000
FC0000
FC0000
FC0000
FC0000
FC0000
FC0000
FC0000
FC0000
1FFF80
1FFF80
1FFF80
1C0070
1C0070
1C0070
1C000E
1C000E
1C000E
1C000E
1C000E
1C000E
1C0070
1C0070
1C0070
1FFF80
1FFF80
ENDCHAR
STARTCHAR uni0185
ENCODING 389
SWIDTH 540 0
DWIDTH 29 0
BBX 23 28 0 0
BITMAP
038000
038000
1F8000
1F8000
1F8000
FF8000
FF8000
FF8000
1F8FF0
1F8FF0
1F8FF0
03F00E
03F00E
03F00E
03800E
03800E
03800E
03800E
03800E
03800E
03800E
03800E
03800E
03F00E
03F00E
03F00E
038FF0
038FF0
ENDCHAR
STARTCHAR uni0186
ENCODING 390
SWIDTH 540 0
DWIDTH 29 0
BBX 20 28 3 0
BITMAP
1FFC00
1FFC00
E00380
E00380
E00380
000070
000070
000070
000070
000070
000070
000070
000070
000070
000070
000070
000070
000070
000070
000070
000070
000070
000070
E00380
E00380
E00380
1FFC00
1FFC00
ENDCHAR
STARTCHAR uni0187
ENCODING 391
SWIDTH 540 0
DWIDTH 29 0
BBX 23 31 3 0
BITMAP
00007E
00007E
00007E
03FF80
03FF80
1C0380
1C0380
1C0380
E00000
E00000
E00000
E00000
E00000
E00000
E00000
E00000
E00000
E00000
E00000
E00000
E00000
E00000
E00000
E00000
E00000
E00000
1C0380
1C0380
1C0380
03FC00
03FC00
ENDCHAR
STARTCHAR uni0188
ENCODING 392
SWIDTH 540 0
DWIDTH 29 0
BBX 23 23 3 0
BITMAP
00007E
00007E
00007E
1FFF80
1FFF80
1FFF80
E00380
E00380
E00380
E00000
E00000
E00000
E00000
E00000
E00000
E00000
E00000
E00000
E00380
E00380
E00380
1FFC00
1FFC00
ENDCHAR
STARTCHAR uni0189
ENCODING 393
SWIDTH 540 0
DWIDTH 29 0
BBX 23 28 0 0
BITMAP
1FFF80
1FFF80
1C0070
1C0070
1C0070
1C000E
1C000E
1C000E
1C000E
1C000E
1C000E
FFE00E
FFF00E
FFF00E
1C000E
1C000E
1C000E
1C000E
1C000E
1C000E
1C000E
1C000E
1C000E
1C0070
1C0070
1C0070
1FFF80
1FFF80
ENDCHAR
STARTCHAR uni018A
ENCODING 394
SWIDTH 540 0
DWIDTH 29 0
BBX 23 28 0 0
BITMAP
1FFF80
1FFF80
E78070
E38070
E38070
E3800E
E3800E
E3800E
03800E
03800E
03800E
03800E
03800E
03800E
03800E
03800E
03800E
03800E
03800E
03800E
03800E
03800E
03800E
038070
038070
038070
03FF80
03FF80
ENDCHAR
STARTCHAR uni018B
ENCODING 395
SWIDTH 540 0
DWIDTH 29 0
BBX 20 28 3 0
BITMAP
1FFFF0
1FFFF0
000070
000070
000070
000070
000070
000070
000070
000070
000070
03FFF0
03FFF0
03FFF0
1C0070
1C0070
1C0070
E00070
E00070
E00070
E00070
E00070
E00070
1C0070
1C0070
1C0070
03FFF0
03FFF0
ENDCHAR
STARTCHAR uni018C
ENCODING 396
SWIDTH 540 0
DWIDTH 29 0
BBX 17 28 3 0
BITMAP
1FFF80
1FFF80
000380
000380
000380
000380
000380
000380
1FE380
1FE380
1FE380
E01F80
E01F80
E01F80
E00380
E00380
E00380
E00380
E00380
E00380
E00380
E00380
E00380
E01F80
E01F80
E01F80
1FE380
1FE380
ENDCHAR
STARTCHAR uni018D
ENCODING 397
SWIDTH 540 0
DWIDTH 29 0
BBX 20 29 3 -9
BITMAP
03FC00
03FC00
03FC00
1C0380
1C0380
1C0380
E00070
E00070
E00070
E00070
E00070
E00070
E00070
E00070
E00070
1C0380
1C0380
1C0380
03FC00
03FC00
001C00
001C00
001C00
180380
1C0380
1C0380
03FC00
03FC00
03FC00
ENDCHAR
STARTCHAR uni018E
ENCODING 398
SWIDTH 540 0
DWIDTH 29 0
BBX 20 28 3 0
BITMAP
FFFFF0
FFFFF0
000070
000070
000070
000070
000070
000070
000070
000070
000070
03FFF0
03FFF0
03FFF0
000070
000070
000070
000070
000070
000070
000070
000070
000070
000070
000070
000070
FFFFF0
FFFFF0
ENDCHAR
STARTCHAR uni018F
ENCODING 399
SWIDTH 540 0
DWIDTH 29 0
BBX 20 28 3 0
BITMAP
03FC00
03FC00
1C0380
1C0380
1C0380
E00070
E00070
E00070
000070
000070
000070
000070
000070
000070
FFFFF0
FFFFF0
FFFFF0
E00070
E00070
E00070
E00070
E00070
E00070
1C0380
1C0380
1C0380
03FC00
03FC00
ENDCHAR
STARTCHAR uni0190
ENCODING 400
SWIDTH 540 0
DWIDTH 29 0
BBX 20 28 3 0
BITMAP
1FFF80
1FFF80
E00070
E00070
E00070
E00000
E00000
E00000
E00000
E00000
E00000
1FFC00
1FFC00
1FFC00
E00000
E00000
E00000
E00000
E00000
E00000
E00000
E00000
E00000
E00070
E00070
E00070
1FFF80
1FFF80
ENDCHAR
STARTCHAR uni0191
ENCODING 401
SWIDTH 540 0
DWIDTH 29 0
BBX 23 34 0 -6
BITMAP
03FFFE
03FFFE
038000
038000
038000
038000
038000
038000
038000
038000
038000
03FF80
03FF80
03FF80
038000
038000
038000
038000
038000
038000
038000
038000
038000
038000
038000
038000
E38000
E38000
E38000
E38000
E38000
1C0000
1C0000
1C0000
ENDCHAR
STARTCHAR florin
ENCODING 402
SWIDTH 540 0
DWIDTH 29 0
BBX 20 34 3 -6
BITMAP
001F80
001F80
006070
006070
006070
006000
006000
006000
006000
006000
006000
006000
006000
006000
1FFF80
1FFF80
1FFF80
006000
006000
006000
006000
006000
006000
006000
006000
006000
006000
006000
C06000
E06000
E06000
1F8000
1F8000
1F8000
ENDCHAR
STARTCHAR uni0193
ENCODING 403
SWIDTH 540 0
DWIDTH 29 0
BBX 23 34 3 0
BITMAP
00000E
00000E
00000E
000070
000070
000070
03FF80
03FF80
1C0380
1C0380
1C0380
E00000
E00000
E00000
E00000
E00000
E00000
E00000
E00000
E00000
E01FF0
E01FF0
E00FF0
E00070
E00070
E00070
E00070
E00070
E00070
1C0380
1C0380
1C0380
03FC00
03FC00
ENDCHAR
STARTCHAR uni0194
ENCODING 404
SWIDTH 540 0
DWIDTH 29 0
BBX 20 28 3 0
BITMAP
E00070
E00070
E00070
E00070
E00070
180180
1C0380
1C0380
1C0380
1C0380
1C0380
030C00
039C00
039C00
039C00
039C00
039C00
006000
006000
006000
039C00
039C00
039C00
039C00
039C00
039C00
006000
006000
ENDCHAR
STARTCHAR uni0195
ENCODING 405
SWIDTH 540 0
DWIDTH 29 0
BBX 20 28 3 0
BITMAP
E00000
E00000
E00000
E00000
E00000
E00000
E00000
E00000
E30070
E38070
E38070
FC6070
FC6070
FC6070
E06070
E06070
E06070
E06070
E06070
E06070
E06070
E06070
E06070
E06070
E06070
E06070
E01F80
E01F80
ENDCHAR
STARTCHAR uni0196
ENCODING 406
SWIDTH 540 0
DWIDTH 29 0
BBX 14 28 6 0
BITMAP
FF00
FF00
0700
0300
0300
0300
0300
0300
0300
0300
0300
0300
0300
0300
0300
0300
0300
0300
0300
0300
0300
0300
0300
0300
0300
0300
00FC
00FC
ENDCHAR
STARTCHAR uni0197
ENCODING 407
SWIDTH 540 0
DWIDTH 29 0
BBX 14 28 6 0
BITMAP
FFFC
FFFC
0780
0300
0300
0300
0300
0300
0300
0300
0300
FFFC
FFFC
FFFC
0300
0300
0300
0300
0300
0300
0300
0300
0300
0300
0300
0780
FFFC
FFFC
ENDCHAR
STARTCHAR uni0198
ENCODING 408
SWIDTH 540 0
DWIDTH 29 0
BBX 23 28 3 0
BITMAP
E003F0
E003F0
E00C0E
E01C0E
E01C0E
E06000
E06000
E06000
E38000
E38000
E38000
FC0000
FC0000
FC0000
E38000
E38000
E38000
E06000
E06000
E06000
E01C00
E01C00
E00C00
E00380
E00380
E00180
E00070
E00070
ENDCHAR
STARTCHAR uni0199
ENCODING 409
SWIDTH 540 0
DWIDTH 29 0
BBX 20 31 3 0
BITMAP
1F8000
1F8000
1F8000
E06000
E06000
E00000
E00000
E00000
E00000
E00000
E00000
E00380
E00380
E00380
E00C00
E01C00
E01C00
E06000
E06000
E0E000
E3E000
E3E000
E3E000
FC1C00
FC1C00
F80C00
E00380
E00380
E00180
E00070
E00070
ENDCHAR
STARTCHAR uni019A
ENCODING 410
SWIDTH 540 0
DWIDTH 29 0
BBX 14 28 6 0
BITMAP
FF00
FF00
0700
0300
0300
0300
0300
0300
0300
0300
0300
FFFC
FFFC
FFFC
0300
0300
0300
0300
0300
0300
0300
0300
0300
0300
0300
0780
FFFC
FFFC
ENDCHAR
STARTCHAR uni019B
ENCODING 411
SWIDTH 540 0
DWIDTH 29 0
BBX 17 28 3 0
BITMAP
1C1C00
1C1C00
03E000
03E000
03E000
038000
038000
038000
1C6000
1C6000
1C6000
E06000
E06000
E06000
039C00
039C00
039C00
039C00
039C00
030C00
1C0380
1C0380
1C0380
1C0380
1C0380
1C0380
1C0380
1C0380
ENDCHAR
STARTCHAR uni019C
ENCODING 412
SWIDTH 540 0
DWIDTH 29 0
BBX 20 28 3 0
BITMAP
E06070
E06070
E06070
E06070
E06070
E06070
E06070
E06070
E06070
E06070
E06070
E06070
E06070
E06070
E06070
E06070
E06070
E06070
E06070
E06070
E06070
E06070
E06070
E06070
E06070
E06070
1F9FF0
1F9FF0
ENDCHAR
STARTCHAR uni019D
ENCODING 413
SWIDTH 540 0
DWIDTH 29 0
BBX 23 34 0 -6
BITMAP
03800E
03800E
03800E
03800E
03800E
03800E
03800E
03800E
03E00E
03F00E
03F00E
038C0E
038C0E
038C0E
03838E
03838E
03818E
03807E
03807E
03807E
03800E
03800E
03800E
03800E
03800E
03800E
03800E
03800E
C38000
E38000
E38000
1C0000
1C0000
1C0000
ENDCHAR
STARTCHAR uni019E
ENCODING 414
SWIDTH 540 0
DWIDTH 29 0
BBX 20 29 3 -9
BITMAP
E3FF80
E3FF80
E3FF80
FC0070
FC0070
FC0070
E00070
E00070
E00070
E00070
E00070
E00070
E00070
E00070
E00070
E00070
E00070
E00070
E00070
E00070
000070
000070
000070
000070
000070
000070
000070
000070
000070
ENDCHAR
STARTCHAR uni019F
ENCODING 415
SWIDTH 540 0
DWIDTH 29 0
BBX 20 28 3 0
BITMAP
1FFF80
1FFF80
E00070
E00070
E00070
E00070
E00070
E00070
E00070
E00070
E00070
FFFFF0
FFFFF0
FFFFF0
E00070
E00070
E00070
E00070
E00070
E00070
E00070
E00070
E00070
E00070
E00070
E00070
1FFF80
1FFF80
ENDCHAR
STARTCHAR Ohorn
ENCODING 416
SWIDTH 540 0
DWIDTH 29 0
BBX 23 34 3 0
BITMAP
00000E
00000E
00000E
000070
000070
000070
1FFF80
1FFF80
E00070
E00070
E00070
E00070
E00070
E00070
E00070
E00070
E00070
E00070
E00070
E00070
E00070
E00070
E00070
E00070
E00070
E00070
E00070
E00070
E00070
E00070
E00070
E00070
1FFF80
1FFF80
ENDCHAR
STARTCHAR ohorn
ENCODING 417
SWIDTH 540 0
DWIDTH 29 0
BBX 20 26 3 0
BITMAP
000030
000070
000070
000180
000380
000380
1FFF80
1FFF80
1FFF80
E00070
E00070
E00070
E00070
E00070
E00070
E00070
E00070
E00070
E00070
E00070
E00070
E00070
E00070
E00070
1FFF80
1FFF80
ENDCHAR
STARTCHAR uni01A2
ENCODING 418
SWIDTH 540 0
DWIDTH 29 0
BBX 20 28 3 0
BITMAP
1F9F80
1F9F80
E06070
E06070
E06070
E06070
E06070
E06070
E06070
E06070
E06070
E06070
E06070
E06070
E06070
E06070
E06070
E06070
E06070
E06070
E06070
E06070
E06070
E06070
E06070
E06070
1F8070
1F8070
ENDCHAR
STARTCHAR uni01A3
ENCODING 419
SWIDTH 540 0
DWIDTH 29 0
BBX 20 26 3 -6
BITMAP
1F0F80
1F9F80
1F9F80
E06070
E06070
E06070
E06070
E06070
E06070
E06070
E06070
E06070
E06070
E06070
E06070
E06070
E06070
E06070
1F8070
1F8070
000070
000070
000070
000070
000070
000070
ENDCHAR
STARTCHAR uni01A4
ENCODING 420
SWIDTH 540 0
DWIDTH 29 0
BBX 23 28 0 0
BITMAP
1FFF80
1FFF80
E78070
E38070
E38070
E3800E
E3800E
E3800E
03800E
03800E
03800E
038070
038070
038070
03FF80
03FF80
03FF80
038000
038000
038000
038000
038000
038000
038000
038000
038000
038000
038000
ENDCHAR
STARTCHAR uni01A5
ENCODING 421
SWIDTH 540 0
DWIDTH 29 0
BBX 20 35 3 -9
BITMAP
1F0000
1F8000
1F8000
E00000
E00000
E00000
E3FC00
E3FC00
E3FC00
FC0380
FC0380
FC0380
E00070
E00070
E00070
E00070
E00070
E00070
E00070
E00070
E00070
FC0380
FC0380
FC0380
E3FC00
E3FC00
E00000
E00000
E00000
E00000
E00000
E00000
E00000
E00000
E00000
ENDCHAR
STARTCHAR uni01A6
ENCODING 422
SWIDTH 540 0
DWIDTH 29 0
BBX 20 34 3 -6
BITMAP
E00000
E00000
E00000
E00000
E00000
FFFC00
FFFC00
FFFC00
E00380
E00380
E00380
E00070
E00070
E00070
E00070
E00070
E00070
E00380
E00380
E00380
FFFC00
FFFC00
FFFC00
E06000
E06000
E06000
E01C00
E01C00
001C00
001C00
001C00
0003F0
0003F0
0003F0
ENDCHAR
STARTCHAR uni01A7
ENCODING 423
SWIDTH 540 0
DWIDTH 29 0
BBX 20 28 3 0
BITMAP
1FFF80
1FFF80
E00070
E00070
E00070
000070
000070
000070
000070
000070
000070
1FFF80
1FFF80
1FFF80
E00000
E00000
E00000
E00000
E00000
E00000
E00000
E00000
E00000
E00070
E00070
E00070
1FFF80
1FFF80
ENDCHAR
STARTCHAR uni01A8
ENCODING 424
SWIDTH 540 0
DWIDTH 29 0
BBX 20 20 3 0
BITMAP
1FFF80
1FFF80
1FFF80
E00070
E00070
E00070
000070
000070
000070
1FFF80
1FFF80
1FFF80
E00000
E00000
E00000
E00070
E00070
E00070
1FFF80
1FFF80
ENDCHAR
STARTCHAR uni01A9
ENCODING 425
SWIDTH 540 0
DWIDTH 29 0
BBX 20 28 3 0
BITMAP
FFFFF0
FFFFF0
3C0000
1C0000
1C0000
030000
038000
038000
006000
006000
006000
001C00
001C00
001C00
001C00
001C00
001C00
006000
006000
006000
038000
038000
030000
1C0000
1C0000
3C0000
FFFFF0
FFFFF0
ENDCHAR
STARTCHAR uni01AA
ENCODING 426
SWIDTH 540 0
DWIDTH 29 0
BBX 20 34 3 -6
BITMAP
1F8000
1F8000
E06000
E06000
E06000
E06000
E06000
E06000
1FFC00
1FFC00
1FFC00
00F000
006000
006000
006000
006000
006000
006000
006000
006000
006000
006000
006000
006000
006000
006000
006000
006000
006030
006070
006070
001F80
001F80
001F80
ENDCHAR
STARTCHAR uni01AB
ENCODING 427
SWIDTH 540 0
DWIDTH 29 0
BBX 20 35 3 -9
BITMAP
030000
038000
038000
038000
038000
038000
FFFF80
FFFF80
FFFF80
038000
038000
038000
038000
038000
038000
038000
038000
038000
038000
038000
038000
038070
038070
038070
007FF0
007FF0
000070
000070
000070
006070
006070
006070
001F80
001F80
001F80
ENDCHAR
STARTCHAR uni01AC
ENCODING 428
SWIDTH 540 0
DWIDTH 29 0
BBX 20 28 3 0
BITMAP
1FFFF0
1FFFF0
E0F000
E06000
E06000
E06000
E06000
E06000
006000
006000
006000
006000
006000
006000
006000
006000
006000
006000
006000
006000
006000
006000
006000
006000
006000
006000
006000
006000
ENDCHAR
STARTCHAR uni01AD
ENCODING 429
SWIDTH 540 0
DWIDTH 29 0
BBX 20 31 3 0
BITMAP
007F80
007F80
007F80
038070
038070
038000
038000
038000
038000
038000
038000
FFFF80
FFFF80
FFFF80
038000
038000
038000
038000
038000
038000
038000
038000
038000
038000
038000
038000
038070
038070
038070
007F80
007F80
ENDCHAR
STARTCHAR uni01AE
ENCODING 430
SWIDTH 540 0
DWIDTH 29 0
BBX 20 34 3 -6
BITMAP
FFFFF0
FFFFF0
00F000
006000
006000
006000
006000
006000
006000
006000
006000
006000
006000
006000
006000
006000
006000
006000
006000
006000
006000
006000
006000
006000
006000
006000
006000
006000
006000
006000
006000
001F80
001F80
001F80
ENDCHAR
STARTCHAR Uhorn
ENCODING 431
SWIDTH 540 0
DWIDTH 29 0
BBX 20 37 3 0
BITMAP
0003F0
0003F0
0003F0
0003F0
0003F0
0001F0
000070
000070
000070
E00380
E00380
E00380
E00380
E00380
E00380
E00380
E00380
E00380
E00380
E00380
E00380
E00380
E00380
E00380
E00380
E00380
E00380
E00380
E00380
E00380
E00380
E00380
1C1C00
1C1C00
1C1C00
03E000
03E000
ENDCHAR
STARTCHAR uhorn
ENCODING 432
SWIDTH 540 0
DWIDTH 29 0
BBX 20 28 3 0
BITMAP
0003F0
0003F0
0003F0
0003F0
0003F0
000070
000070
000070
E00380
E00380
E00380
E00380
E00380
E00380
E00380
E00380
E00380
E00380
E00380
E00380
E00380
E00380
E00380
1C1F80
1C1F80
1C1F80
03E380
03E380
ENDCHAR
STARTCHAR uni01B1
ENCODING 433
SWIDTH 540 0
DWIDTH 29 0
BBX 20 28 3 0
BITMAP
1C0380
1C0380
1C0380
1C0380
1C0380
E00070
E00070
E00070
E00070
E00070
E00070
E00070
E00070
E00070
E00070
E00070
E00070
E00070
E00070
E00070
E00070
E00070
E00070
1C0380
1C0380
1C0380
03FC00
03FC00
ENDCHAR
STARTCHAR uni01B2
ENCODING 434
SWIDTH 540 0
DWIDTH 29 0
BBX 20 28 3 0
BITMAP
E00380
E00380
E00380
E00380
E00380
E00070
E00070
E00070
E00070
E00070
E00070
E00070
E00070
E00070
E00070
E00070
E00070
E00070
E00070
E00070
E00070
E00070
E00070
1C0380
1C0380
1C0380
03FC00
03FC00
ENDCHAR
STARTCHAR uni01B3
ENCODING 435
SWIDTH 540 0
DWIDTH 29 0
BBX 20 28 3 0
BITMAP
FC0070
FC0070
030070
038070
038070
038180
038380
038380
038C00
039C00
039C00
006000
006000
006000
006000
006000
006000
006000
006000
006000
006000
006000
006000
006000
006000
006000
006000
006000
ENDCHAR
STARTCHAR uni01B4
ENCODING 436
SWIDTH 540 0
DWIDTH 29 0
BBX 23 32 3 -9
BITMAP
000070
000070
000070
1C038E
1C038E
1C038E
1C0380
1C0380
1C0380
039C00
039C00
039C00
039C00
039C00
039C00
039C00
039C00
039C00
006000
006000
006000
006000
006000
006000
006000
006000
E06000
E06000
E06000
1F8000
1F8000
1F8000
ENDCHAR
STARTCHAR uni01B5
ENCODING 437
SWIDTH 540 0
DWIDTH 29 0
BBX 20 28 3 0
BITMAP
FFFFF0
FFFFF0
000070
000070
000070
000180
000380
000380
000C00
001C00
001C00
1FFF80
1FFF80
1FFF80
038000
038000
030000
1C0000
1C0000
1C0000
E00000
E00000
E00000
E00000
E00000
E00000
FFFFF0
FFFFF0
ENDCHAR
STARTCHAR uni01B6
ENCODING 438
SWIDTH 540 0
DWIDTH 29 0
BBX 20 20 3 0
BITMAP
FFFFF0
FFFFF0
FFFFF0
000380
000380
000380
001C00
001C00
001C00
1FFF80
1FFF80
1FFF80
038000
038000
030000
1C0000
1C0000
3C0000
FFFFF0
FFFFF0
ENDCHAR
STARTCHAR uni01B7
ENCODING 439
SWIDTH 540 0
DWIDTH 29 0
BBX 17 28 3 0
BITMAP
FFFF80
FFFF80
001E00
001C00
001C00
006000
006000
006000
038000
038000
038000
1FE000
1FE000
1FE000
001C00
001C00
000C00
000380
000380
000380
000380
000380
000380
E01C00
E01C00
E01C00
1FE000
1FE000
ENDCHAR
STARTCHAR uni01B8
ENCODING 440
SWIDTH 540 0
DWIDTH 29 0
BBX 17 28 3 0
BITMAP
FFFF80
FFFF80
3C0000
1C0000
1C0000
030000
038000
038000
006000
006000
006000
03FC00
03FC00
03FC00
1C0000
1C0000
1C0000
E00000
E00000
E00000
E00000
E00000
E00000
1C0380
1C0380
1C0380
03FC00
03FC00
ENDCHAR
STARTCHAR uni01B9
ENCODING 441
SWIDTH 540 0
DWIDTH 29 0
BBX 17 29 3 -9
BITMAP
FFFF80
FFFF80
FFFF80
1C0000
1C0000
1C0000
038000
038000
038000
006000
006000
00F000
03FC00
03FC00
03FC00
1C0000
1C0000
180000
E00000
E00000
E00000
E00000
E00000
180180
1C0380
1C0380
03FC00
03FC00
03FC00
ENDCHAR
STARTCHAR uni01BA
ENCODING 442
SWIDTH 540 0
DWIDTH 29 0
BBX 20 29 3 -9
BITMAP
FFFF80
FFFF80
FFFF80
001C00
001C00
001C00
006000
006000
006000
038000
038000
038000
1FE000
1FE000
1FE000
001C00
001C00
001C00
006070
006070
1F8070
1F8070
1F8070
E00180
E00380
E00380
1FFC00
1FFC00
1FFC00
ENDCHAR
STARTCHAR uni01BB
ENCODING 443
SWIDTH 540 0
DWIDTH 29 0
BBX 20 28 3 0
BITMAP
03FC00
03FC00
1C0380
1C0380
1C0380
E00070
E00070
E00070
000070
000070
000070
000380
000380
000380
1FFFF0
1FFFF0
1FFFF0
006000
006000
006000
038000
038000
030000
1C0000
1C0000
3C0000
FFFFF0
FFFFF0
ENDCHAR
STARTCHAR uni01BC
ENCODING 444
SWIDTH 540 0
DWIDTH 29 0
BBX 20 28 3 0
BITMAP
FFFFF0
FFFFF0
E00070
E00070
E00070
E00000
E00000
E00000
FFFC00
FFFC00
FFFC00
000380
000380
000380
000070
000070
000070
000070
000070
000070
000070
000070
000070
000380
000380
000380
FFFC00
FFFC00
ENDCHAR
STARTCHAR uni01BD
ENCODING 445
SWIDTH 540 0
DWIDTH 29 0
BBX 17 20 6 0
BITMAP
FFFF80
FFFF80
FFFF80
E00380
E00380
E00380
FFE000
FFE000
FFE000
001C00
001C00
001C00
000380
000380
000380
E01C00
E01C00
E01C00
1FE000
1FE000
ENDCHAR
STARTCHAR uni01BE
ENCODING 446
SWIDTH 540 0
DWIDTH 29 0
BBX 14 28 6 0
BITMAP
0300
0300
0300
0300
0300
FFFC
FFFC
FFFC
0780
0300
0300
03E0
03E0
03E0
001C
001C
001C
001C
001C
001C
E01C
E01C
E01C
E01C
E01C
E01C
1FE0
1FE0
ENDCHAR
STARTCHAR uni01BF
ENCODING 447
SWIDTH 540 0
DWIDTH 29 0
BBX 20 29 3 -9
BITMAP
E3FC00
E3FC00
E3FC00
FC0380
FC0380
FC0380
E00070
E00070
E00070
E00380
E00380
E00380
E01C00
E01C00
E01C00
E06000
E06000
E06000
E38000
E38000
FC0000
FC0000
FC0000
E00000
E00000
E00000
E00000
E00000
E00000
ENDCHAR
STARTCHAR uni01C0
ENCODING 448
SWIDTH 540 0
DWIDTH 29 0
BBX 2 28 12 0
BITMAP
C0
C0
C0
C0
C0
C0
C0
C0
C0
C0
C0
C0
C0
C0
C0
C0
C0
C0
C0
C0
C0
C0
C0
C0
C0
C0
C0
C0
ENDCHAR
STARTCHAR uni01C1
ENCODING 449
SWIDTH 540 0
DWIDTH 29 0
BBX 8 28 9 0
BITMAP
E7
E7
E7
E7
E7
E7
E7
E7
E7
E7
E7
E7
E7
E7
E7
E7
E7
E7
E7
E7
E7
E7
E7
E7
E7
E7
E7
E7
ENDCHAR
STARTCHAR uni01C2
ENCODING 450
SWIDTH 540 0
DWIDTH 29 0
BBX 14 28 6 0
BITMAP
0300
0300
0300
0300
0300
0300
0300
0300
FFFC
FFFC
FFFC
0780
0300
0300
0300
0300
0780
FFFC
FFFC
FFFC
0300
0300
0300
0300
0300
0300
0300
0300
ENDCHAR
STARTCHAR uni01C3
ENCODING 451
SWIDTH 540 0
DWIDTH 29 0
BBX 8 26 9 0
BITMAP
FF
FF
FF
FF
FF
FF
FF
FF
FF
FF
FF
FF
18
18
18
18
18
18
00
00
00
FF
FF
FF
18
18
ENDCHAR
STARTCHAR uni01C4
ENCODING 452
SWIDTH 540 0
DWIDTH 29 0
BBX 20 37 3 0
BITMAP
001C70
001C70
000C70
000380
000380
000180
000000
000000
000000
FF9FF0
FF9FF0
E78070
E38070
E38070
E06070
E06070
E06070
E06070
E06070
E06070
E06380
E06380
E06380
E06380
E06380
E07380
E07C00
E07C00
E07C00
E07C00
E07C00
E07C00
E39C00
E39C00
E31E00
FC1FF0
FC1FF0
ENDCHAR
STARTCHAR uni01C5
ENCODING 453
SWIDTH 540 0
DWIDTH 29 0
BBX 20 31 3 0
BITMAP
001C70
001C70
000C70
FF8380
FF8380
E78000
E38000
E38000
E06000
E06000
E06000
E07FF0
E07FF0
E07FF0
E07070
E06070
E06070
E06070
E06070
E06070
E06380
E06380
E07380
E07C00
E07C00
E07C00
E39C00
E39C00
E31E00
FC1FF0
FC1FF0
ENDCHAR
STARTCHAR uni01C6
ENCODING 454
SWIDTH 540 0
DWIDTH 29 0
BBX 20 31 3 0
BITMAP
007C70
007C70
007C70
006380
006380
006000
006000
006000
006000
006000
006000
1FFFF0
1FFFF0
1FFFF0
E0F070
E06070
E06070
E06070
E06070
E06070
E06380
E06380
E07380
E07C00
E07C00
E07C00
E07C00
E07C00
E0FE00
1FFFF0
1FFFF0
ENDCHAR
STARTCHAR uni01C7
ENCODING 455
SWIDTH 540 0
DWIDTH 29 0
BBX 23 28 3 0
BITMAP
E003FE
E003FE
E00078
E00070
E00070
E00070
E00070
E00070
E00070
E00070
E00070
E00070
E00070
E00070
E00070
E00070
E00070
E00070
E00070
E00070
E00070
E00070
E00070
E01C70
E01C70
E01C70
FFE380
FFE380
ENDCHAR
STARTCHAR uni01C8
ENCODING 456
SWIDTH 540 0
DWIDTH 29 0
BBX 17 37 3 -9
BITMAP
E01F80
E01F80
E00000
E00000
E00000
E00000
E00000
E00000
E07F80
E07F80
E07F80
E00380
E00380
E00380
E00380
E00380
E00380
E00380
E00380
E00380
E00380
E00380
E00380
E00380
E00380
E00380
FFE380
FFE380
000380
000380
000380
180380
1C0380
1C0380
03FC00
03FC00
03FC00
ENDCHAR
STARTCHAR uni01C9
ENCODING 457
SWIDTH 540 0
DWIDTH 29 0
BBX 17 37 3 -9
BITMAP
FC1F80
FC1F80
3C0000
1C0000
1C0000
1C0000
1C0000
1C0000
1C7F80
1C7F80
1C7F80
1C0380
1C0380
1C0380
1C0380
1C0380
1C0380
1C0380
1C0380
1C0380
1C0380
1C0380
1C0380
1C0380
1C0380
3C0380
FF8380
FF8380
000380
000380
000380
180380
1C0380
1C0380
03FC00
03FC00
03FC00
ENDCHAR
STARTCHAR uni01CA
ENCODING 458
SWIDTH 540 0
DWIDTH 29 0
BBX 23 28 3 0
BITMAP
E063FE
E063FE
E06078
E06070
E06070
E06070
E06070
E06070
E06070
E06070
E06070
FC6070
FC6070
FC6070
E3E070
E3E070
E3E070
E06070
E06070
E06070
E06070
E06070
E07070
E07C70
E07C70
E07C70
E06380
E06380
ENDCHAR
STARTCHAR uni01CB
ENCODING 459
SWIDTH 540 0
DWIDTH 29 0
BBX 17 37 3 -9
BITMAP
E06380
E06380
E06000
E06000
E06000
E06000
E06000
E06000
E07F80
E07F80
E07F80
FC7380
FC6380
FC6380
E3E380
E3E380
E3E380
E06380
E06380
E06380
E06380
E06380
E06380
E06380
E06380
E06380
E06380
E06380
000380
000380
000380
180380
1C0380
1C0380
03FC00
03FC00
03FC00
ENDCHAR
STARTCHAR uni01CC
ENCODING 460
SWIDTH 540 0
DWIDTH 29 0
BBX 17 37 3 -9
BITMAP
001F80
001F80
000000
000000
000000
000000
000000
000000
E30F80
E39F80
E39F80
FC6380
FC6380
FC6380
E06380
E06380
E06380
E06380
E06380
E06380
E06380
E06380
E06380
E06380
E06380
E06380
E06380
E06380
000380
000380
000380
180380
1C0380
1C0380
03FC00
03FC00
03FC00
ENDCHAR
STARTCHAR uni01CD
ENCODING 461
SWIDTH 540 0
DWIDTH 29 0
BBX 20 40 3 0
BITMAP
1C0380
1C0380
1C0380
039C00
039C00
039C00
006000
006000
006000
000000
000000
000000
006000
006000
039C00
039C00
039C00
039C00
039C00
039C00
039C00
039C00
039C00
1C0380
1C0380
1C0380
1FFF80
1FFF80
1FFF80
1C0380
1C0380
1C0380
E00070
E00070
E00070
E00070
E00070
E00070
E00070
E00070
ENDCHAR
STARTCHAR uni01CE
ENCODING 462
SWIDTH 540 0
DWIDTH 29 0
BBX 20 31 3 0
BITMAP
1C0380
1C0380
1C0380
039C00
039C00
006000
006000
006000
000000
000000
000000
1FFF80
1FFF80
1FFF80
000070
000070
000070
000070
000070
000070
1FFFF0
1FFFF0
1FFFF0
E00070
E00070
E00070
E003F0
E003F0
E003F0
1FFC70
1FFC70
ENDCHAR
STARTCHAR uni01CF
ENCODING 463
SWIDTH 540 0
DWIDTH 29 0
BBX 14 40 6 0
BITMAP
E01C
E01C
E01C
1CE0
1CE0
1CE0
0300
0300
0300
0000
0000
0000
FFFC
FFFC
0780
0300
0300
0300
0300
0300
0300
0300
0300
0300
0300
0300
0300
0300
0300
0300
0300
0300
0300
0300
0300
0300
0300
0780
FFFC
FFFC
ENDCHAR
STARTCHAR uni01D0
ENCODING 464
SWIDTH 540 0
DWIDTH 29 0
BBX 14 31 6 0
BITMAP
E01C
E01C
E01C
1CE0
1CE0
0300
0300
0300
0000
0000
0000
FF00
FF00
FF00
0700
0300
0300
0300
0300
0300
0300
0300
0300
0300
0300
0300
0300
0300
0780
FFFC
FFFC
ENDCHAR
STARTCHAR uni01D1
ENCODING 465
SWIDTH 540 0
DWIDTH 29 0
BBX 20 40 3 0
BITMAP
1C0380
1C0380
1C0380
039C00
039C00
039C00
006000
006000
006000
000000
000000
000000
1FFF80
1FFF80
E00070
E00070
E00070
E00070
E00070
E00070
E00070
E00070
E00070
E00070
E00070
E00070
E00070
E00070
E00070
E00070
E00070
E00070
E00070
E00070
E00070
E00070
E00070
E00070
1FFF80
1FFF80
ENDCHAR
STARTCHAR uni01D2
ENCODING 466
SWIDTH 540 0
DWIDTH 29 0
BBX 20 31 3 0
BITMAP
1C0380
1C0380
1C0380
039C00
039C00
006000
006000
006000
000000
000000
000000
1FFF80
1FFF80
1FFF80
E00070
E00070
E00070
E00070
E00070
E00070
E00070
E00070
E00070
E00070
E00070
E00070
E00070
E00070
E00070
1FFF80
1FFF80
ENDCHAR
STARTCHAR uni01D3
ENCODING 467
SWIDTH 540 0
DWIDTH 29 0
BBX 20 40 3 0
BITMAP
1C0380
1C0380
1C0380
039C00
039C00
039C00
006000
006000
006000
000000
000000
000000
E00070
E00070
E00070
E00070
E00070
E00070
E00070
E00070
E00070
E00070
E00070
E00070
E00070
E00070
E00070
E00070
E00070
E00070
E00070
E00070
E00070
E00070
E00070
1C0380
1C0380
1C0380
03FC00
03FC00
ENDCHAR
STARTCHAR uni01D4
ENCODING 468
SWIDTH 540 0
DWIDTH 29 0
BBX 20 31 3 0
BITMAP
1C0380
1C0380
1C0380
039C00
039C00
006000
006000
006000
000000
000000
000000
E00070
E00070
E00070
E00070
E00070
E00070
E00070
E00070
E00070
E00070
E00070
E00070
E00070
E00070
E00070
E003F0
E003F0
E003F0
1FFC70
1FFC70
ENDCHAR
STARTCHAR uni01D5
ENCODING 469
SWIDTH 540 0
DWIDTH 29 0
BBX 20 40 3 0
BITMAP
1FFF80
1FFF80
1FFF80
000000
000000
000000
039C00
039C00
039C00
039C00
039C00
030C00
E00070
E00070
E00070
E00070
E00070
E00070
E00070
E00070
E00070
E00070
E00070
E00070
E00070
E00070
E00070
E00070
E00070
E00070
E00070
E00070
E00070
E00070
E00070
1C0380
1C0380
1C0380
03FC00
03FC00
ENDCHAR
STARTCHAR uni01D6
ENCODING 470
SWIDTH 540 0
DWIDTH 29 0
BBX 20 34 3 0
BITMAP
1FFF80
1FFF80
1FFF80
000000
000000
000000
039C00
039C00
039C00
039C00
039C00
000000
000000
000000
E00070
E00070
E00070
E00070
E00070
E00070
E00070
E00070
E00070
E00070
E00070
E00070
E00070
E00070
E00070
E003F0
E003F0
E003F0
1FFC70
1FFC70
ENDCHAR
STARTCHAR uni01D7
ENCODING 471
SWIDTH 540 0
DWIDTH 29 0
BBX 20 40 3 0
BITMAP
001C00
001C00
001C00
006000
006000
006000
000000
000000
000000
039C00
039C00
030C00
E00070
E00070
E00070
E00070
E00070
E00070
E00070
E00070
E00070
E00070
E00070
E00070
E00070
E00070
E00070
E00070
E00070
E00070
E00070
E00070
E00070
E00070
E00070
1C0380
1C0380
1C0380
03FC00
03FC00
ENDCHAR
STARTCHAR uni01D8
ENCODING 472
SWIDTH 540 0
DWIDTH 29 0
BBX 20 37 3 0
BITMAP
001C00
001C00
001C00
006000
006000
006000
038000
038000
030000
000000
000000
180C00
1C1C00
1C1C00
000000
000000
000000
E00070
E00070
E00070
E00070
E00070
E00070
E00070
E00070
E00070
E00070
E00070
E00070
E00070
E00070
E00070
E003F0
E003F0
E003F0
1FFC70
1FFC70
ENDCHAR
STARTCHAR uni01D9
ENCODING 473
SWIDTH 540 0
DWIDTH 29 0
BBX 20 40 3 0
BITMAP
039C00
039C00
039C00
006000
006000
006000
000000
000000
000000
039C00
039C00
030C00
E00070
E00070
E00070
E00070
E00070
E00070
E00070
E00070
E00070
E00070
E00070
E00070
E00070
E00070
E00070
E00070
E00070
E00070
E00070
E00070
E00070
E00070
E00070
1C0380
1C0380
1C0380
03FC00
03FC00
ENDCHAR
STARTCHAR uni01DA
ENCODING 474
SWIDTH 540 0
DWIDTH 29 0
BBX 20 34 3 0
BITMAP
1C1C00
1C1C00
1C1C00
03E000
03E000
03E000
000000
000000
180C00
1C1C00
1C1C00
000000
000000
000000
E00070
E00070
E00070
E00070
E00070
E00070
E00070
E00070
E00070
E00070
E00070
E00070
E00070
E00070
E00070
E003F0
E003F0
E003F0
1FFC70
1FFC70
ENDCHAR
STARTCHAR uni01DB
ENCODING 475
SWIDTH 540 0
DWIDTH 29 0
BBX 20 40 3 0
BITMAP
038000
038000
038000
006000
006000
006000
000000
000000
000000
039C00
039C00
030C00
E00070
E00070
E00070
E00070
E00070
E00070
E00070
E00070
E00070
E00070
E00070
E00070
E00070
E00070
E00070
E00070
E00070
E00070
E00070
E00070
E00070
E00070
E00070
1C0380
1C0380
1C0380
03FC00
03FC00
ENDCHAR
STARTCHAR uni01DC
ENCODING 476
SWIDTH 540 0
DWIDTH 29 0
BBX 20 37 3 0
BITMAP
1C0000
1C0000
1C0000
038000
038000
038000
006000
006000
006000
000000
000000
180C00
1C1C00
1C1C00
000000
000000
000000
E00070
E00070
E00070
E00070
E00070
E00070
E00070
E00070
E00070
E00070
E00070
E00070
E00070
E00070
E00070
E003F0
E003F0
E003F0
1FFC70
1FFC70
ENDCHAR
STARTCHAR uni01DD
ENCODING 477
SWIDTH 540 0
DWIDTH 29 0
BBX 20 20 3 0
BITMAP
1FFF80
1FFF80
1FFF80
E00070
E00070
E00070
000070
000070
000070
FFFFF0
FFFFF0
FFFFF0
E00070
E00070
E00070
E00070
E00070
E00070
1FFF80
1FFF80
ENDCHAR
STARTCHAR uni01DE
ENCODING 478
SWIDTH 540 0
DWIDTH 29 0
BBX 20 40 3 0
BITMAP
1FFF80
1FFF80
1FFF80
000000
000000
000000
039C00
039C00
030C00
000000
000000
000000
006000
006000
039C00
039C00
039C00
039C00
039C00
039C00
039C00
039C00
039C00
1C0380
1C0380
1C0380
1FFF80
1FFF80
1FFF80
1C0380
1C0380
1C0380
E00070
E00070
E00070
E00070
E00070
E00070
E00070
E00070
ENDCHAR
STARTCHAR uni01DF
ENCODING 479
SWIDTH 540 0
DWIDTH 29 0
BBX 20 31 3 0
BITMAP
1FFF80
1FFF80
1FFF80
000000
000000
030C00
039C00
039C00
000000
000000
000000
1FFF80
1FFF80
1FFF80
000070
000070
000070
000070
000070
000070
1FFFF0
1FFFF0
1FFFF0
E00070
E00070
E00070
E003F0
E003F0
E003F0
1FFC70
1FFC70
ENDCHAR
STARTCHAR uni01E0
ENCODING 480
SWIDTH 540 0
DWIDTH 29 0
BBX 20 40 3 0
BITMAP
1FFF80
1FFF80
1FFF80
000000
000000
000000
006000
006000
006000
000000
000000
000000
006000
006000
039C00
039C00
039C00
039C00
039C00
039C00
039C00
039C00
039C00
1C0380
1C0380
1C0380
1FFF80
1FFF80
1FFF80
1C0380
1C0380
1C0380
E00070
E00070
E00070
E00070
E00070
E00070
E00070
E00070
ENDCHAR
STARTCHAR uni01E1
ENCODING 481
SWIDTH 540 0
DWIDTH 29 0
BBX 20 31 3 0
BITMAP
1FFF80
1FFF80
1FFF80
000000
000000
006000
006000
006000
000000
000000
000000
1FFF80
1FFF80
1FFF80
000070
000070
000070
000070
000070
000070
1FFFF0
1FFFF0
1FFFF0
E00070
E00070
E00070
E003F0
E003F0
E003F0
1FFC70
1FFC70
ENDCHAR
STARTCHAR uni01E2
ENCODING 482
SWIDTH 540 0
DWIDTH 29 0
BBX 20 34 3 0
BITMAP
03FFF0
03FFF0
03FFF0
000000
000000
000000
007FF0
007FF0
039E00
039C00
039C00
039C00
039C00
039C00
039C00
039C00
039C00
1C1FF0
1C1FF0
1C1FF0
1FFC00
1FFC00
1FFC00
1C1C00
1C1C00
1C1C00
1C1C00
1C1C00
181C00
E01C00
E01C00
E01E00
E01FF0
E01FF0
ENDCHAR
STARTCHAR uni01E3
ENCODING 483
SWIDTH 540 0
DWIDTH 29 0
BBX 20 26 3 0
BITMAP
1FFFF0
1FFFF0
1FFFF0
000000
000000
000000
1F0F80
1F9F80
1F9F80
006070
006070
006070
006070
006070
00F070
1FFFF0
1FFFF0
1FFFF0
E06000
E06000
E06000
E06070
E06070
E06070
1F9F80
1F9F80
ENDCHAR
STARTCHAR uni01E4
ENCODING 484
SWIDTH 540 0
DWIDTH 29 0
BBX 23 28 3 0
BITMAP
03FC00
03FC00
1C0380
1C0380
1C0380
E00070
E00070
E00070
E00000
E00000
E00000
E00000
E00000
E00000
E01FF0
E01FF0
E00FF0
E00070
E00070
E00070
E01FFE
E01FFE
E00FFE
1C0380
1C0380
1C0380
03FC00
03FC00
ENDCHAR
STARTCHAR uni01E5
ENCODING 485
SWIDTH 540 0
DWIDTH 29 0
BBX 26 32 0 -12
BITMAP
03FF8E00
03FF8E00
03FF8E00
1C007000
1C007000
1C007000
1C007000
1C007000
1C007000
1C007000
1C007000
1C007000
03FF8000
03FF8000
03FF8000
1C000000
1C000000
1C000000
03FFF000
03FFF000
1C000E00
1C000E00
1C000E00
FFFFFFC0
FFFFFFC0
FFFFFFC0
1C000E00
1C000E00
1C000E00
03FFF000
03FFF000
03FFF000
ENDCHAR
STARTCHAR Gcaron
ENCODING 486
SWIDTH 540 0
DWIDTH 29 0
BBX 20 40 3 0
BITMAP
1C0380
1C0380
1C0380
039C00
039C00
039C00
006000
006000
006000
000000
000000
000000
03FC00
03FC00
1C0380
1C0380
1C0380
E00070
E00070
E00070
E00000
E00000
E00000
E00000
E00000
E00000
E01FF0
E01FF0
E00FF0
E00070
E00070
E00070
E00070
E00070
E00070
1C0380
1C0380
1C0380
03FC00
03FC00
ENDCHAR
STARTCHAR gcaron
ENCODING 487
SWIDTH 540 0
DWIDTH 29 0
BBX 20 40 3 -9
BITMAP
1C0380
1C0380
1C0380
039C00
039C00
006000
006000
006000
000000
000000
000000
1FFC70
1FFC70
1FFC70
E00380
E00380
E00380
E00380
E00380
E00380
E00380
E00380
E00380
1FFC00
1FFC00
1FFC00
E00000
E00000
E00000
1FFF80
1FFF80
E00070
E00070
E00070
E00070
E00070
E00070
1FFF80
1FFF80
1FFF80
ENDCHAR
STARTCHAR uni01E8
ENCODING 488
SWIDTH 540 0
DWIDTH 29 0
BBX 20 40 3 0
BITMAP
1C0380
1C0380
1C0380
039C00
039C00
039C00
006000
006000
006000
000000
000000
000000
E00070
E00070
E00180
E00380
E00380
E00C00
E01C00
E01C00
E06000
E06000
E06000
E38000
E38000
E38000
FC6000
FC6000
FC6000
E01C00
E01C00
E00C00
E00380
E00380
E00180
E00070
E00070
E00070
E00070
E00070
ENDCHAR
STARTCHAR uni01E9
ENCODING 489
SWIDTH 540 0
DWIDTH 29 0
BBX 20 37 3 0
BITMAP
1C0380
1C0380
1C0380
039C00
039C00
039C00
006000
006000
006000
E00000
E00000
E00000
E00000
E00000
E00000
E00000
E00000
E00380
E00380
E00380
E00C00
E01C00
E01C00
E06000
E06000
E0E000
E3E000
E3E000
E3E000
FC1C00
FC1C00
F80C00
E00380
E00380
E00180
E00070
E00070
ENDCHAR
STARTCHAR uni01EA
ENCODING 490
SWIDTH 540 0
DWIDTH 29 0
BBX 20 37 3 -9
BITMAP
1FFF80
1FFF80
E00070
E00070
E00070
E00070
E00070
E00070
E00070
E00070
E00070
E00070
E00070
E00070
E00070
E00070
E00070
E00070
E00070
E00070
E00070
E00070
E00070
E00070
E00070
E00070
1FFF80
1FFF80
00F000
006000
006000
038000
038000
038000
007C00
007C00
007C00
ENDCHAR
STARTCHAR uni01EB
ENCODING 491
SWIDTH 540 0
DWIDTH 29 0
BBX 20 29 3 -9
BITMAP
1FFF80
1FFF80
1FFF80
E00070
E00070
E00070
E00070
E00070
E00070
E00070
E00070
E00070
E00070
E00070
E00070
E00070
E00070
E00070
1FFF80
1FFF80
00F000
006000
006000
038000
038000
038000
007C00
007C00
007C00
ENDCHAR
STARTCHAR uni01EC
ENCODING 492
SWIDTH 540 0
DWIDTH 29 0
BBX 20 43 3 -9
BITMAP
1FFF80
1FFF80
1FFF80
000000
000000
000000
1FFF80
1FFF80
E00070
E00070
E00070
E00070
E00070
E00070
E00070
E00070
E00070
E00070
E00070
E00070
E00070
E00070
E00070
E00070
E00070
E00070
E00070
E00070
E00070
E00070
E00070
E00070
1FFF80
1FFF80
00F000
006000
006000
038000
038000
038000
007C00
007C00
007C00
ENDCHAR
STARTCHAR uni01ED
ENCODING 493
SWIDTH 540 0
DWIDTH 29 0
BBX 20 35 3 -9
BITMAP
1FFF80
1FFF80
1FFF80
000000
000000
000000
1FFF80
1FFF80
1FFF80
E00070
E00070
E00070
E00070
E00070
E00070
E00070
E00070
E00070
E00070
E00070
E00070
E00070
E00070
E00070
1FFF80
1FFF80
00F000
006000
006000
038000
038000
038000
007C00
007C00
007C00
ENDCHAR
STARTCHAR uni01EE
ENCODING 494
SWIDTH 540 0
DWIDTH 29 0
BBX 17 40 3 0
BITMAP
1C0380
1C0380
1C0380
039C00
039C00
039C00
006000
006000
006000
000000
000000
000000
FFFF80
FFFF80
001E00
001C00
001C00
006000
006000
006000
038000
038000
038000
1FE000
1FE000
1FE000
001C00
001C00
000C00
000380
000380
000380
000380
000380
000380
E01C00
E01C00
E01C00
1FE000
1FE000
ENDCHAR
STARTCHAR uni01EF
ENCODING 495
SWIDTH 540 0
DWIDTH 29 0
BBX 17 40 3 -9
BITMAP
E01C00
E01C00
E01C00
1C6000
1C6000
038000
038000
038000
000000
000000
000000
FFFF80
FFFF80
FFFF80
001C00
001C00
001C00
006000
006000
006000
038000
038000
038000
1FE000
1FE000
1FE000
001C00
001C00
000C00
000380
000380
000380
000380
000380
E00C00
E01C00
E01C00
1FE000
1FE000
1FE000
ENDCHAR
STARTCHAR uni01F0
ENCODING 496
SWIDTH 540 0
DWIDTH 29 0
BBX 17 40 6 -9
BITMAP
030380
030380
030380
00FC00
00FC00
000000
000000
000000
000000
000000
000000
03FC00
03FC00
03FC00
001C00
001C00
001C00
001C00
001C00
001C00
001C00
001C00
001C00
001C00
001C00
001C00
001C00
001C00
001C00
001C00
001C00
C01C00
E01C00
E01C00
E01C00
E01C00
E01C00
1FE000
1FE000
1FE000
ENDCHAR
STARTCHAR uni01F1
ENCODING 497
SWIDTH 540 0
DWIDTH 29 0
BBX 20 28 3 0
BITMAP
FF9FF0
FF9FF0
E78070
E38070
E38070
E06070
E06070
E06070
E06070
E06070
E06070
E06380
E06380
E06380
E06380
E06380
E07380
E07C00
E07C00
E07C00
E07C00
E07C00
E07C00
E39C00
E39C00
E31E00
FC1FF0
FC1FF0
ENDCHAR
STARTCHAR uni01F2
ENCODING 498
SWIDTH 540 0
DWIDTH 29 0
BBX 20 28 3 0
BITMAP
FF8000
FF8000
E78000
E38000
E38000
E06000
E06000
E06000
E07FF0
E07FF0
E07FF0
E07070
E06070
E06070
E06070
E06070
E06070
E06380
E06380
E07380
E07C00
E07C00
E07C00
E39C00
E39C00
E31E00
FC1FF0
FC1FF0
ENDCHAR
STARTCHAR uni01F3
ENCODING 499
SWIDTH 540 0
DWIDTH 29 0
BBX 20 31 3 0
BITMAP
006000
006000
006000
006000
006000
006000
006000
006000
006000
006000
006000
1FFFF0
1FFFF0
1FFFF0
E0F070
E06070
E06070
E06070
E06070
E06070
E06380
E06380
E07380
E07C00
E07C00
E07C00
E07C00
E07C00
E0FE00
1FFFF0
1FFFF0
ENDCHAR
STARTCHAR uni01F4
ENCODING 500
SWIDTH 540 0
DWIDTH 29 0
BBX 20 40 3 0
BITMAP
001C00
001C00
001C00
006000
006000
006000
038000
038000
030000
000000
000000
000000
03FC00
03FC00
1C0380
1C0380
1C0380
E00070
E00070
E00070
E00000
E00000
E00000
E00000
E00000
E00000
E01FF0
E01FF0
E00FF0
E00070
E00070
E00070
E00070
E00070
E00070
1C0380
1C0380
1C0380
03FC00
03FC00
ENDCHAR
STARTCHAR uni01F5
ENCODING 501
SWIDTH 540 0
DWIDTH 29 0
BBX 20 40 3 -9
BITMAP
001C00
001C00
001C00
006000
006000
038000
038000
038000
000000
000000
000000
1FFC70
1FFC70
1FFC70
E00380
E00380
E00380
E00380
E00380
E00380
E00380
E00380
E00380
1FFC00
1FFC00
1FFC00
E00000
E00000
E00000
1FFF80
1FFF80
E00070
E00070
E00070
E00070
E00070
E00070
1FFF80
1FFF80
1FFF80
ENDCHAR
STARTCHAR uni01F6
ENCODING 502
SWIDTH 540 0
DWIDTH 29 0
BBX 20 28 3 0
BITMAP
E06000
E06000
E06000
E06000
E06000
E06000
E06000
E06000
E06000
E06000
E06000
FFE070
FFE070
FFE070
E06070
E06070
E06070
E06070
E06070
E06070
E06070
E06070
E06070
E06070
E06070
E06070
E01F80
E01F80
ENDCHAR
STARTCHAR uni01F7
ENCODING 503
SWIDTH 540 0
DWIDTH 29 0
BBX 17 28 3 0
BITMAP
E3FC00
E3FC00
FC0380
FC0380
FC0380
E00380
E00380
E00380
E00C00
E01C00
E01C00
E06000
E06000
E06000
E38000
E38000
E30000
FC0000
FC0000
FC0000
E00000
E00000
E00000
E00000
E00000
E00000
E00000
E00000
ENDCHAR
STARTCHAR uni01F8
ENCODING 504
SWIDTH 540 0
DWIDTH 29 0
BBX 20 40 3 0
BITMAP
038000
038000
038000
006000
006000
006000
001C00
001C00
000C00
000000
000000
000000
E00070
E00070
E00070
E00070
E00070
F80070
FC0070
FC0070
E30070
E38070
E38070
E06070
E06070
E06070
E01C70
E01C70
E00C70
E003F0
E003F0
E003F0
E00070
E00070
E00070
E00070
E00070
E00070
E00070
E00070
ENDCHAR
STARTCHAR uni01F9
ENCODING 505
SWIDTH 540 0
DWIDTH 29 0
BBX 20 31 3 0
BITMAP
038000
038000
038000
006000
006000
001C00
001C00
001C00
000000
000000
000000
E3FF80
E3FF80
E3FF80
FC0070
FC0070
FC0070
E00070
E00070
E00070
E00070
E00070
E00070
E00070
E00070
E00070
E00070
E00070
E00070
E00070
E00070
ENDCHAR
STARTCHAR Aringacute
ENCODING 506
SWIDTH 540 0
DWIDTH 29 0
BBX 20 40 3 0
BITMAP
001C00
001C00
001C00
006000
006000
006000
038000
038000
038000
006000
006000
006000
039C00
039C00
006000
006000
006000
039C00
039C00
039C00
039C00
039C00
039C00
1C0380
1C0380
1C0380
1C0380
1C0380
1C0380
1FFF80
1FFF80
1FFF80
E00070
E00070
E00070
E00070
E00070
E00070
E00070
E00070
ENDCHAR
STARTCHAR aringacute
ENCODING 507
SWIDTH 540 0
DWIDTH 29 0
BBX 20 40 3 0
BITMAP
001C00
001C00
001C00
006000
006000
006000
038000
038000
030000
000000
000000
000000
03FC00
03FC00
1C0380
1C0380
1C0380
03FC00
03FC00
03FC00
1FFF80
1FFF80
1FFF80
000070
000070
000070
000070
000070
000070
1FFFF0
1FFFF0
1FFFF0
E00070
E00070
E00070
E003F0
E003F0
E003F0
1FFC70
1FFC70
ENDCHAR
STARTCHAR AEacute
ENCODING 508
SWIDTH 540 0
DWIDTH 29 0
BBX 20 40 3 0
BITMAP
000380
000380
000380
001C00
001C00
001C00
006000
006000
006000
000000
000000
000000
007FF0
007FF0
039E00
039C00
039C00
039C00
039C00
039C00
039C00
039C00
039C00
1C1FF0
1C1FF0
1C1FF0
1FFC00
1FFC00
1FFC00
1C1C00
1C1C00
1C1C00
E01C00
E01C00
E01C00
E01C00
E01C00
E01E00
E01FF0
E01FF0
ENDCHAR
STARTCHAR aeacute
ENCODING 509
SWIDTH 540 0
DWIDTH 29 0
BBX 20 31 3 0
BITMAP
000380
000380
000380
001C00
001C00
006000
006000
006000
000000
000000
000000
1F0F80
1F9F80
1F9F80
006070
006070
006070
006070
006070
00F070
1FFFF0
1FFFF0
1FFFF0
E06000
E06000
E06000
E06070
E06070
E06070
1F9F80
1F9F80
ENDCHAR
STARTCHAR Oslashacute
ENCODING 510
SWIDTH 540 0
DWIDTH 29 0
BBX 20 43 3 -3
BITMAP
001C00
001C00
001C00
006000
006000
006000
038000
038000
030000
000070
000070
000070
1FFF80
1FFF80
E003F0
E003F0
E003F0
E00C70
E01C70
E01C70
E01C70
E01C70
E01C70
E06070
E06070
E06070
E06070
E06070
E06070
E38070
E38070
E38070
E38070
E38070
E30070
FC0070
FC0070
FC0070
1FFF80
1FFF80
E00000
E00000
E00000
ENDCHAR
STARTCHAR oslashacute
ENCODING 511
SWIDTH 540 0
DWIDTH 29 0
BBX 20 34 3 -3
BITMAP
001C00
001C00
001C00
006000
006000
038000
038000
038000
000070
000070
000070
1FFF80
1FFF80
1FFF80
E01C70
E01C70
E01C70
E01C70
E01C70
E01C70
E06070
E06070
E06070
E38070
E38070
E38070
E38070
E38070
E78070
1FFF80
1FFF80
E00000
E00000
E00000
ENDCHAR
STARTCHAR uni0200
ENCODING 512
SWIDTH 540 0
DWIDTH 29 0
BBX 20 40 3 0
BITMAP
E01C00
E01C00
E00C00
1C0380
1C0380
1C0380
038070
038070
030070
000000
000000
000000
006000
006000
039C00
039C00
039C00
039C00
039C00
039C00
039C00
039C00
039C00
1C0380
1C0380
1C0380
1FFF80
1FFF80
1FFF80
1C0380
1C0380
1C0380
E00070
E00070
E00070
E00070
E00070
E00070
E00070
E00070
ENDCHAR
STARTCHAR uni0201
ENCODING 513
SWIDTH 540 0
DWIDTH 29 0
BBX 20 31 3 0
BITMAP
E01C00
E01C00
E00C00
1C0380
1C0380
030070
038070
038070
000000
000000
000000
1FFF80
1FFF80
1FFF80
000070
000070
000070
000070
000070
000070
1FFFF0
1FFFF0
1FFFF0
E00070
E00070
E00070
E003F0
E003F0
E003F0
1FFC70
1FFC70
ENDCHAR
STARTCHAR uni0202
ENCODING 514
SWIDTH 540 0
DWIDTH 29 0
BBX 20 37 3 0
BITMAP
03FC00
03FC00
03FC00
1C0380
1C0380
180180
000000
000000
000000
006000
006000
039C00
039C00
039C00
039C00
039C00
039C00
039C00
039C00
039C00
1C0380
1C0380
1C0380
1FFF80
1FFF80
1FFF80
1C0380
1C0380
1C0380
E00070
E00070
E00070
E00070
E00070
E00070
E00070
E00070
ENDCHAR
STARTCHAR uni0203
ENCODING 515
SWIDTH 540 0
DWIDTH 29 0
BBX 20 28 3 0
BITMAP
03FC00
03FC00
1C0380
1C0380
1C0380
000000
000000
000000
1FFF80
1FFF80
1FFF80
000070
000070
000070
000070
000070
000070
1FFFF0
1FFFF0
1FFFF0
E00070
E00070
E00070
E003F0
E003F0
E003F0
1FFC70
1FFC70
ENDCHAR
STARTCHAR uni0204
ENCODING 516
SWIDTH 540 0
DWIDTH 29 0
BBX 20 40 3 0
BITMAP
E01C00
E01C00
E00C00
1C0380
1C0380
1C0380
038070
038070
030070
000000
000000
000000
FFFFF0
FFFFF0
E00000
E00000
E00000
E00000
E00000
E00000
E00000
E00000
E00000
FFFC00
FFFC00
FFFC00
E00000
E00000
E00000
E00000
E00000
E00000
E00000
E00000
E00000
E00000
E00000
E00000
FFFFF0
FFFFF0
ENDCHAR
STARTCHAR uni0205
ENCODING 517
SWIDTH 540 0
DWIDTH 29 0
BBX 20 31 3 0
BITMAP
E01C00
E01C00
E00C00
1C0380
1C0380
030070
038070
038070
000000
000000
000000
1FFF80
1FFF80
1FFF80
E00070
E00070
E00070
E00070
E00070
E00070
FFFFF0
FFFFF0
FFFFF0
E00000
E00000
E00000
E00070
E00070
E00070
1FFF80
1FFF80
ENDCHAR
STARTCHAR uni0206
ENCODING 518
SWIDTH 540 0
DWIDTH 29 0
BBX 20 37 3 0
BITMAP
03FC00
03FC00
03FC00
1C0380
1C0380
180180
000000
000000
000000
FFFFF0
FFFFF0
E00000
E00000
E00000
E00000
E00000
E00000
E00000
E00000
E00000
FFFC00
FFFC00
FFFC00
E00000
E00000
E00000
E00000
E00000
E00000
E00000
E00000
E00000
E00000
E00000
E00000
FFFFF0
FFFFF0
ENDCHAR
STARTCHAR uni0207
ENCODING 519
SWIDTH 540 0
DWIDTH 29 0
BBX 20 28 3 0
BITMAP
03FC00
03FC00
1C0380
1C0380
1C0380
000000
000000
000000
1FFF80
1FFF80
1FFF80
E00070
E00070
E00070
E00070
E00070
E00070
FFFFF0
FFFFF0
FFFFF0
E00000
E00000
E00000
E00070
E00070
E00070
1FFF80
1FFF80
ENDCHAR
STARTCHAR uni0208
ENCODING 520
SWIDTH 540 0
DWIDTH 29 0
BBX 17 40 3 0
BITMAP
E06000
E06000
E06000
1C1C00
1C1C00
1C0C00
038380
038380
030180
000000
000000
000000
1FFF80
1FFF80
00F000
006000
006000
006000
006000
006000
006000
006000
006000
006000
006000
006000
006000
006000
006000
006000
006000
006000
006000
006000
006000
006000
006000
00F000
1FFF80
1FFF80
ENDCHAR
STARTCHAR uni0209
ENCODING 521
SWIDTH 540 0
DWIDTH 29 0
BBX 17 31 3 0
BITMAP
E06000
E06000
E06000
1C1C00
1C1C00
030380
038380
038380
000000
000000
000000
1FE000
1FE000
1FE000
00E000
006000
006000
006000
006000
006000
006000
006000
006000
006000
006000
006000
006000
006000
00F000
1FFF80
1FFF80
ENDCHAR
STARTCHAR uni020A
ENCODING 522
SWIDTH 540 0
DWIDTH 29 0
BBX 14 37 6 0
BITMAP
1FE0
1FE0
1FE0
E01C
E01C
C00C
0000
0000
0000
FFFC
FFFC
0780
0300
0300
0300
0300
0300
0300
0300
0300
0300
0300
0300
0300
0300
0300
0300
0300
0300
0300
0300
0300
0300
0300
0780
FFFC
FFFC
ENDCHAR
STARTCHAR uni020B
ENCODING 523
SWIDTH 540 0
DWIDTH 29 0
BBX 14 28 6 0
BITMAP
1FE0
1FE0
E01C
E01C
E01C
0000
0000
0000
FF00
FF00
FF00
0700
0300
0300
0300
0300
0300
0300
0300
0300
0300
0300
0300
0300
0300
0780
FFFC
FFFC
ENDCHAR
STARTCHAR uni020C
ENCODING 524
SWIDTH 540 0
DWIDTH 29 0
BBX 20 40 3 0
BITMAP
E06000
E06000
E06000
1C1C00
1C1C00
1C0C00
038380
038380
030180
000000
000000
000000
1FFF80
1FFF80
E00070
E00070
E00070
E00070
E00070
E00070
E00070
E00070
E00070
E00070
E00070
E00070
E00070
E00070
E00070
E00070
E00070
E00070
E00070
E00070
E00070
E00070
E00070
E00070
1FFF80
1FFF80
ENDCHAR
STARTCHAR uni020D
ENCODING 525
SWIDTH 540 0
DWIDTH 29 0
BBX 20 31 3 0
BITMAP
E06000
E06000
E06000
1C1C00
1C1C00
030380
038380
038380
000000
000000
000000
1FFF80
1FFF80
1FFF80
E00070
E00070
E00070
E00070
E00070
E00070
E00070
E00070
E00070
E00070
E00070
E00070
E00070
E00070
E00070
1FFF80
1FFF80
ENDCHAR
STARTCHAR uni020E
ENCODING 526
SWIDTH 540 0
DWIDTH 29 0
BBX 20 37 3 0
BITMAP
03FC00
03FC00
03FC00
1C0380
1C0380
180180
000000
000000
000000
1FFF80
1FFF80
E00070
E00070
E00070
E00070
E00070
E00070
E00070
E00070
E00070
E00070
E00070
E00070
E00070
E00070
E00070
E00070
E00070
E00070
E00070
E00070
E00070
E00070
E00070
E00070
1FFF80
1FFF80
ENDCHAR
STARTCHAR uni020F
ENCODING 527
SWIDTH 540 0
DWIDTH 29 0
BBX 20 28 3 0
BITMAP
03FC00
03FC00
1C0380
1C0380
1C0380
000000
000000
000000
1FFF80
1FFF80
1FFF80
E00070
E00070
E00070
E00070
E00070
E00070
E00070
E00070
E00070
E00070
E00070
E00070
E00070
E00070
E00070
1FFF80
1FFF80
ENDCHAR
STARTCHAR uni0210
ENCODING 528
SWIDTH 540 0
DWIDTH 29 0
BBX 20 40 3 0
BITMAP
E06000
E06000
E06000
1C1C00
1C1C00
1C0C00
038380
038380
030180
000000
000000
000000
FFFC00
FFFC00
E00380
E00380
E00380
E00070
E00070
E00070
E00070
E00070
E00070
E00380
E00380
E00380
FFFC00
FFFC00
FFFC00
E06000
E06000
E06000
E01C00
E01C00
E00C00
E00380
E00380
E00180
E00070
E00070
ENDCHAR
STARTCHAR uni0211
ENCODING 529
SWIDTH 540 0
DWIDTH 29 0
BBX 20 31 3 0
BITMAP
E06000
E06000
E06000
1C1C00
1C1C00
030380
038380
038380
000000
000000
000000
E07F80
E07F80
E07F80
1F8070
1F8070
1F8070
1C0070
1C0070
1C0070
1C0000
1C0000
1C0000
1C0000
1C0000
1C0000
1C0000
1C0000
1C0000
1C0000
1C0000
ENDCHAR
STARTCHAR uni0212
ENCODING 530
SWIDTH 540 0
DWIDTH 29 0
BBX 20 37 3 0
BITMAP
03FC00
03FC00
03FC00
1C0380
1C0380
180180
000000
000000
000000
FFFC00
FFFC00
E00380
E00380
E00380
E00070
E00070
E00070
E00070
E00070
E00070
E00380
E00380
E00380
FFFC00
FFFC00
FFFC00
E06000
E06000
E06000
E01C00
E01C00
E00C00
E00380
E00380
E00180
E00070
E00070
ENDCHAR
STARTCHAR uni0213
ENCODING 531
SWIDTH 540 0
DWIDTH 29 0
BBX 20 28 3 0
BITMAP
03FC00
03FC00
1C0380
1C0380
1C0380
000000
000000
000000
E07F80
E07F80
E07F80
1F8070
1F8070
1F8070
1C0070
1C0070
1C0070
1C0000
1C0000
1C0000
1C0000
1C0000
1C0000
1C0000
1C0000
1C0000
1C0000
1C0000
ENDCHAR
STARTCHAR uni0214
ENCODING 532
SWIDTH 540 0
DWIDTH 29 0
BBX 20 40 3 0
BITMAP
E01C00
E01C00
E00C00
1C0380
1C0380
1C0380
038070
038070
030070
000000
000000
000000
E00070
E00070
E00070
E00070
E00070
E00070
E00070
E00070
E00070
E00070
E00070
E00070
E00070
E00070
E00070
E00070
E00070
E00070
E00070
E00070
E00070
E00070
E00070
1C0380
1C0380
1C0380
03FC00
03FC00
ENDCHAR
STARTCHAR uni0215
ENCODING 533
SWIDTH 540 0
DWIDTH 29 0
BBX 20 31 3 0
BITMAP
E06000
E06000
E06000
1C1C00
1C1C00
030380
038380
038380
000000
000000
000000
E00070
E00070
E00070
E00070
E00070
E00070
E00070
E00070
E00070
E00070
E00070
E00070
E00070
E00070
E00070
E003F0
E003F0
E003F0
1FFC70
1FFC70
ENDCHAR
STARTCHAR uni0216
ENCODING 534
SWIDTH 540 0
DWIDTH 29 0
BBX 20 37 3 0
BITMAP
03FC00
03FC00
03FC00
1C0380
1C0380
180180
000000
000000
000000
E00070
E00070
E00070
E00070
E00070
E00070
E00070
E00070
E00070
E00070
E00070
E00070
E00070
E00070
E00070
E00070
E00070
E00070
E00070
E00070
E00070
E00070
E00070
1C0380
1C0380
1C0380
03FC00
03FC00
ENDCHAR
STARTCHAR uni0217
ENCODING 535
SWIDTH 540 0
DWIDTH 29 0
BBX 20 28 3 0
BITMAP
03FC00
03FC00
1C0380
1C0380
1C0380
000000
000000
000000
E00070
E00070
E00070
E00070
E00070
E00070
E00070
E00070
E00070
E00070
E00070
E00070
E00070
E00070
E00070
E003F0
E003F0
E003F0
1FFC70
1FFC70
ENDCHAR
STARTCHAR Scommaaccent
ENCODING 536
SWIDTH 540 0
DWIDTH 29 0
BBX 20 37 3 -9
BITMAP
1FFF80
1FFF80
E00070
E00070
E00070
E00070
E00070
E00070
E00000
E00000
E00000
1FFF80
1FFF80
1FFF80
000070
000070
000070
000070
000070
000070
E00070
E00070
E00070
E00070
E00070
E00070
1FFF80
1FFF80
00FE00
007C00
007C00
001C00
001C00
001C00
006000
006000
006000
ENDCHAR
STARTCHAR scommaaccent
ENCODING 537
SWIDTH 540 0
DWIDTH 29 0
BBX 20 29 3 -9
BITMAP
1FFF80
1FFF80
1FFF80
E00070
E00070
E00070
E00000
E00000
E00000
1FFF80
1FFF80
1FFF80
000070
000070
000070
E00070
E00070
E00070
1FFF80
1FFF80
00FE00
007C00
007C00
001C00
001C00
001C00
006000
006000
006000
ENDCHAR
STARTCHAR Tcommaaccent
ENCODING 538
SWIDTH 540 0
DWIDTH 29 0
BBX 20 37 3 -9
BITMAP
FFFFF0
FFFFF0
00F000
006000
006000
006000
006000
006000
006000
006000
006000
006000
006000
006000
006000
006000
006000
006000
006000
006000
006000
006000
006000
006000
006000
006000
006000
006000
007C00
007C00
007C00
001C00
001C00
001C00
006000
006000
006000
ENDCHAR
STARTCHAR tcommaaccent
ENCODING 539
SWIDTH 540 0
DWIDTH 29 0
BBX 20 35 3 -9
BITMAP
030000
038000
038000
038000
038000
038000
FFFF80
FFFF80
FFFF80
038000
038000
038000
038000
038000
038000
038000
038000
038000
038000
038000
038000
038070
038070
038070
007F80
007F80
007E00
007C00
007C00
001C00
001C00
001C00
006000
006000
006000
ENDCHAR
STARTCHAR uni021C
ENCODING 540
SWIDTH 540 0
DWIDTH 29 0
BBX 17 28 3 0
BITMAP
1FE000
1FE000
E01C00
E01C00
E01C00
000380
000380
000380
000380
000380
000380
000C00
001C00
001C00
006380
006380
006380
038380
038380
030380
000380
000380
000380
001C00
001C00
001C00
FFE000
FFE000
ENDCHAR
STARTCHAR uni021D
ENCODING 541
SWIDTH 540 0
DWIDTH 29 0
BBX 17 29 3 -9
BITMAP
1FE000
1FE000
1FE000
E01C00
E01C00
E01C00
000380
000380
000380
000380
000380
000380
001C00
001C00
001C00
006380
006380
006380
038380
038380
000380
000380
000380
000C00
001C00
001C00
FFE000
FFE000
FFE000
ENDCHAR
STARTCHAR uni021E
ENCODING 542
SWIDTH 540 0
DWIDTH 29 0
BBX 20 37 3 0
BITMAP
1C0380
1C0380
1C0380
039C00
039C00
039C00
006000
006000
006000
E00070
E00070
E00070
E00070
E00070
E00070
E00070
E00070
E00070
E00070
E00070
FFFFF0
FFFFF0
FFFFF0
E00070
E00070
E00070
E00070
E00070
E00070
E00070
E00070
E00070
E00070
E00070
E00070
E00070
E00070
ENDCHAR
STARTCHAR uni021F
ENCODING 543
SWIDTH 540 0
DWIDTH 29 0
BBX 20 37 3 0
BITMAP
1C0380
1C0380
1C0380
039C00
039C00
039C00
006000
006000
006000
E00000
E00000
E00000
E00000
E00000
E00000
E00000
E00000
E3FF80
E3FF80
E3FF80
FC0070
FC0070
FC0070
E00070
E00070
E00070
E00070
E00070
E00070
E00070
E00070
E00070
E00070
E00070
E00070
E00070
E00070
ENDCHAR
STARTCHAR uni0220
ENCODING 544
SWIDTH 540 0
DWIDTH 29 0
BBX 20 37 3 -9
BITMAP
E3FF80
E3FF80
FC0070
FC0070
FC0070
E00070
E00070
E00070
E00070
E00070
E00070
E00070
E00070
E00070
E00070
E00070
E00070
E00070
E00070
E00070
E00070
E00070
E00070
E00070
E00070
E00070
E00070
E00070
000070
000070
000070
000070
000070
000070
000070
000070
000070
ENDCHAR
STARTCHAR uni0222
ENCODING 546
SWIDTH 540 0
DWIDTH 29 0
BBX 20 28 3 0
BITMAP
1C0380
1C0380
E00070
E00070
E00070
E00070
E00070
E00070
E00070
E00070
E00070
1FFF80
1FFF80
1FFF80
E00070
E00070
E00070
E00070
E00070
E00070
E00070
E00070
E00070
E00070
E00070
E00070
1FFF80
1FFF80
ENDCHAR
STARTCHAR uni0223
ENCODING 547
SWIDTH 540 0
DWIDTH 29 0
BBX 20 23 3 0
BITMAP
180180
1C0380
1C0380
E00070
E00070
E00070
E00070
E00070
E00070
1FFF80
1FFF80
1FFF80
E00070
E00070
E00070
E00070
E00070
E00070
E00070
E00070
E00070
1FFF80
1FFF80
ENDCHAR
STARTCHAR uni0224
ENCODING 548
SWIDTH 540 0
DWIDTH 29 0
BBX 20 37 3 -9
BITMAP
FFFFF0
FFFFF0
000070
000070
000070
000180
000380
000380
000C00
001C00
001C00
006000
006000
006000
038000
038000
030000
1C0000
1C0000
1C0000
E00000
E00000
E00000
E00000
E00000
E00000
FFFFF0
FFFFF0
000070
000070
000070
000070
000070
000070
000F80
001F80
001F80
ENDCHAR
STARTCHAR uni0225
ENCODING 549
SWIDTH 540 0
DWIDTH 29 0
BBX 20 29 3 -9
BITMAP
FFFFF0
FFFFF0
FFFFF0
000380
000380
000380
001C00
001C00
001C00
006000
006000
006000
038000
038000
030000
1C0000
1C0000
3C0000
FFFFF0
FFFFF0
000070
000070
000070
000070
000070
000070
000F80
001F80
001F80
ENDCHAR
STARTCHAR uni0226
ENCODING 550
SWIDTH 540 0
DWIDTH 29 0
BBX 20 37 3 0
BITMAP
006000
006000
006000
006000
006000
006000
000000
000000
000000
006000
006000
039C00
039C00
039C00
039C00
039C00
039C00
039C00
039C00
039C00
1C0380
1C0380
1C0380
1FFF80
1FFF80
1FFF80
1C0380
1C0380
1C0380
E00070
E00070
E00070
E00070
E00070
E00070
E00070
E00070
ENDCHAR
STARTCHAR uni0227
ENCODING 551
SWIDTH 540 0
DWIDTH 29 0
BBX 20 28 3 0
BITMAP
006000
006000
006000
006000
006000
000000
000000
000000
1FFF80
1FFF80
1FFF80
000070
000070
000070
000070
000070
000070
1FFFF0
1FFFF0
1FFFF0
E00070
E00070
E00070
E003F0
E003F0
E003F0
1FFC70
1FFC70
ENDCHAR
STARTCHAR uni0228
ENCODING 552
SWIDTH 540 0
DWIDTH 29 0
BBX 20 37 3 -9
BITMAP
FFFFF0
FFFFF0
E00000
E00000
E00000
E00000
E00000
E00000
E00000
E00000
E00000
FFFC00
FFFC00
FFFC00
E00000
E00000
E00000
E00000
E00000
E00000
E00000
E00000
E00000
E00000
E00000
E00000
FFFFF0
FFFFF0
000070
000070
000070
000070
000070
000070
000F80
001F80
001F80
ENDCHAR
STARTCHAR uni0229
ENCODING 553
SWIDTH 540 0
DWIDTH 29 0
BBX 20 29 3 -9
BITMAP
1FFF80
1FFF80
1FFF80
E00070
E00070
E00070
E00070
E00070
E00070
FFFFF0
FFFFF0
FFFFF0
E00000
E00000
E00000
E00070
E00070
E00070
1FFF80
1FFF80
000380
000380
000380
000380
000380
000380
007C00
007C00
007C00
ENDCHAR
STARTCHAR uni022A
ENCODING 554
SWIDTH 540 0
DWIDTH 29 0
BBX 20 40 3 0
BITMAP
1FFF80
1FFF80
1FFF80
000000
000000
000000
039C00
039C00
030C00
000000
000000
000000
1FFF80
1FFF80
E00070
E00070
E00070
E00070
E00070
E00070
E00070
E00070
E00070
E00070
E00070
E00070
E00070
E00070
E00070
E00070
E00070
E00070
E00070
E00070
E00070
E00070
E00070
E00070
1FFF80
1FFF80
ENDCHAR
STARTCHAR uni022B
ENCODING 555
SWIDTH 540 0
DWIDTH 29 0
BBX 20 31 3 0
BITMAP
1FFF80
1FFF80
1FFF80
000000
000000
030C00
039C00
039C00
000000
000000
000000
1FFF80
1FFF80
1FFF80
E00070
E00070
E00070
E00070
E00070
E00070
E00070
E00070
E00070
E00070
E00070
E00070
E00070
E00070
E00070
1FFF80
1FFF80
ENDCHAR
STARTCHAR uni022C
ENCODING 556
SWIDTH 540 0
DWIDTH 29 0
BBX 20 40 3 0
BITMAP
1FFF80
1FFF80
1FFF80
000000
000000
000000
03E380
03E380
03F380
1C7C00
1C7C00
187C00
000000
000000
1FFF80
1FFF80
1FFF80
E00070
E00070
E00070
E00070
E00070
E00070
E00070
E00070
E00070
E00070
E00070
E00070
E00070
E00070
E00070
E00070
E00070
E00070
E00070
E00070
E00070
1FFF80
1FFF80
ENDCHAR
STARTCHAR uni022D
ENCODING 557
SWIDTH 540 0
DWIDTH 29 0
BBX 20 34 3 0
BITMAP
1FFF80
1FFF80
1FFF80
000000
000000
000000
03E380
03E380
1CFC00
1C7C00
1C7C00
000000
000000
000000
1FFF80
1FFF80
1FFF80
E00070
E00070
E00070
E00070
E00070
E00070
E00070
E00070
E00070
E00070
E00070
E00070
E00070
E00070
E00070
1FFF80
1FFF80
ENDCHAR
STARTCHAR uni022E
ENCODING 558
SWIDTH 540 0
DWIDTH 29 0
BBX 20 37 3 0
BITMAP
006000
006000
006000
006000
006000
006000
000000
000000
000000
1FFF80
1FFF80
E00070
E00070
E00070
E00070
E00070
E00070
E00070
E00070
E00070
E00070
E00070
E00070
E00070
E00070
E00070
E00070
E00070
E00070
E00070
E00070
E00070
E00070
E00070
E00070
1FFF80
1FFF80
ENDCHAR
STARTCHAR uni022F
ENCODING 559
SWIDTH 540 0
DWIDTH 29 0
BBX 20 28 3 0
BITMAP
006000
006000
006000
006000
006000
000000
000000
000000
1FFF80
1FFF80
1FFF80
E00070
E00070
E00070
E00070
E00070
E00070
E00070
E00070
E00070
E00070
E00070
E00070
E00070
E00070
E00070
1FFF80
1FFF80
ENDCHAR
STARTCHAR uni0230
ENCODING 560
SWIDTH 540 0
DWIDTH 29 0
BBX 20 40 3 0
BITMAP
1FFF80
1FFF80
1FFF80
000000
000000
000000
006000
006000
006000
000000
000000
000000
1FFF80
1FFF80
E00070
E00070
E00070
E00070
E00070
E00070
E00070
E00070
E00070
E00070
E00070
E00070
E00070
E00070
E00070
E00070
E00070
E00070
E00070
E00070
E00070
E00070
E00070
E00070
1FFF80
1FFF80
ENDCHAR
STARTCHAR uni0231
ENCODING 561
SWIDTH 540 0
DWIDTH 29 0
BBX 20 34 3 0
BITMAP
1FFF80
1FFF80
1FFF80
000000
000000
000000
006000
006000
006000
006000
006000
000000
000000
000000
1FFF80
1FFF80
1FFF80
E00070
E00070
E00070
E00070
E00070
E00070
E00070
E00070
E00070
E00070
E00070
E00070
E00070
E00070
E00070
1FFF80
1FFF80
ENDCHAR
STARTCHAR uni0232
ENCODING 562
SWIDTH 540 0
DWIDTH 29 0
BBX 20 34 3 0
BITMAP
1FFF80
1FFF80
1FFF80
000000
000000
000000
E00070
E00070
E00070
E00070
E00070
180180
1C0380
1C0380
030C00
039C00
039C00
006000
006000
006000
006000
006000
006000
006000
006000
006000
006000
006000
006000
006000
006000
006000
006000
006000
ENDCHAR
STARTCHAR uni0233
ENCODING 563
SWIDTH 540 0
DWIDTH 29 0
BBX 20 35 3 -9
BITMAP
03FFF0
03FFF0
03FFF0
000000
000000
000000
1C0070
1C0070
1C0070
1C0070
1C0070
1C0070
038380
038380
038380
038380
038380
038380
038380
038380
038380
007C00
007C00
007C00
007C00
007C00
007000
006000
006000
E06000
E06000
E06000
1F8000
1F8000
1F8000
ENDCHAR
STARTCHAR uni0250
ENCODING 592
SWIDTH 540 0
DWIDTH 29 0
BBX 20 20 3 0
BITMAP
E3FF80
E3FF80
E3FF80
FC0070
FC0070
FC0070
E00070
E00070
E00070
FFFF80
FFFF80
FFFF80
E00000
E00000
E00000
E00000
E00000
E00000
1FFF80
1FFF80
ENDCHAR
STARTCHAR uni0251
ENCODING 593
SWIDTH 540 0
DWIDTH 29 0
BBX 20 20 3 0
BITMAP
1FFC70
1FFC70
1FFC70
E003F0
E003F0
E003F0
E00070
E00070
E00070
E00070
E00070
E00070
E00070
E00070
E00070
E003F0
E003F0
E003F0
1FFC70
1FFC70
ENDCHAR
STARTCHAR uni0252
ENCODING 594
SWIDTH 540 0
DWIDTH 29 0
BBX 20 20 3 0
BITMAP
E3FF80
E3FF80
E3FF80
FC0070
FC0070
FC0070
E00070
E00070
E00070
E00070
E00070
E00070
E00070
E00070
E00070
FC0070
FC0070
FC0070
E3FF80
E3FF80
ENDCHAR
STARTCHAR uni0253
ENCODING 595
SWIDTH 540 0
DWIDTH 29 0
BBX 20 31 3 0
BITMAP
1FFC00
1FFC00
1FFC00
E00380
E00380
E00000
E00000
E00000
E00000
E00000
E00000
E3FC00
E3FC00
E3FC00
FC0380
FC0380
FC0380
E00070
E00070
E00070
E00070
E00070
E00070
E00070
E00070
E00070
FC0380
FC0380
FC0380
E3FC00
E3FC00
ENDCHAR
STARTCHAR uni0254
ENCODING 596
SWIDTH 540 0
DWIDTH 29 0
BBX 20 20 3 0
BITMAP
1FFF80
1FFF80
1FFF80
E00070
E00070
E00070
000070
000070
000070
000070
000070
000070
000070
000070
000070
E00070
E00070
E00070
1FFF80
1FFF80
ENDCHAR
STARTCHAR uni0255
ENCODING 597
SWIDTH 540 0
DWIDTH 29 0
BBX 20 23 3 -3
BITMAP
1FFF80
1FFF80
1FFF80
E00070
E00070
E00070
E00000
E00000
E00000
E00000
E00000
E00000
E01F80
E01F80
E01F80
E06070
E06070
E0F070
1FFF80
1FFF80
078000
038000
038000
ENDCHAR
STARTCHAR uni0256
ENCODING 598
SWIDTH 540 0
DWIDTH 29 0
BBX 23 31 3 -3
BITMAP
000380
000380
000380
000380
000380
000380
000380
000380
1FE380
1FE380
1FE380
E01F80
E01F80
E01F80
E00380
E00380
E00380
E00380
E00380
E00380
E00380
E00380
E00380
E01F80
E01F80
E01F80
1FE380
1FE380
00007E
00007E
00007E
ENDCHAR
STARTCHAR uni0257
ENCODING 599
SWIDTH 540 0
DWIDTH 29 0
BBX 23 28 3 0
BITMAP
00007E
00007E
000180
000380
000380
000380
000380
000380
1FE380
1FE380
1FE380
E01F80
E01F80
E01F80
E00380
E00380
E00380
E00380
E00380
E00380
E00380
E00380
E00380
E01F80
E01F80
E01F80
1FE380
1FE380
ENDCHAR
STARTCHAR uni0258
ENCODING 600
SWIDTH 540 0
DWIDTH 29 0
BBX 20 20 3 0
BITMAP
1FFF80
1FFF80
1FFF80
E00070
E00070
E00070
E00070
E00070
E00070
FFFFF0
FFFFF0
FFFFF0
000070
000070
000070
E00070
E00070
E00070
1FFF80
1FFF80
ENDCHAR
STARTCHAR uni0259
ENCODING 601
SWIDTH 540 0
DWIDTH 29 0
BBX 20 20 3 0
BITMAP
1FFF80
1FFF80
1FFF80
E00070
E00070
E00070
000070
000070
000070
FFFFF0
FFFFF0
FFFFF0
E00070
E00070
E00070
E00070
E00070
E00070
1FFF80
1FFF80
ENDCHAR
STARTCHAR uni025A
ENCODING 602
SWIDTH 540 0
DWIDTH 29 0
BBX 23 20 3 0
BITMAP
1FFC00
1FFC00
1FFC00
E003F0
E003F0
E003F0
00038E
00038E
00038E
FFFF80
FFFF80
FFFF80
E00380
E00380
E00380
E00380
E00380
E00380
1FFC00
1FFC00
ENDCHAR
STARTCHAR uni025B
ENCODING 603
SWIDTH 540 0
DWIDTH 29 0
BBX 20 20 3 0
BITMAP
1FFF80
1FFF80
1FFF80
E00070
E00070
E00070
E00000
E00000
E00000
1FFC00
1FFC00
1FFC00
E00000
E00000
E00000
E00070
E00070
E00070
1FFF80
1FFF80
ENDCHAR
STARTCHAR uni025C
ENCODING 604
SWIDTH 540 0
DWIDTH 29 0
BBX 20 20 3 0
BITMAP
1FFF80
1FFF80
1FFF80
E00070
E00070
E00070
000070
000070
000070
03FF80
03FF80
03FF80
000070
000070
000070
E00070
E00070
E00070
1FFF80
1FFF80
ENDCHAR
STARTCHAR uni025D
ENCODING 605
SWIDTH 540 0
DWIDTH 29 0
BBX 23 20 3 0
BITMAP
1FFC00
1FFC00
1FFC00
E003F0
E003F0
E003F0
00038E
00038E
00038E
03FC00
03FC00
03FC00
000380
000380
000380
E00380
E00380
E00380
1FFC00
1FFC00
ENDCHAR
STARTCHAR uni025E
ENCODING 606
SWIDTH 540 0
DWIDTH 29 0
BBX 20 20 3 0
BITMAP
1FFF80
1FFF80
1FFF80
E00070
E00070
E00070
E00070
E00070
E00070
E3FF80
E3FF80
E3FF80
E00070
E00070
E00070
E00070
E00070
E00070
1FFF80
1FFF80
ENDCHAR
STARTCHAR uni025F
ENCODING 607
SWIDTH 540 0
DWIDTH 29 0
BBX 20 29 3 -9
BITMAP
000C00
001C00
001C00
001C00
001C00
001C00
001C00
001C00
001C00
001C00
001C00
001C00
03FFF0
03FFF0
03FFF0
001C00
001C00
001C00
001C00
001C00
C01C00
E01C00
E01C00
E01C00
E01C00
E01C00
1FE000
1FE000
1FE000
ENDCHAR
STARTCHAR uni0260
ENCODING 608
SWIDTH 540 0
DWIDTH 29 0
BBX 20 37 3 -9
BITMAP
000070
000070
000180
000380
000380
000380
000380
000380
1FFF80
1FFF80
1FFF80
E00380
E00380
E00380
E00380
E00380
E00380
E00380
E00380
E00380
E00380
E00380
E00380
E01F80
E01F80
E01F80
1FE380
1FE380
000380
000380
000380
E00380
E00380
E00380
1FFC00
1FFC00
1FFC00
ENDCHAR
STARTCHAR uni0261
ENCODING 609
SWIDTH 540 0
DWIDTH 29 0
BBX 17 29 3 -9
BITMAP
1FFC00
1FFC00
1FFC00
E00380
E00380
E00380
E00380
E00380
E00380
E00380
E00380
E00380
E00380
E00380
E00380
E01F80
E01F80
E01F80
1FE380
1FE380
000380
000380
000380
E00380
E00380
E00380
1FFC00
1FFC00
1FFC00
ENDCHAR
STARTCHAR uni0262
ENCODING 610
SWIDTH 540 0
DWIDTH 29 0
BBX 20 20 3 0
BITMAP
1FFF80
1FFF80
1FFF80
E00070
E00070
E00070
E00000
E00000
E00000
E01FF0
E01FF0
E00FF0
E00070
E00070
E00070
E00070
E00070
E00070
1FFF80
1FFF80
ENDCHAR
STARTCHAR uni0263
ENCODING 611
SWIDTH 540 0
DWIDTH 29 0
BBX 20 26 3 -6
BITMAP
E00070
E00070
E00070
E00070
E00070
E00070
1C0380
1C0380
1C0380
039C00
039C00
039C00
039C00
039C00
039C00
006000
006000
006000
006000
006000
039C00
039C00
039C00
006000
006000
006000
ENDCHAR
STARTCHAR uni0264
ENCODING 612
SWIDTH 540 0
DWIDTH 29 0
BBX 20 20 3 0
BITMAP
1C0380
1C0380
1C0380
E30C70
E39C70
E39C70
039C00
039C00
039C00
006000
006000
006000
039C00
039C00
039C00
039C00
039C00
039C00
006000
006000
ENDCHAR
STARTCHAR uni0265
ENCODING 613
SWIDTH 540 0
DWIDTH 29 0
BBX 20 29 3 -9
BITMAP
E00070
E00070
E00070
E00070
E00070
E00070
E00070
E00070
E00070
E00070
E00070
E00070
E00070
E00070
E00070
1C03F0
1C03F0
1C03F0
03FC70
03FC70
000070
000070
000070
000070
000070
000070
000070
000070
000070
ENDCHAR
STARTCHAR uni0266
ENCODING 614
SWIDTH 540 0
DWIDTH 29 0
BBX 20 31 3 0
BITMAP
1FFC00
1FFC00
1FFC00
E00380
E00380
E00000
E00000
E00000
E00000
E00000
E00000
E3FC00
E3FC00
E3FC00
FC0380
FC0380
FC0380
E00070
E00070
E00070
E00070
E00070
E00070
E00070
E00070
E00070
E00070
E00070
E00070
E00070
E00070
ENDCHAR
STARTCHAR uni0267
ENCODING 615
SWIDTH 540 0
DWIDTH 29 0
BBX 20 40 3 -9
BITMAP
1FFC00
1FFC00
1FFC00
E00380
E00380
E00000
E00000
E00000
E00000
E00000
E00000
E3FC00
E3FC00
E3FC00
FC0380
FC0380
FC0380
E00070
E00070
E00070
E00070
E00070
E00070
E00070
E00070
E00070
E00070
E00070
E00070
E00070
E00070
000070
000070
000070
030070
038070
038070
007F80
007F80
007F80
ENDCHAR
STARTCHAR uni0268
ENCODING 616
SWIDTH 540 0
DWIDTH 29 0
BBX 14 28 6 0
BITMAP
1F00
1F00
0000
0000
0000
0000
0000
0000
FF00
FF00
FF00
0700
0300
0300
0300
0300
0780
1FE0
1FE0
1FE0
0300
0300
0300
0300
0300
0780
FFFC
FFFC
ENDCHAR
STARTCHAR uni0269
ENCODING 617
SWIDTH 540 0
DWIDTH 29 0
BBX 11 20 9 0
BITMAP
F800
F800
F800
3800
1800
1800
1800
1800
1800
1800
1800
1800
1800
1800
1800
18E0
18E0
18E0
0700
0700
ENDCHAR
STARTCHAR uni026A
ENCODING 618
SWIDTH 540 0
DWIDTH 29 0
BBX 14 20 6 0
BITMAP
FFFC
FFFC
FFFC
0780
0300
0300
0300
0300
0300
0300
0300
0300
0300
0300
0300
0300
0300
0780
FFFC
FFFC
ENDCHAR
STARTCHAR uni026B
ENCODING 619
SWIDTH 540 0
DWIDTH 29 0
BBX 14 28 6 0
BITMAP
FF00
FF00
0700
0300
0300
0300
0300
0300
0300
0300
0300
1F1C
1F1C
1F1C
E3E0
E3E0
E3E0
0300
0300
0300
0300
0300
0300
0300
0300
0780
FFFC
FFFC
ENDCHAR
STARTCHAR uni026C
ENCODING 620
SWIDTH 540 0
DWIDTH 29 0
BBX 14 28 6 0
BITMAP
FF00
FF00
0700
0300
0300
0300
0300
0300
1F00
1F00
1F00
E700
E300
E300
1FFC
1FFC
1FFC
0300
0300
0300
0300
0300
0300
0300
0300
0780
FFFC
FFFC
ENDCHAR
STARTCHAR uni026D
ENCODING 621
SWIDTH 540 0
DWIDTH 29 0
BBX 17 34 6 -6
BITMAP
FF0000
FF0000
070000
030000
030000
030000
030000
030000
030000
030000
030000
030000
030000
030000
030000
030000
030000
030000
030000
030000
030000
030000
030000
030000
030000
030000
030000
030000
030180
030380
030380
00FC00
00FC00
00FC00
ENDCHAR
STARTCHAR uni026E
ENCODING 622
SWIDTH 540 0
DWIDTH 29 0
BBX 20 31 3 -3
BITMAP
FC0000
FC0000
3C0000
1C0000
1C0000
1C0000
1C0000
1C0000
1C7FF0
1C7FF0
1C7FF0
1C0070
1C0070
1C0070
1C0380
1C0380
1C0380
1C1F80
1C1F80
1C0F80
1C0070
1C0070
1C0070
1C0070
1C0070
3C0070
FF8070
FF8070
007F80
007F80
007F80
ENDCHAR
STARTCHAR uni026F
ENCODING 623
SWIDTH 540 0
DWIDTH 29 0
BBX 20 20 3 0
BITMAP
E00070
E00070
E00070
E06070
E06070
E06070
E06070
E06070
E06070
E06070
E06070
E06070
E06070
E06070
E06070
E06070
E06070
E06070
1F9FF0
1F9FF0
ENDCHAR
STARTCHAR uni0270
ENCODING 624
SWIDTH 540 0
DWIDTH 29 0
BBX 20 26 3 -6
BITMAP
E00070
E00070
E00070
E06070
E06070
E06070
E06070
E06070
E06070
E06070
E06070
E06070
E06070
E06070
E06070
E06070
E06070
E06070
1F9FF0
1F9FF0
000070
000070
000070
000070
000070
000070
ENDCHAR
STARTCHAR uni0271
ENCODING 625
SWIDTH 540 0
DWIDTH 29 0
BBX 20 29 3 -9
BITMAP
FF0F80
FF9F80
FF9F80
E06070
E06070
E06070
E06070
E06070
E06070
E06070
E06070
E06070
E06070
E06070
E06070
E06070
E06070
E06070
E00070
E00070
000070
000070
000070
030070
038070
038070
007F80
007F80
007F80
ENDCHAR
STARTCHAR uni0272
ENCODING 626
SWIDTH 540 0
DWIDTH 29 0
BBX 23 29 0 -9
BITMAP
038FF0
038FF0
038FF0
03F00E
03F00E
03F00E
03800E
03800E
03800E
03800E
03800E
03800E
03800E
03800E
03800E
03800E
03800E
03800E
03800E
03800E
038000
038000
038000
038000
038000
038000
FC0000
FC0000
FC0000
ENDCHAR
STARTCHAR uni0273
ENCODING 627
SWIDTH 540 0
DWIDTH 29 0
BBX 23 29 3 -9
BITMAP
E3FC00
E3FC00
E3FC00
FC0380
FC0380
FC0380
E00380
E00380
E00380
E00380
E00380
E00380
E00380
E00380
E00380
E00380
E00380
E00380
E00380
E00380
000380
000380
000380
000380
000380
000380
00007E
00007E
00007E
ENDCHAR
STARTCHAR uni0274
ENCODING 628
SWIDTH 540 0
DWIDTH 29 0
BBX 20 20 3 0
BITMAP
E00070
E00070
E00070
FC0070
FC0070
FC0070
E38070
E38070
E38070
E06070
E06070
E06070
E01C70
E01C70
E00C70
E003F0
E003F0
E001F0
E00070
E00070
ENDCHAR
STARTCHAR uni0275
ENCODING 629
SWIDTH 540 0
DWIDTH 29 0
BBX 20 20 3 0
BITMAP
1FFF80
1FFF80
1FFF80
E00070
E00070
E00070
E00070
E00070
E00070
FFFFF0
FFFFF0
FFFFF0
E00070
E00070
E00070
E00070
E00070
E00070
1FFF80
1FFF80
ENDCHAR
STARTCHAR uni0276
ENCODING 630
SWIDTH 540 0
DWIDTH 29 0
BBX 20 20 3 0
BITMAP
1FFFF0
1FFFF0
1FFFF0
E0F000
E06000
E06000
E06000
E06000
E07000
E07F80
E07F80
E07F80
E06000
E06000
E06000
E06000
E06000
E0F000
1FFFF0
1FFFF0
ENDCHAR
STARTCHAR uni0277
ENCODING 631
SWIDTH 540 0
DWIDTH 29 0
BBX 20 23 3 0
BITMAP
1FFF80
1FFF80
1FFF80
E00070
E00070
E00070
E06070
E06070
E06070
E06070
E06070
E06070
E06070
E06070
E06070
E06070
E06070
E06070
E06070
E06070
E06070
1F9F80
1F9F80
ENDCHAR
STARTCHAR uni0278
ENCODING 632
SWIDTH 540 0
DWIDTH 29 0
BBX 20 34 3 -6
BITMAP
006000
006000
006000
006000
006000
006000
006000
006000
1FFF80
1FFF80
1FFF80
E0F070
E06070
E06070
E06070
E06070
E06070
E06070
E06070
E06070
E06070
E06070
E0F070
1FFF80
1FFF80
1FFF80
006000
006000
006000
006000
006000
006000
006000
006000
ENDCHAR
STARTCHAR uni0279
ENCODING 633
SWIDTH 540 0
DWIDTH 29 0
BBX 20 20 3 0
BITMAP
000380
000380
000380
000380
000380
000380
000380
000380
000380
000380
000380
000380
E00380
E00380
E00380
E01F80
E01F80
E01F80
1FE070
1FE070
ENDCHAR
STARTCHAR uni027A
ENCODING 634
SWIDTH 540 0
DWIDTH 29 0
BBX 20 28 3 0
BITMAP
000380
000380
000380
000380
000380
000380
000380
000380
000380
000380
000380
000380
000380
000380
000380
000380
000380
000380
000380
000380
E00380
E00380
E00380
E01F80
E01F80
E01F80
1FE070
1FE070
ENDCHAR
STARTCHAR uni027B
ENCODING 635
SWIDTH 540 0
DWIDTH 29 0
BBX 23 26 3 -6
BITMAP
000380
000380
000380
000380
000380
000380
000380
000380
000380
000380
000380
000380
E00380
E00380
E00380
E01F80
E01F80
E01F80
1FE380
1FE380
000380
000380
000380
00007E
00007E
00007E
ENDCHAR
STARTCHAR uni027C
ENCODING 636
SWIDTH 540 0
DWIDTH 29 0
BBX 20 29 3 -9
BITMAP
E07F80
E07F80
E07F80
1F8070
1F8070
1F8070
1C0070
1C0070
1C0070
1C0000
1C0000
1C0000
1C0000
1C0000
1C0000
1C0000
1C0000
1C0000
1C0000
1C0000
1C0000
1C0000
1C0000
1C0000
1C0000
1C0000
1C0000
1C0000
1C0000
ENDCHAR
STARTCHAR uni027D
ENCODING 637
SWIDTH 540 0
DWIDTH 29 0
BBX 20 26 3 -6
BITMAP
E07F80
E07F80
E07F80
1F8070
1F8070
1F8070
1C0070
1C0070
1C0070
1C0000
1C0000
1C0000
1C0000
1C0000
1C0000
1C0000
1C0000
1C0000
1C0000
1C0000
1C0C00
1C1C00
1C1C00
03E000
03E000
03E000
ENDCHAR
STARTCHAR uni027E
ENCODING 638
SWIDTH 540 0
DWIDTH 29 0
BBX 17 20 6 0
BITMAP
03FC00
03FC00
03FC00
1C0380
1C0380
1C0380
E00380
E00380
E00380
E00000
E00000
E00000
E00000
E00000
E00000
E00000
E00000
E00000
E00000
E00000
ENDCHAR
STARTCHAR uni027F
ENCODING 639
SWIDTH 540 0
DWIDTH 29 0
BBX 17 20 6 0
BITMAP
1FE000
1FE000
1FE000
E01C00
E01C00
E01C00
E00380
E00380
E00380
000380
000380
000380
000380
000380
000380
000380
000380
000380
000380
000380
ENDCHAR
STARTCHAR uni0280
ENCODING 640
SWIDTH 540 0
DWIDTH 29 0
BBX 20 20 3 0
BITMAP
FFFF80
FFFF80
FFFF80
E00070
E00070
E00070
E00070
E00070
E00070
FFFF80
FFFF80
FFFF80
E00070
E00070
E00070
E00070
E00070
E00070
E00070
E00070
ENDCHAR
STARTCHAR uni0281
ENCODING 641
SWIDTH 540 0
DWIDTH 29 0
BBX 20 20 3 0
BITMAP
E00070
E00070
E00070
E00070
E00070
E00070
E00070
E00070
E00070
FFFF80
FFFF80
FFFF80
E00070
E00070
E00070
E00070
E00070
E00070
FFFF80
FFFF80
ENDCHAR
STARTCHAR uni0282
ENCODING 642
SWIDTH 540 0
DWIDTH 29 0
BBX 20 26 3 -6
BITMAP
1FFF80
1FFF80
1FFF80
E00070
E00070
E00070
E00000
E00000
E00000
1FFF80
1FFF80
1FFF80
000070
000070
000070
E00070
E00070
E00070
FFFF80
FFFF80
E00000
E00000
E00000
1FE000
1FE000
1FE000
ENDCHAR
STARTCHAR uni0283
ENCODING 643
SWIDTH 540 0
DWIDTH 29 0
BBX 20 34 3 -6
BITMAP
001F80
001F80
006070
006070
006070
006000
006000
006000
006000
006000
006000
006000
006000
006000
006000
006000
006000
006000
006000
006000
006000
006000
006000
006000
006000
006000
006000
006000
C06000
E06000
E06000
1F8000
1F8000
1F8000
ENDCHAR
STARTCHAR uni0284
ENCODING 644
SWIDTH 540 0
DWIDTH 29 0
BBX 20 34 3 -6
BITMAP
001F80
001F80
006070
006070
006070
006000
006000
006000
006000
006000
006000
006000
006000
006000
006000
006000
006000
006000
006000
00F000
1FFF80
1FFF80
1FFF80
006000
006000
006000
006000
006000
C06000
E06000
E06000
1F8000
1F8000
1F8000
ENDCHAR
STARTCHAR uni0285
ENCODING 645
SWIDTH 540 0
DWIDTH 29 0
BBX 20 26 3 -6
BITMAP
1F0000
1F8000
1F8000
E06000
E06000
E06000
006000
006000
006000
006000
006000
006000
006000
006000
006000
006000
006000
006000
006000
006000
006030
006070
006070
001F80
001F80
001F80
ENDCHAR
STARTCHAR uni0286
ENCODING 646
SWIDTH 540 0
DWIDTH 29 0
BBX 20 34 3 -6
BITMAP
001F80
001F80
006070
006070
006070
006000
006000
006000
006000
006000
006000
006000
006000
006000
006000
006000
006000
006000
006000
006000
006000
006000
006000
006000
006000
00E000
1FE000
1FE000
E0FC00
E07C00
E07C00
1F8380
1F8380
1F8380
ENDCHAR
STARTCHAR uni0287
ENCODING 647
SWIDTH 540 0
DWIDTH 29 0
BBX 20 26 3 -6
BITMAP
1FE000
1FE000
1FE000
E01C00
E01C00
E01C00
001C00
001C00
001C00
001C00
001C00
001C00
001C00
001C00
001C00
001C00
001C00
001E00
1FFFF0
1FFFF0
001E00
001C00
001C00
001C00
001C00
001C00
ENDCHAR
STARTCHAR uni0288
ENCODING 648
SWIDTH 540 0
DWIDTH 29 0
BBX 17 32 3 -6
BITMAP
030000
038000
038000
038000
038000
038000
FFFF80
FFFF80
FFFF80
038000
038000
038000
038000
038000
038000
038000
038000
038000
038000
038000
038000
038000
038000
038000
038000
038000
038180
038380
038380
007C00
007C00
007C00
ENDCHAR
STARTCHAR uni0289
ENCODING 649
SWIDTH 540 0
DWIDTH 29 0
BBX 20 20 3 0
BITMAP
1C0380
1C0380
1C0380
1C0380
1C0380
1C0380
1C0380
1C0380
1C0380
FFFFF0
FFFFF0
FFFFF0
1C0380
1C0380
1C0380
1C0380
1C0380
1C0380
03FC70
03FC70
ENDCHAR
STARTCHAR uni028A
ENCODING 650
SWIDTH 540 0
DWIDTH 29 0
BBX 20 20 3 0
BITMAP
FF0FF0
FF9FF0
FF9FF0
1C0380
1C0380
1C0380
E00070
E00070
E00070
E00070
E00070
E00070
E00070
E00070
E00070
1C0380
1C0380
1C0380
03FC00
03FC00
ENDCHAR
STARTCHAR uni028B
ENCODING 651
SWIDTH 540 0
DWIDTH 29 0
BBX 17 20 6 0
BITMAP
E06000
E0E000
E0E000
E01C00
E01C00
E01C00
E00380
E00380
E00380
E00380
E00380
E00380
E00380
E00380
E00380
E01C00
E01C00
E01C00
1FE000
1FE000
ENDCHAR
STARTCHAR uni028C
ENCODING 652
SWIDTH 540 0
DWIDTH 29 0
BBX 20 20 3 0
BITMAP
006000
006000
006000
039C00
039C00
039C00
039C00
039C00
030C00
1C0380
1C0380
1C0380
1C0380
1C0380
180180
E00070
E00070
E00070
E00070
E00070
ENDCHAR
STARTCHAR uni028D
ENCODING 653
SWIDTH 540 0
DWIDTH 29 0
BBX 20 20 3 0
BITMAP
1C0380
1C0380
1C0380
E30C70
E39C70
E39C70
E06070
E06070
E06070
E06070
E06070
E06070
E06070
E06070
E06070
E00070
E00070
E00070
E00070
E00070
ENDCHAR
STARTCHAR uni028E
ENCODING 654
SWIDTH 540 0
DWIDTH 29 0
BBX 20 28 3 0
BITMAP
001F80
001F80
006070
006070
006070
006000
006000
006000
03E000
03E000
03E000
03E000
03E000
03E000
1C1C00
1C1C00
1C1C00
1C1C00
1C1C00
1C1C00
1C1C00
1C1C00
180C00
E00380
E00380
E00380
E00380
E00380
ENDCHAR
STARTCHAR uni028F
ENCODING 655
SWIDTH 540 0
DWIDTH 29 0
BBX 20 20 3 0
BITMAP
E00070
E00070
E00070
1C0380
1C0380
1C0380
039C00
039C00
039C00
006000
006000
006000
006000
006000
006000
006000
006000
006000
006000
006000
ENDCHAR
STARTCHAR uni0290
ENCODING 656
SWIDTH 540 0
DWIDTH 29 0
BBX 20 26 3 -6
BITMAP
FFFFF0
FFFFF0
FFFFF0
000380
000380
000380
001C00
001C00
001C00
006000
006000
006000
038000
038000
030000
1C0000
1C0000
3C0000
FFFF80
FFFF80
001E00
001C00
001C00
0003F0
0003F0
0003F0
ENDCHAR
STARTCHAR uni0291
ENCODING 657
SWIDTH 540 0
DWIDTH 29 0
BBX 20 26 3 -6
BITMAP
FFFFF0
FFFFF0
FFFFF0
000380
000380
000380
001C00
001C00
001C00
006000
006000
006000
038380
038380
030380
1C1C70
1C1C70
3C1E70
FFFF80
FFFF80
00F000
006000
006000
038000
038000
038000
ENDCHAR
STARTCHAR uni0292
ENCODING 658
SWIDTH 540 0
DWIDTH 29 0
BBX 17 29 3 -9
BITMAP
FFFF80
FFFF80
FFFF80
001C00
001C00
001C00
006000
006000
006000
038000
038000
038000
1FE000
1FE000
1FE000
001C00
001C00
000C00
000380
000380
000380
000380
000380
E00C00
E01C00
E01C00
1FE000
1FE000
1FE000
ENDCHAR
STARTCHAR uni0293
ENCODING 659
SWIDTH 540 0
DWIDTH 29 0
BBX 17 29 6 -9
BITMAP
FFFF80
FFFF80
FFFF80
001C00
001C00
001C00
00E000
00E000
00E000
030000
030000
078000
1FE000
1FE000
1FE000
001C00
001C00
000C00
1C0380
1C0380
E3E380
E3E380
E3E380
E01C00
E01C00
E01C00
1FE380
1FE380
1FE380
ENDCHAR
STARTCHAR uni0294
ENCODING 660
SWIDTH 540 0
DWIDTH 29 0
BBX 14 28 6 0
BITMAP
1FE0
1FE0
E01C
E01C
E01C
E01C
E01C
E01C
001C
001C
001C
001C
001C
001C
03E0
03E0
03E0
0300
0300
0300
0300
0300
0300
0300
0300
0300
0300
0300
ENDCHAR
STARTCHAR uni0295
ENCODING 661
SWIDTH 540 0
DWIDTH 29 0
BBX 14 28 6 0
BITMAP
1FE0
1FE0
E01C
E01C
E01C
E01C
E01C
E01C
E000
E000
E000
E000
E000
E000
1F00
1F00
1F00
0300
0300
0300
0300
0300
0300
0300
0300
0300
0300
0300
ENDCHAR
STARTCHAR uni0296
ENCODING 662
SWIDTH 540 0
DWIDTH 29 0
BBX 14 28 6 0
BITMAP
0300
0300
0300
0300
0300
0300
0300
0300
0300
0300
0300
03E0
03E0
03E0
001C
001C
001C
001C
001C
001C
E01C
E01C
E01C
E01C
E01C
E01C
1FE0
1FE0
ENDCHAR
STARTCHAR uni0297
ENCODING 663
SWIDTH 540 0
DWIDTH 29 0
BBX 17 32 3 -6
BITMAP
1FFC00
1FFC00
1FFC00
E00380
E00380
E00380
E00000
E00000
E00000
E00000
E00000
E00000
E00000
E00000
E00000
E00000
E00000
E00000
E00000
E00000
E00000
E00000
E00000
E00000
E00000
E00000
E00180
E00380
E00380
1FFC00
1FFC00
1FFC00
ENDCHAR
STARTCHAR uni0298
ENCODING 664
SWIDTH 540 0
DWIDTH 29 0
BBX 20 20 3 0
BITMAP
1FFF80
1FFF80
1FFF80
E00070
E00070
E00070
E00070
E00070
E00070
E06070
E06070
E06070
E00070
E00070
E00070
E00070
E00070
E00070
1FFF80
1FFF80
ENDCHAR
STARTCHAR uni0299
ENCODING 665
SWIDTH 540 0
DWIDTH 29 0
BBX 17 20 6 0
BITMAP
FFFC00
FFFC00
FFFC00
E00380
E00380
E00380
E00380
E00380
E00380
FFFC00
FFFC00
FFFC00
E00380
E00380
E00380
E00380
E00380
E00380
FFFC00
FFFC00
ENDCHAR
STARTCHAR uni029A
ENCODING 666
SWIDTH 540 0
DWIDTH 29 0
BBX 20 20 3 0
BITMAP
1FFC00
1FFC00
1FFC00
E00380
E00380
E00380
E00070
E00070
E00070
1FE070
1FE070
1FE070
E00070
E00070
E00070
E00380
E00380
E00380
1FFC00
1FFC00
ENDCHAR
STARTCHAR uni029B
ENCODING 667
SWIDTH 540 0
DWIDTH 29 0
BBX 20 26 3 0
BITMAP
000030
000070
000070
000180
000380
000380
1FFF80
1FFF80
1FFF80
E00070
E00070
E00070
E00000
E00000
E00000
E01FF0
E01FF0
E00FF0
E00070
E00070
E00070
E00070
E00070
E00070
1FFF80
1FFF80
ENDCHAR
STARTCHAR uni029C
ENCODING 668
SWIDTH 540 0
DWIDTH 29 0
BBX 20 20 3 0
BITMAP
E00070
E00070
E00070
E00070
E00070
E00070
E00070
E00070
E00070
FFFFF0
FFFFF0
FFFFF0
E00070
E00070
E00070
E00070
E00070
E00070
E00070
E00070
ENDCHAR
STARTCHAR uni029D
ENCODING 669
SWIDTH 540 0
DWIDTH 29 0
BBX 20 37 3 -9
BITMAP
007C00
007C00
000000
000000
000000
000000
000000
000000
03FC00
03FC00
03FC00
001C00
001C00
001C00
001C00
001C00
001C00
001C00
001C00
001C00
001C00
001C00
001C00
001C00
001C00
001C00
1FFC00
1FFC00
E01F80
E01F80
E01F80
E01E70
E01C70
E01C70
1FE000
1FE000
1FE000
ENDCHAR
STARTCHAR uni029E
ENCODING 670
SWIDTH 540 0
DWIDTH 29 0
BBX 20 29 3 -9
BITMAP
E00070
E00070
E00070
1F0070
1F8070
1F8070
007C70
007C70
007C70
0003F0
0003F0
0003F0
007C70
007C70
007C70
1F8070
1F8070
1F0070
E00070
E00070
000070
000070
000070
000070
000070
000070
000070
000070
000070
ENDCHAR
STARTCHAR uni029F
ENCODING 671
SWIDTH 540 0
DWIDTH 29 0
BBX 17 20 3 0
BITMAP
E00000
E00000
E00000
E00000
E00000
E00000
E00000
E00000
E00000
E00000
E00000
E00000
E00000
E00000
E00000
E00000
E00000
E00000
FFFF80
FFFF80
ENDCHAR
STARTCHAR uni02A0
ENCODING 672
SWIDTH 540 0
DWIDTH 29 0
BBX 23 37 3 -9
BITMAP
00007E
00007E
000180
000380
000380
000380
000380
000380
1FE380
1FE380
1FE380
E01F80
E01F80
E01F80
E00380
E00380
E00380
E00380
E00380
E00380
E00380
E00380
E00380
E01F80
E01F80
E01F80
1FE380
1FE380
000380
000380
000380
000380
000380
000380
000380
000380
000380
ENDCHAR
STARTCHAR uni02A1
ENCODING 673
SWIDTH 540 0
DWIDTH 29 0
BBX 14 28 6 0
BITMAP
1FE0
1FE0
E01C
E01C
E01C
E01C
E01C
E01C
001C
001C
001C
001C
001C
001C
03E0
03E0
03E0
0300
0300
0780
FFFC
FFFC
FFFC
0300
0300
0300
0300
0300
ENDCHAR
STARTCHAR uni02A2
ENCODING 674
SWIDTH 540 0
DWIDTH 29 0
BBX 14 28 6 0
BITMAP
1FE0
1FE0
E01C
E01C
E01C
E01C
E01C
E01C
E000
E000
E000
E000
E000
E000
1F00
1F00
1F00
0300
0300
0780
FFFC
FFFC
FFFC
0300
0300
0300
0300
0300
ENDCHAR
STARTCHAR uni02A3
ENCODING 675
SWIDTH 540 0
DWIDTH 29 0
BBX 23 28 3 0
BITMAP
006000
006000
006000
006000
006000
006000
006000
006000
1C7FFE
1C7FFE
1C7FFE
E3F00E
E3E00E
E3E00E
E06070
E06070
E06070
E06380
E06380
E07380
E07C00
E07C00
E0FC00
E3FC00
E3FC00
E3FE00
1C7FFE
1C7FFE
ENDCHAR
STARTCHAR uni02A4
ENCODING 676
SWIDTH 540 0
DWIDTH 29 0
BBX 23 34 0 -6
BITMAP
007000
007000
007000
007000
007000
007000
007000
007000
1C7FFE
1C7FFE
1C7FFE
E3F00E
E3F00E
E3F00E
E07070
E07070
E07070
E073F0
E073F0
E071F0
E0700E
E0700E
E0F00E
E3F00E
E3F00E
E3F00E
1C700E
1C700E
000C0E
000C0E
000C0E
0003F0
0003F0
0003F0
ENDCHAR
STARTCHAR uni02A5
ENCODING 677
SWIDTH 540 0
DWIDTH 29 0
BBX 23 34 0 -6
BITMAP
007000
007000
007000
007000
007000
007000
007000
007000
1C7FFE
1C7FFE
1C7FFE
E3F00E
E3F00E
E3F00E
E07070
E07070
E07070
E07380
E07380
E07380
E07380
E07380
E0F380
E3FC7E
E3FC7E
E3FE7E
1C7FF0
1C7FF0
001E00
000C00
000C00
007000
007000
007000
ENDCHAR
STARTCHAR uni02A6
ENCODING 678
SWIDTH 540 0
DWIDTH 29 0
BBX 20 26 3 0
BITMAP
180000
1C0000
1C0000
1C0000
1C0000
1C0000
FF0FF0
FF9FF0
FF9FF0
1C6000
1C6000
1C6000
1C6000
1C6000
1C6000
1C1F80
1C1F80
1C0F80
1C0070
1C0070
1C0070
1C0070
1C0070
1C0070
03FF80
03FF80
ENDCHAR
STARTCHAR uni02A7
ENCODING 679
SWIDTH 540 0
DWIDTH 29 0
BBX 20 34 3 -6
BITMAP
000380
000380
180C70
1C1C70
1C1C70
1C1C00
1C1C00
1C1C00
FF1C00
FF9C00
FF9C00
1C1C00
1C1C00
1C1C00
1C1C00
1C1C00
1C1C00
1C1C00
1C1C00
1C1C00
1C1C00
1C1C00
1C1C00
1C1C00
1C1C00
1C1C00
039C00
039C00
001C00
001C00
001C00
03E000
03E000
03E000
ENDCHAR
STARTCHAR uni02A8
ENCODING 680
SWIDTH 540 0
DWIDTH 29 0
BBX 20 29 3 -3
BITMAP
180000
1C0000
1C0000
1C0000
1C0000
1C0000
FF0FF0
FF9FF0
FF9FF0
1C6000
1C6000
1C6000
1C6000
1C6000
1C6000
1C6000
1C6000
1C6000
1C6380
1C6380
1C7380
1C7C70
1C7C70
1C7E70
039F80
039F80
001E00
001C00
001C00
ENDCHAR
STARTCHAR uni02A9
ENCODING 681
SWIDTH 540 0
DWIDTH 29 0
BBX 20 34 3 -6
BITMAP
03FC00
03FC00
1C0380
1C0380
1C0380
1C0000
1C0000
1C0000
1C6380
1C6380
1C6380
1C7C70
1C7C70
1C7C70
FFE070
FFE070
FFE070
1C6070
1C6070
1C6070
1C6070
1C6070
1C6070
1C6070
1C6070
1C6070
1C6070
1C6070
000070
000070
000070
000F80
001F80
001F80
ENDCHAR
STARTCHAR uni02AA
ENCODING 682
SWIDTH 540 0
DWIDTH 29 0
BBX 20 28 3 0
BITMAP
FC0000
FC0000
3C0000
1C0000
1C0000
1C0000
1C0000
1C0000
1C7F80
1C7F80
1C7F80
1F8070
1F8070
1F8070
1F8000
1F8000
1F8000
1C7F80
1C7F80
1C7F80
1C0070
1C0070
1C0070
1F8070
1F8070
1F8070
1FFF80
1FFF80
ENDCHAR
STARTCHAR uni02AB
ENCODING 683
SWIDTH 540 0
DWIDTH 29 0
BBX 20 28 3 0
BITMAP
FC0000
FC0000
3C0000
1C0000
1C0000
1C0000
1C0000
1C0000
1FFFF0
1FFFF0
1FFFF0
1C0070
1C0070
1C0070
1C0380
1C0380
1C0380
1C1C00
1C1C00
1C1C00
1C6000
1C6000
1C6000
1F8000
1F8000
1F8000
1FFFF0
1FFFF0
ENDCHAR
STARTCHAR uni02AC
ENCODING 684
SWIDTH 540 0
DWIDTH 29 0
BBX 14 26 6 0
BITMAP
C30C
E31C
E31C
E31C
E31C
E31C
1CE0
1CE0
1CE0
1CE0
1CE0
1CE0
0000
0000
0000
E31C
E31C
E31C
E31C
E31C
E31C
1CE0
1CE0
1CE0
1CE0
1CE0
ENDCHAR
STARTCHAR uni02AD
ENCODING 685
SWIDTH 540 0
DWIDTH 29 0
BBX 14 21 6 5
BITMAP
FFFC
FFFC
FFFC
E01C
E01C
E01C
E01C
E01C
E01C
0000
0000
0000
FFFC
FFFC
FFFC
E01C
E01C
E01C
E01C
E01C
C00C
ENDCHAR
STARTCHAR uni02B0
ENCODING 688
SWIDTH 540 0
DWIDTH 29 0
BBX 11 17 3 14
BITMAP
E000
E000
E000
E000
E000
FF00
FF80
FF80
E060
E060
E060
E060
E060
E060
E060
E060
E060
ENDCHAR
STARTCHAR uni02B1
ENCODING 689
SWIDTH 540 0
DWIDTH 29 0
BBX 11 17 3 14
BITMAP
1F80
1F80
1F00
E000
E000
FF00
FF80
FF80
E060
E060
E060
E060
E060
E060
E060
E060
E060
ENDCHAR
STARTCHAR uni02B2
ENCODING 690
SWIDTH 540 0
DWIDTH 29 0
BBX 9 20 3 8
BITMAP
0380
0380
0000
0000
0000
0300
0380
0380
0380
0380
0380
0380
0380
0380
E380
E380
E300
1C00
1C00
1C00
ENDCHAR
STARTCHAR uni02B3
ENCODING 691
SWIDTH 540 0
DWIDTH 29 0
BBX 11 15 3 11
BITMAP
C300
E380
E380
FC60
FC60
FC60
E000
E000
E000
E000
E000
E000
E000
E000
E000
ENDCHAR
STARTCHAR uni02B4
ENCODING 692
SWIDTH 540 0
DWIDTH 29 0
BBX 11 15 3 11
BITMAP
0060
0060
0060
0060
0060
0060
0060
0060
0060
E3E0
E3E0
E3E0
1C60
1C60
1C60
ENDCHAR
STARTCHAR uni02B5
ENCODING 693
SWIDTH 540 0
DWIDTH 29 0
BBX 17 21 3 5
BITMAP
006000
006000
006000
006000
006000
006000
006000
006000
006000
E3E000
E3E000
E3E000
1C6000
1C6000
1C6000
006380
006380
006380
001C00
001C00
000C00
ENDCHAR
STARTCHAR uni02B6
ENCODING 694
SWIDTH 540 0
DWIDTH 29 0
BBX 11 17 3 11
BITMAP
E060
E060
E380
E380
E380
FF80
FF80
FF80
E060
E060
E060
E060
E060
E060
FF80
FF80
FF00
ENDCHAR
STARTCHAR uni02B7
ENCODING 695
SWIDTH 540 0
DWIDTH 29 0
BBX 14 15 3 11
BITMAP
C30C
E39C
E39C
E39C
E39C
E39C
E39C
E39C
E39C
1C60
1C60
1C60
1C60
1C60
1C60
ENDCHAR
STARTCHAR uni02B8
ENCODING 696
SWIDTH 540 0
DWIDTH 29 0
BBX 11 18 3 8
BITMAP
C060
E060
E060
E060
E060
E060
E060
E060
E060
1FE0
1FE0
1FE0
0060
0060
0060
FF80
FF80
FF00
ENDCHAR
STARTCHAR uni02B9
ENCODING 697
SWIDTH 540 0
DWIDTH 29 0
BBX 5 11 9 20
BITMAP
18
18
18
18
18
E0
E0
E0
E0
E0
E0
ENDCHAR
STARTCHAR uni02BA
ENCODING 698
SWIDTH 540 0
DWIDTH 29 0
BBX 14 11 6 20
BITMAP
1C1C
1C1C
1C1C
1C1C
1C1C
E060
E0E0
E0E0
E0E0
E0E0
E0E0
ENDCHAR
STARTCHAR uni02BB
ENCODING 699
SWIDTH 540 0
DWIDTH 29 0
BBX 5 11 12 17
BITMAP
38
38
C0
C0
C0
F8
F8
F8
F8
F8
F8
ENDCHAR
STARTCHAR afii57929
ENCODING 700
SWIDTH 540 0
DWIDTH 29 0
BBX 5 11 12 17
BITMAP
F8
F8
F8
F8
F8
38
38
38
C0
C0
C0
ENDCHAR
STARTCHAR afii64937
ENCODING 701
SWIDTH 540 0
DWIDTH 29 0
BBX 5 11 12 17
BITMAP
F8
F8
F8
F8
F8
E0
C0
C0
38
38
38
ENDCHAR
STARTCHAR uni02BE
ENCODING 702
SWIDTH 540 0
DWIDTH 29 0
BBX 8 14 9 14
BITMAP
F8
F8
07
07
07
07
07
07
07
07
07
F8
F8
F8
ENDCHAR
STARTCHAR uni02BF
ENCODING 703
SWIDTH 540 0
DWIDTH 29 0
BBX 8 14 6 14
BITMAP
1F
1F
E0
E0
E0
E0
E0
E0
E0
E0
E0
1F
1F
1F
ENDCHAR
STARTCHAR uni02C0
ENCODING 704
SWIDTH 540 0
DWIDTH 29 0
BBX 8 14 6 14
BITMAP
1C
1C
E3
E3
E3
03
03
03
1C
1C
1C
1C
1C
1C
ENDCHAR
STARTCHAR uni02C1
ENCODING 705
SWIDTH 540 0
DWIDTH 29 0
BBX 8 14 6 14
BITMAP
1C
1C
E3
E3
E3
E0
E0
E0
18
1C
1C
1C
1C
1C
ENDCHAR
STARTCHAR uni02C2
ENCODING 706
SWIDTH 540 0
DWIDTH 29 0
BBX 8 14 9 14
BITMAP
07
07
18
18
18
E0
E0
E0
18
18
18
07
07
07
ENDCHAR
STARTCHAR uni02C3
ENCODING 707
SWIDTH 540 0
DWIDTH 29 0
BBX 8 14 9 14
BITMAP
E0
E0
18
18
18
07
07
07
18
18
18
E0
E0
E0
ENDCHAR
STARTCHAR uni02C4
ENCODING 708
SWIDTH 540 0
DWIDTH 29 0
BBX 14 14 6 14
BITMAP
0300
0300
1CE0
1CE0
1CE0
1CE0
1CE0
1CE0
E01C
E01C
E01C
E01C
E01C
E01C
ENDCHAR
STARTCHAR uni02C5
ENCODING 709
SWIDTH 540 0
DWIDTH 29 0
BBX 14 14 6 14
BITMAP
E01C
E01C
E01C
E01C
E01C
1860
1CE0
1CE0
1CE0
1CE0
1CE0
0300
0300
0300
ENDCHAR
STARTCHAR circumflex
ENCODING 710
SWIDTH 540 0
DWIDTH 29 0
BBX 14 8 6 20
BITMAP
0300
0300
1CE0
1CE0
1CE0
E01C
E01C
E01C
ENDCHAR
STARTCHAR caron
ENCODING 711
SWIDTH 540 0
DWIDTH 29 0
BBX 14 8 6 20
BITMAP
E01C
E01C
1860
1CE0
1CE0
0300
0300
0300
ENDCHAR
STARTCHAR uni02C8
ENCODING 712
SWIDTH 540 0
DWIDTH 29 0
BBX 2 8 12 20
BITMAP
C0
C0
C0
C0
C0
C0
C0
C0
ENDCHAR
STARTCHAR macron
ENCODING 713
SWIDTH 540 0
DWIDTH 29 0
BBX 14 2 6 26
BITMAP
FFFC
FFFC
ENDCHAR
STARTCHAR uni02CA
ENCODING 714
SWIDTH 540 0
DWIDTH 29 0
BBX 8 8 9 23
BITMAP
07
07
07
18
18
E0
E0
E0
ENDCHAR
STARTCHAR uni02CB
ENCODING 715
SWIDTH 540 0
DWIDTH 29 0
BBX 8 8 9 23
BITMAP
E0
E0
E0
18
18
07
07
07
ENDCHAR
STARTCHAR uni02CC
ENCODING 716
SWIDTH 540 0
DWIDTH 29 0
BBX 2 8 12 -6
BITMAP
C0
C0
C0
C0
C0
C0
C0
C0
ENDCHAR
STARTCHAR uni02CD
ENCODING 717
SWIDTH 540 0
DWIDTH 29 0
BBX 14 3 6 -6
BITMAP
FFFC
FFFC
FFFC
ENDCHAR
STARTCHAR uni02CE
ENCODING 718
SWIDTH 540 0
DWIDTH 29 0
BBX 8 9 9 -9
BITMAP
C0
E0
E0
18
18
18
07
07
07
ENDCHAR
STARTCHAR uni02CF
ENCODING 719
SWIDTH 540 0
DWIDTH 29 0
BBX 8 9 9 -9
BITMAP
03
07
07
18
18
18
E0
E0
E0
ENDCHAR
STARTCHAR uni02D0
ENCODING 720
SWIDTH 540 0
DWIDTH 29 0
BBX 8 20 9 0
BITMAP
FF
FF
FF
3C
18
18
00
00
00
00
00
00
00
00
00
18
18
3C
FF
FF
ENDCHAR
STARTCHAR uni02D1
ENCODING 721
SWIDTH 540 0
DWIDTH 29 0
BBX 8 6 9 14
BITMAP
FF
FF
FF
3C
18
18
ENDCHAR
STARTCHAR uni02D2
ENCODING 722
SWIDTH 540 0
DWIDTH 29 0
BBX 8 12 9 2
BITMAP
F8
F8
F8
07
07
07
07
07
07
F8
F8
F8
ENDCHAR
STARTCHAR uni02D3
ENCODING 723
SWIDTH 540 0
DWIDTH 29 0
BBX 8 12 9 2
BITMAP
1F
1F
1F
E0
E0
E0
E0
E0
E0
1F
1F
1F
ENDCHAR
STARTCHAR uni02D4
ENCODING 724
SWIDTH 540 0
DWIDTH 29 0
BBX 14 9 6 11
BITMAP
0300
0300
0300
0300
0300
0300
FFFC
FFFC
FFFC
ENDCHAR
STARTCHAR uni02D5
ENCODING 725
SWIDTH 540 0
DWIDTH 29 0
BBX 14 9 6 5
BITMAP
FFFC
FFFC
FFFC
0300
0300
0300
0300
0300
0300
ENDCHAR
STARTCHAR uni02D6
ENCODING 726
SWIDTH 540 0
DWIDTH 29 0
BBX 14 15 6 5
BITMAP
0300
0300
0300
0300
0300
0300
FFFC
FFFC
FFFC
0300
0300
0300
0300
0300
0300
ENDCHAR
STARTCHAR uni02D7
ENCODING 727
SWIDTH 540 0
DWIDTH 29 0
BBX 17 9 6 8
BITMAP
E00380
E00380
E00380
FFFF80
FFFF80
FFFF80
E00380
E00380
E00380
ENDCHAR
STARTCHAR breve
ENCODING 728
SWIDTH 540 0
DWIDTH 29 0
BBX 14 5 6 26
BITMAP
E01C
E01C
E01C
1FE0
1FE0
ENDCHAR
STARTCHAR dotaccent
ENCODING 729
SWIDTH 540 0
DWIDTH 29 0
BBX 2 5 12 26
BITMAP
C0
C0
C0
C0
C0
ENDCHAR
STARTCHAR ring
ENCODING 730
SWIDTH 540 0
DWIDTH 29 0
BBX 11 8 6 23
BITMAP
1F00
1F00
1F00
E0E0
E0E0
1F00
1F00
1F00
ENDCHAR
STARTCHAR ogonek
ENCODING 731
SWIDTH 540 0
DWIDTH 29 0
BBX 11 9 6 -9
BITMAP
1800
1C00
1C00
E000
E000
E000
1FE0
1FE0
1FE0
ENDCHAR
STARTCHAR tilde
ENCODING 732
SWIDTH 540 0
DWIDTH 29 0
BBX 20 5 3 26
BITMAP
1FE070
1FE070
1FF070
E07F80
E07F80
ENDCHAR
STARTCHAR hungarumlaut
ENCODING 733
SWIDTH 540 0
DWIDTH 29 0
BBX 20 8 3 23
BITMAP
038070
038070
030070
1C0380
1C0380
E00C00
E01C00
E01C00
ENDCHAR
STARTCHAR uni02DE
ENCODING 734
SWIDTH 540 0
DWIDTH 29 0
BBX 17 12 3 8
BITMAP
030000
038000
038000
1F8380
1F8380
1F8380
E38380
E38380
E38380
007C00
007C00
007C00
ENDCHAR
STARTCHAR uni02DF
ENCODING 735
SWIDTH 540 0
DWIDTH 29 0
BBX 8 8 9 23
BITMAP
E7
E7
E7
18
18
E7
E7
E7
ENDCHAR
STARTCHAR uni02E0
ENCODING 736
SWIDTH 540 0
DWIDTH 29 0
BBX 11 18 3 8
BITMAP
C060
E060
E060
E060
E060
E060
1F80
1F80
1F80
1F80
1F80
1F80
E060
E060
E060
1F80
1F80
1F00
ENDCHAR
STARTCHAR uni02E1
ENCODING 737
SWIDTH 540 0
DWIDTH 29 0
BBX 8 17 6 11
BITMAP
FC
FC
3C
1C
1C
1C
1C
1C
1C
1C
1C
1C
1C
1C
FF
FF
FF
ENDCHAR
STARTCHAR uni02E2
ENCODING 738
SWIDTH 540 0
DWIDTH 29 0
BBX 11 15 3 11
BITMAP
1FE0
1FE0
1FE0
E000
E000
E000
1F00
1F80
1F80
0060
0060
0060
FF80
FF80
FF00
ENDCHAR
STARTCHAR uni02E3
ENCODING 739
SWIDTH 540 0
DWIDTH 29 0
BBX 11 15 3 11
BITMAP
C060
E060
E060
E060
E060
E060
1F80
1F80
1F80
E060
E060
E060
E060
E060
E060
ENDCHAR
STARTCHAR uni02E4
ENCODING 740
SWIDTH 540 0
DWIDTH 29 0
BBX 14 20 3 11
BITMAP
1FE0
1FE0
1FE0
E01C
E01C
E000
E000
E000
1F00
1F80
1F80
0380
0380
0380
0380
0380
0380
0380
0380
0300
ENDCHAR
STARTCHAR uni02E5
ENCODING 741
SWIDTH 540 0
DWIDTH 29 0
BBX 11 37 6 -6
BITMAP
FFE0
FFE0
FFE0
00E0
00E0
00E0
00E0
00E0
00E0
00E0
00E0
00E0
00E0
00E0
00E0
00E0
00E0
00E0
00E0
00E0
00E0
00E0
00E0
00E0
00E0
00E0
00E0
00E0
00E0
00E0
00E0
00E0
00E0
00E0
00E0
00E0
00E0
ENDCHAR
STARTCHAR uni02E6
ENCODING 742
SWIDTH 540 0
DWIDTH 29 0
BBX 11 37 6 -6
BITMAP
00E0
00E0
00E0
00E0
00E0
00E0
00E0
00E0
FFE0
FFE0
FFE0
00E0
00E0
00E0
00E0
00E0
00E0
00E0
00E0
00E0
00E0
00E0
00E0
00E0
00E0
00E0
00E0
00E0
00E0
00E0
00E0
00E0
00E0
00E0
00E0
00E0
00E0
ENDCHAR
STARTCHAR uni02E7
ENCODING 743
SWIDTH 540 0
DWIDTH 29 0
BBX 11 37 6 -6
BITMAP
00E0
00E0
00E0
00E0
00E0
00E0
00E0
00E0
00E0
00E0
00E0
00E0
00E0
00E0
00E0
00E0
00E0
FFE0
FFE0
FFE0
00E0
00E0
00E0
00E0
00E0
00E0
00E0
00E0
00E0
00E0
00E0
00E0
00E0
00E0
00E0
00E0
00E0
ENDCHAR
STARTCHAR uni02E8
ENCODING 744
SWIDTH 540 0
DWIDTH 29 0
BBX 11 37 6 -6
BITMAP
00E0
00E0
00E0
00E0
00E0
00E0
00E0
00E0
00E0
00E0
00E0
00E0
00E0
00E0
00E0
00E0
00E0
00E0
00E0
00E0
00E0
00E0
00E0
00E0
00E0
00E0
FFE0
FFE0
FFE0
00E0
00E0
00E0
00E0
00E0
00E0
00E0
00E0
ENDCHAR
STARTCHAR uni02E9
ENCODING 745
SWIDTH 540 0
DWIDTH 29 0
BBX 11 37 6 -6
BITMAP
00E0
00E0
00E0
00E0
00E0
00E0
00E0
00E0
00E0
00E0
00E0
00E0
00E0
00E0
00E0
00E0
00E0
00E0
00E0
00E0
00E0
00E0
00E0
00E0
00E0
00E0
00E0
00E0
00E0
00E0
00E0
00E0
00E0
00E0
FFE0
FFE0
FFE0
ENDCHAR
STARTCHAR uni02EA
ENCODING 746
SWIDTH 540 0
DWIDTH 29 0
BBX 11 11 6 -9
BITMAP
FFE0
FFE0
00E0
00E0
00E0
00E0
00E0
00E0
00E0
00E0
00E0
ENDCHAR
STARTCHAR uni02EB
ENCODING 747
SWIDTH 540 0
DWIDTH 29 0
BBX 11 20 9 -9
BITMAP
E000
E000
E000
E000
E000
E000
E000
E000
E000
FFE0
FFE0
E000
E000
E000
E000
E000
E000
E000
E000
E000
ENDCHAR
STARTCHAR uni02EC
ENCODING 748
SWIDTH 540 0
DWIDTH 29 0
BBX 14 9 6 -12
BITMAP
C00C
E01C
E01C
1860
1CE0
1CE0
0300
0300
0300
ENDCHAR
STARTCHAR uni02ED
ENCODING 749
SWIDTH 540 0
DWIDTH 29 0
BBX 14 9 6 8
BITMAP
FFFC
FFFC
FFFC
0000
0000
0000
FFFC
FFFC
FFFC
ENDCHAR
STARTCHAR uni02EE
ENCODING 750
SWIDTH 540 0
DWIDTH 29 0
BBX 14 11 6 17
BITMAP
FCFC
FCFC
FCFC
FCFC
FCFC
3C1C
1C1C
1C1C
E060
E0E0
E0E0
ENDCHAR
STARTCHAR gravecomb
ENCODING 768
SWIDTH 540 0
DWIDTH 29 0
BBX 8 9 9 31
BITMAP
E0
E0
E0
18
18
18
07
07
03
ENDCHAR
STARTCHAR acutecomb
ENCODING 769
SWIDTH 540 0
DWIDTH 29 0
BBX 8 9 9 31
BITMAP
07
07
07
18
18
18
E0
E0
C0
ENDCHAR
STARTCHAR uni0302
ENCODING 770
SWIDTH 540 0
DWIDTH 29 0
BBX 14 9 6 31
BITMAP
0300
0300
0300
1CE0
1CE0
1860
E01C
E01C
C00C
ENDCHAR
STARTCHAR tildecomb
ENCODING 771
SWIDTH 540 0
DWIDTH 29 0
BBX 20 6 3 31
BITMAP
1FE070
1FE070
1FF070
E07F80
E07F80
E07F80
ENDCHAR
STARTCHAR uni0304
ENCODING 772
SWIDTH 540 0
DWIDTH 29 0
BBX 20 3 3 31
BITMAP
FFFFF0
FFFFF0
FFFFF0
ENDCHAR
STARTCHAR uni0305
ENCODING 773
SWIDTH 540 0
DWIDTH 29 0
BBX 26 3 0 31
BITMAP
FFFFFFC0
FFFFFFC0
FFFFFFC0
ENDCHAR
STARTCHAR uni0306
ENCODING 774
SWIDTH 540 0
DWIDTH 29 0
BBX 14 6 6 31
BITMAP
E01C
E01C
E01C
1FE0
1FE0
1FE0
ENDCHAR
STARTCHAR uni0307
ENCODING 775
SWIDTH 540 0
DWIDTH 29 0
BBX 2 6 12 31
BITMAP
C0
C0
C0
C0
C0
C0
ENDCHAR
STARTCHAR uni0308
ENCODING 776
SWIDTH 540 0
DWIDTH 29 0
BBX 8 6 9 31
BITMAP
E7
E7
E7
E7
E7
C3
ENDCHAR
STARTCHAR hookabovecomb
ENCODING 777
SWIDTH 540 0
DWIDTH 29 0
BBX 11 12 6 28
BITMAP
1F00
1F00
1F00
E0E0
E0E0
E0E0
0300
0300
0300
0300
0300
0300
ENDCHAR
STARTCHAR uni030A
ENCODING 778
SWIDTH 540 0
DWIDTH 29 0
BBX 11 9 9 31
BITMAP
1F00
1F00
1F00
E0E0
E0E0
E0E0
1F00
1F00
1F00
ENDCHAR
STARTCHAR uni030B
ENCODING 779
SWIDTH 540 0
DWIDTH 29 0
BBX 17 9 6 31
BITMAP
030380
030380
030380
1C1C00
1C1C00
181C00
E0E000
E0E000
C06000
ENDCHAR
STARTCHAR uni030C
ENCODING 780
SWIDTH 540 0
DWIDTH 29 0
BBX 14 9 6 31
BITMAP
E01C
E01C
E01C
1CE0
1CE0
1CE0
0300
0300
0300
ENDCHAR
STARTCHAR uni030D
ENCODING 781
SWIDTH 540 0
DWIDTH 29 0
BBX 2 12 12 28
BITMAP
C0
C0
C0
C0
C0
C0
C0
C0
C0
C0
C0
C0
ENDCHAR
STARTCHAR uni030E
ENCODING 782
SWIDTH 540 0
DWIDTH 29 0
BBX 14 12 6 28
BITMAP
E01C
E01C
E01C
E01C
E01C
E01C
E01C
E01C
E01C
E01C
E01C
C00C
ENDCHAR
STARTCHAR uni030F
ENCODING 783
SWIDTH 540 0
DWIDTH 29 0
BBX 20 9 3 31
BITMAP
E01C00
E01C00
E00C00
1C0380
1C0380
1C0380
038070
038070
030070
ENDCHAR
STARTCHAR uni0310
ENCODING 784
SWIDTH 540 0
DWIDTH 29 0
BBX 14 9 6 31
BITMAP
0300
0300
0300
E01C
E01C
E01C
1FE0
1FE0
1FE0
ENDCHAR
STARTCHAR uni0311
ENCODING 785
SWIDTH 540 0
DWIDTH 29 0
BBX 14 6 6 31
BITMAP
1FE0
1FE0
1FE0
E01C
E01C
C00C
ENDCHAR
STARTCHAR uni0312
ENCODING 786
SWIDTH 540 0
DWIDTH 29 0
BBX 5 12 9 28
BITMAP
18
18
18
E0
E0
E0
F8
F8
F8
F8
F8
F8
ENDCHAR
STARTCHAR uni0313
ENCODING 787
SWIDTH 540 0
DWIDTH 29 0
BBX 5 12 9 28
BITMAP
F8
F8
F8
F8
F8
F8
18
18
18
E0
E0
C0
ENDCHAR
STARTCHAR uni0314
ENCODING 788
SWIDTH 540 0
DWIDTH 29 0
BBX 5 12 9 28
BITMAP
F8
F8
F8
F8
F8
F8
E0
E0
E0
18
18
18
ENDCHAR
STARTCHAR uni0315
ENCODING 789
SWIDTH 540 0
DWIDTH 29 0
BBX 6 12 17 28
BITMAP
FC
FC
FC
FC
FC
FC
1C
1C
1C
E0
E0
60
ENDCHAR
STARTCHAR uni0316
ENCODING 790
SWIDTH 540 0
DWIDTH 29 0
BBX 8 9 9 -12
BITMAP
C0
E0
E0
18
18
18
07
07
07
ENDCHAR
STARTCHAR uni0317
ENCODING 791
SWIDTH 540 0
DWIDTH 29 0
BBX 8 9 9 -12
BITMAP
03
07
07
18
18
18
E0
E0
E0
ENDCHAR
STARTCHAR uni0318
ENCODING 792
SWIDTH 540 0
DWIDTH 29 0
BBX 11 9 6 -12
BITMAP
0060
00E0
00E0
FFE0
FFE0
FFE0
00E0
00E0
00E0
ENDCHAR
STARTCHAR uni0319
ENCODING 793
SWIDTH 540 0
DWIDTH 29 0
BBX 11 9 9 -12
BITMAP
C000
E000
E000
FFE0
FFE0
FFE0
E000
E000
E000
ENDCHAR
STARTCHAR uni031A
ENCODING 794
SWIDTH 540 0
DWIDTH 29 0
BBX 9 9 17 28
BITMAP
FF80
FF80
FF80
0380
0380
0380
0380
0380
0180
ENDCHAR
STARTCHAR uni031B
ENCODING 795
SWIDTH 540 0
DWIDTH 29 0
BBX 6 8 20 20
BITMAP
1C
1C
1C
1C
1C
E0
E0
E0
ENDCHAR
STARTCHAR uni031C
ENCODING 796
SWIDTH 540 0
DWIDTH 29 0
BBX 5 9 9 -12
BITMAP
18
18
18
E0
E0
E0
18
18
18
ENDCHAR
STARTCHAR uni031D
ENCODING 797
SWIDTH 540 0
DWIDTH 29 0
BBX 8 9 9 -12
BITMAP
18
18
18
18
18
18
FF
FF
FF
ENDCHAR
STARTCHAR uni031E
ENCODING 798
SWIDTH 540 0
DWIDTH 29 0
BBX 8 9 9 -12
BITMAP
FF
FF
FF
3C
18
18
18
18
18
ENDCHAR
STARTCHAR uni031F
ENCODING 799
SWIDTH 540 0
DWIDTH 29 0
BBX 8 9 9 -12
BITMAP
18
18
18
FF
FF
FF
3C
18
18
ENDCHAR
STARTCHAR uni0320
ENCODING 800
SWIDTH 540 0
DWIDTH 29 0
BBX 20 3 3 -6
BITMAP
FFFFF0
FFFFF0
FFFFF0
ENDCHAR
STARTCHAR uni0321
ENCODING 801
SWIDTH 540 0
DWIDTH 29 0
BBX 11 12 12 -12
BITMAP
0060
00E0
00E0
00E0
00E0
00E0
C0E0
C0E0
C0E0
3F00
3F00
3F00
ENDCHAR
STARTCHAR uni0322
ENCODING 802
SWIDTH 540 0
DWIDTH 29 0
BBX 9 12 17 -12
BITMAP
6000
E000
E000
E380
E380
E380
E380
E380
E380
1C00
1C00
1C00
ENDCHAR
STARTCHAR dotbelowcomb
ENCODING 803
SWIDTH 540 0
DWIDTH 29 0
BBX 2 6 12 -9
BITMAP
C0
C0
C0
C0
C0
C0
ENDCHAR
STARTCHAR uni0324
ENCODING 804
SWIDTH 540 0
DWIDTH 29 0
BBX 14 6 6 -9
BITMAP
C00C
E01C
E01C
E01C
E01C
E01C
ENDCHAR
STARTCHAR uni0325
ENCODING 805
SWIDTH 540 0
DWIDTH 29 0
BBX 11 9 9 -12
BITMAP
1F00
1F00
1F00
E0E0
E0E0
E0E0
1F00
1F00
1F00
ENDCHAR
STARTCHAR uni0326
ENCODING 806
SWIDTH 540 0
DWIDTH 29 0
BBX 5 9 12 -12
BITMAP
F8
F8
F8
38
38
38
C0
C0
C0
ENDCHAR
STARTCHAR uni0327
ENCODING 807
SWIDTH 540 0
DWIDTH 29 0
BBX 11 9 6 -9
BITMAP
0300
0300
0300
C0E0
E0E0
E0E0
1F00
1F00
1F00
ENDCHAR
STARTCHAR uni0328
ENCODING 808
SWIDTH 540 0
DWIDTH 29 0
BBX 11 9 9 -9
BITMAP
1800
1800
1800
E000
E000
E000
1FE0
1FE0
1FE0
ENDCHAR
STARTCHAR uni0329
ENCODING 809
SWIDTH 540 0
DWIDTH 29 0
BBX 2 9 12 -12
BITMAP
C0
C0
C0
C0
C0
C0
C0
C0
C0
ENDCHAR
STARTCHAR uni032A
ENCODING 810
SWIDTH 540 0
DWIDTH 29 0
BBX 14 6 6 -9
BITMAP
FFFC
FFFC
FFFC
E01C
E01C
E01C
ENDCHAR
STARTCHAR uni032B
ENCODING 811
SWIDTH 540 0
DWIDTH 29 0
BBX 14 9 6 -12
BITMAP
C30C
E31C
E31C
E31C
E31C
E31C
1CE0
1CE0
1CE0
ENDCHAR
STARTCHAR uni032C
ENCODING 812
SWIDTH 540 0
DWIDTH 29 0
BBX 14 9 6 -12
BITMAP
C00C
E01C
E01C
1860
1CE0
1CE0
0300
0300
0300
ENDCHAR
STARTCHAR uni032D
ENCODING 813
SWIDTH 540 0
DWIDTH 29 0
BBX 14 9 6 -12
BITMAP
0300
0300
0300
1CE0
1CE0
1CE0
E01C
E01C
E01C
ENDCHAR
STARTCHAR uni032E
ENCODING 814
SWIDTH 540 0
DWIDTH 29 0
BBX 14 6 6 -9
BITMAP
C00C
E01C
E01C
1FE0
1FE0
1FE0
ENDCHAR
STARTCHAR uni032F
ENCODING 815
SWIDTH 540 0
DWIDTH 29 0
BBX 14 6 6 -9
BITMAP
1FE0
1FE0
1FE0
E01C
E01C
E01C
ENDCHAR
STARTCHAR uni0330
ENCODING 816
SWIDTH 540 0
DWIDTH 29 0
BBX 20 6 3 -9
BITMAP
1FE070
1FE070
1FE070
E0FF80
E07F80
E07F80
ENDCHAR
STARTCHAR uni0331
ENCODING 817
SWIDTH 540 0
DWIDTH 29 0
BBX 20 3 3 -6
BITMAP
FFFFF0
FFFFF0
FFFFF0
ENDCHAR
STARTCHAR uni0332
ENCODING 818
SWIDTH 540 0
DWIDTH 29 0
BBX 26 3 0 -6
BITMAP
FFFFFFC0
FFFFFFC0
FFFFFFC0
ENDCHAR
STARTCHAR uni0333
ENCODING 819
SWIDTH 540 0
DWIDTH 29 0
BBX 26 9 0 -12
BITMAP
FFFFFFC0
FFFFFFC0
FFFFFFC0
00000000
00000000
00000000
FFFFFFC0
FFFFFFC0
FFFFFFC0
ENDCHAR
STARTCHAR uni0334
ENCODING 820
SWIDTH 540 0
DWIDTH 29 0
BBX 14 6 6 8
BITMAP
1F1C
1F1C
1F9C
E3E0
E3E0
E3E0
ENDCHAR
STARTCHAR uni0335
ENCODING 821
SWIDTH 540 0
DWIDTH 29 0
BBX 14 3 6 11
BITMAP
FFFC
FFFC
FFFC
ENDCHAR
STARTCHAR uni0336
ENCODING 822
SWIDTH 540 0
DWIDTH 29 0
BBX 20 3 3 11
BITMAP
FFFFF0
FFFFF0
FFFFF0
ENDCHAR
STARTCHAR uni0337
ENCODING 823
SWIDTH 540 0
DWIDTH 29 0
BBX 20 21 3 2
BITMAP
000070
000070
000070
000380
000380
000380
000C00
001C00
001C00
006000
006000
006000
038000
038000
030000
1C0000
1C0000
180000
E00000
E00000
C00000
ENDCHAR
STARTCHAR uni0338
ENCODING 824
SWIDTH 540 0
DWIDTH 29 0
BBX 20 37 3 -6
BITMAP
000070
000070
000070
000070
000070
000180
000380
000380
000380
000380
000380
000C00
001C00
001C00
001C00
001C00
001C00
006000
006000
006000
038000
038000
038000
038000
038000
030000
1C0000
1C0000
1C0000
1C0000
1C0000
E00000
E00000
E00000
E00000
E00000
E00000
ENDCHAR
STARTCHAR uni0339
ENCODING 825
SWIDTH 540 0
DWIDTH 29 0
BBX 5 9 12 -12
BITMAP
C0
C0
C0
38
38
38
C0
C0
C0
ENDCHAR
STARTCHAR uni033A
ENCODING 826
SWIDTH 540 0
DWIDTH 29 0
BBX 14 6 6 -9
BITMAP
C00C
E01C
E01C
FFFC
FFFC
FFFC
ENDCHAR
STARTCHAR uni033B
ENCODING 827
SWIDTH 540 0
DWIDTH 29 0
BBX 8 9 9 -12
BITMAP
FF
FF
FF
E7
E7
E7
FF
FF
FF
ENDCHAR
STARTCHAR uni033C
ENCODING 828
SWIDTH 540 0
DWIDTH 29 0
BBX 20 6 3 -9
BITMAP
1F0F80
1F9F80
1F9F80
E06070
E06070
E06070
ENDCHAR
STARTCHAR uni033D
ENCODING 829
SWIDTH 540 0
DWIDTH 29 0
BBX 14 9 6 31
BITMAP
FCFC
FCFC
FCFC
0300
0300
0300
FCFC
FCFC
F87C
ENDCHAR
STARTCHAR uni033E
ENCODING 830
SWIDTH 540 0
DWIDTH 29 0
BBX 5 12 9 28
BITMAP
18
18
18
E0
E0
E0
18
18
18
E0
E0
C0
ENDCHAR
STARTCHAR uni033F
ENCODING 831
SWIDTH 540 0
DWIDTH 29 0
BBX 26 9 0 31
BITMAP
FFFFFFC0
FFFFFFC0
FFFFFFC0
00000000
00000000
00000000
FFFFFFC0
FFFFFFC0
FFFFFFC0
ENDCHAR
STARTCHAR uni0340
ENCODING 832
SWIDTH 540 0
DWIDTH 29 0
BBX 6 6 3 31
BITMAP
E0
E0
E0
1C
1C
18
ENDCHAR
STARTCHAR uni0341
ENCODING 833
SWIDTH 540 0
DWIDTH 29 0
BBX 6 6 17 31
BITMAP
1C
1C
1C
E0
E0
60
ENDCHAR
STARTCHAR uni0342
ENCODING 834
SWIDTH 540 0
DWIDTH 29 0
BBX 14 6 6 31
BITMAP
1F1C
1F1C
1F9C
E3E0
E3E0
C3E0
ENDCHAR
STARTCHAR uni0343
ENCODING 835
SWIDTH 540 0
DWIDTH 29 0
BBX 5 9 12 31
BITMAP
F8
F8
F8
38
38
38
C0
C0
C0
ENDCHAR
STARTCHAR uni0344
ENCODING 836
SWIDTH 540 0
DWIDTH 29 0
BBX 20 9 3 31
BITMAP
001C00
001C00
001C00
E06070
E06070
E06070
E38070
E38070
E30070
ENDCHAR
STARTCHAR uni0345
ENCODING 837
SWIDTH 540 0
DWIDTH 29 0
BBX 5 6 12 -9
BITMAP
C0
C0
C0
F8
F8
F8
ENDCHAR
STARTCHAR uni0346
ENCODING 838
SWIDTH 540 0
DWIDTH 29 0
BBX 14 6 6 31
BITMAP
FFFC
FFFC
FFFC
E01C
E01C
C00C
ENDCHAR
STARTCHAR uni0347
ENCODING 839
SWIDTH 540 0
DWIDTH 29 0
BBX 14 9 6 -12
BITMAP
FFFC
FFFC
FFFC
0000
0000
0000
FFFC
FFFC
FFFC
ENDCHAR
STARTCHAR uni0348
ENCODING 840
SWIDTH 540 0
DWIDTH 29 0
BBX 8 9 9 -12
BITMAP
C3
E7
E7
E7
E7
E7
E7
E7
E7
ENDCHAR
STARTCHAR uni0349
ENCODING 841
SWIDTH 540 0
DWIDTH 29 0
BBX 8 9 9 -12
BITMAP
FF
FF
FF
07
07
07
07
07
07
ENDCHAR
STARTCHAR uni034A
ENCODING 842
SWIDTH 540 0
DWIDTH 29 0
BBX 20 12 3 28
BITMAP
001C00
001C00
001C00
1FE070
1FE070
1FF070
E07F80
E07F80
E07F80
038000
038000
030000
ENDCHAR
STARTCHAR uni034B
ENCODING 843
SWIDTH 540 0
DWIDTH 29 0
BBX 26 12 0 28
BITMAP
00007000
00007000
00007000
1FFC01C0
1FFC01C0
1FFE01C0
E00FFE00
E00FFE00
E00FFE00
03800000
03800000
03000000
ENDCHAR
STARTCHAR uni034C
ENCODING 844
SWIDTH 540 0
DWIDTH 29 0
BBX 20 12 3 28
BITMAP
1FE070
1FE070
1FF070
E07F80
E07F80
E0FF80
1FE070
1FE070
1FF070
E07F80
E07F80
C07F80
ENDCHAR
STARTCHAR uni034D
ENCODING 845
SWIDTH 540 0
DWIDTH 29 0
BBX 20 9 3 -9
BITMAP
180180
1C0380
1C0380
FFFFF0
FFFFF0
FFFFF0
1C0380
1C0380
1C0380
ENDCHAR
STARTCHAR uni034E
ENCODING 846
SWIDTH 540 0
DWIDTH 29 0
BBX 8 12 9 -12
BITMAP
18
18
18
FF
FF
FF
3C
18
18
18
18
18
ENDCHAR
STARTCHAR uni034F
ENCODING 847
SWIDTH 540 0
DWIDTH 29 0
BBX 1 1 25 -12
BITMAP
00
ENDCHAR
STARTCHAR uni0360
ENCODING 864
SWIDTH 540 0
DWIDTH 29 0
BBX 20 6 6 31
BITMAP
1FE070
1FE070
1FE070
E0FF80
E0FF80
C07F80
ENDCHAR
STARTCHAR uni0361
ENCODING 865
SWIDTH 540 0
DWIDTH 29 0
BBX 20 6 6 31
BITMAP
1FFF80
1FFF80
1FFF80
E00070
E00070
C00070
ENDCHAR
STARTCHAR uni0362
ENCODING 866
SWIDTH 540 0
DWIDTH 29 0
BBX 20 14 6 -12
BITMAP
001C00
001C00
001F80
001F80
001F80
FFFFF0
FFFFF0
FFFFF0
001F80
001F80
001F80
001C00
001C00
001C00
ENDCHAR
STARTCHAR uni0363
ENCODING 867
SWIDTH 540 0
DWIDTH 29 0
BBX 11 14 6 26
BITMAP
1F00
1F00
1F00
00E0
00E0
00E0
1FE0
1FE0
1FE0
E0E0
E0E0
E0E0
1FE0
1FE0
ENDCHAR
STARTCHAR uni0364
ENCODING 868
SWIDTH 540 0
DWIDTH 29 0
BBX 11 14 6 26
BITMAP
1F00
1F00
1F00
E0E0
E0E0
E0E0
FFE0
FFE0
FFE0
E000
E000
E000
1F00
1F00
ENDCHAR
STARTCHAR uni0365
ENCODING 869
SWIDTH 540 0
DWIDTH 29 0
BBX 2 12 12 28
BITMAP
C0
C0
C0
00
00
00
C0
C0
C0
C0
C0
C0
ENDCHAR
STARTCHAR uni0366
ENCODING 870
SWIDTH 540 0
DWIDTH 29 0
BBX 11 12 6 28
BITMAP
1F00
1F00
1F00
E0E0
E0E0
E0E0
E0E0
E0E0
E0E0
1F00
1F00
1F00
ENDCHAR
STARTCHAR uni0367
ENCODING 871
SWIDTH 540 0
DWIDTH 29 0
BBX 11 12 6 28
BITMAP
E0E0
E0E0
E0E0
E0E0
E0E0
E0E0
E0E0
E0E0
E0E0
1FE0
1FE0
1FE0
ENDCHAR
STARTCHAR uni0368
ENCODING 872
SWIDTH 540 0
DWIDTH 29 0
BBX 11 12 6 28
BITMAP
1FE0
1FE0
1FE0
E000
E000
E000
E000
E000
E000
1FE0
1FE0
1FE0
ENDCHAR
STARTCHAR uni0369
ENCODING 873
SWIDTH 540 0
DWIDTH 29 0
BBX 11 12 6 28
BITMAP
00E0
00E0
00E0
1FE0
1FE0
1FE0
E0E0
E0E0
E0E0
1FE0
1FE0
1FE0
ENDCHAR
STARTCHAR uni036A
ENCODING 874
SWIDTH 540 0
DWIDTH 29 0
BBX 11 12 6 28
BITMAP
E000
E000
E000
FF00
FF00
FF00
E0E0
E0E0
E0E0
E0E0
E0E0
C060
ENDCHAR
STARTCHAR uni036B
ENCODING 875
SWIDTH 540 0
DWIDTH 29 0
BBX 14 12 6 28
BITMAP
FCE0
FCE0
FCE0
E31C
E31C
E31C
E31C
E31C
E31C
E31C
E31C
C30C
ENDCHAR
STARTCHAR uni036C
ENCODING 876
SWIDTH 540 0
DWIDTH 29 0
BBX 8 12 9 28
BITMAP
E7
E7
E7
F8
F8
F8
E0
E0
E0
E0
E0
C0
ENDCHAR
STARTCHAR uni036D
ENCODING 877
SWIDTH 540 0
DWIDTH 29 0
BBX 11 12 6 28
BITMAP
1C00
1C00
1C00
FF00
FF00
FF00
1C00
1C00
1C00
03E0
03E0
03E0
ENDCHAR
STARTCHAR uni036E
ENCODING 878
SWIDTH 540 0
DWIDTH 29 0
BBX 8 12 9 28
BITMAP
E7
E7
E7
E7
E7
E7
18
18
18
18
18
18
ENDCHAR
STARTCHAR uni036F
ENCODING 879
SWIDTH 540 0
DWIDTH 29 0
BBX 8 12 9 28
BITMAP
E7
E7
E7
18
18
18
18
18
18
E7
E7
C3
ENDCHAR
STARTCHAR uni0374
ENCODING 884
SWIDTH 540 0
DWIDTH 29 0
BBX 8 8 9 23
BITMAP
07
07
07
18
18
E0
E0
E0
ENDCHAR
STARTCHAR uni0375
ENCODING 885
SWIDTH 540 0
DWIDTH 29 0
BBX 8 9 9 -9
BITMAP
03
07
07
18
18
18
E0
E0
E0
ENDCHAR
STARTCHAR uni037A
ENCODING 890
SWIDTH 540 0
DWIDTH 29 0
BBX 5 6 12 -9
BITMAP
C0
C0
C0
F8
F8
F8
ENDCHAR
STARTCHAR uni037E
ENCODING 894
SWIDTH 540 0
DWIDTH 29 0
BBX 5 29 12 -9
BITMAP
F8
F8
F8
F8
F8
F8
00
00
00
00
00
00
00
00
00
F8
F8
F8
F8
F8
38
38
38
38
38
38
C0
C0
C0
ENDCHAR
STARTCHAR tonos
ENCODING 900
SWIDTH 540 0
DWIDTH 29 0
BBX 8 8 9 23
BITMAP
07
07
07
18
18
E0
E0
E0
ENDCHAR
STARTCHAR dieresistonos
ENCODING 901
SWIDTH 540 0
DWIDTH 29 0
BBX 20 8 3 23
BITMAP
001C00
001C00
001C00
E06070
E06070
E38070
E38070
E38070
ENDCHAR
STARTCHAR Alphatonos
ENCODING 902
SWIDTH 540 0
DWIDTH 29 0
BBX 20 40 3 0
BITMAP
001C00
001C00
001C00
006000
006000
006000
038000
038000
030000
000000
000000
000000
006000
006000
039C00
039C00
039C00
039C00
039C00
039C00
039C00
039C00
039C00
1C0380
1C0380
1C0380
1FFF80
1FFF80
1FFF80
1C0380
1C0380
1C0380
1C0380
1C0380
180180
E00070
E00070
E00070
E00070
E00070
ENDCHAR
STARTCHAR anoteleia
ENCODING 903
SWIDTH 540 0
DWIDTH 29 0
BBX 5 6 9 14
BITMAP
F8
F8
F8
F8
F8
F8
ENDCHAR
STARTCHAR Epsilontonos
ENCODING 904
SWIDTH 540 0
DWIDTH 29 0
BBX 20 40 3 0
BITMAP
001C00
001C00
001C00
006000
006000
006000
038000
038000
030000
000000
000000
000000
FFFFF0
FFFFF0
E00000
E00000
E00000
E00000
E00000
E00000
E00000
E00000
E00000
FFFC00
FFFC00
FFFC00
E00000
E00000
E00000
E00000
E00000
E00000
E00000
E00000
E00000
E00000
E00000
E00000
FFFFF0
FFFFF0
ENDCHAR
STARTCHAR Etatonos
ENCODING 905
SWIDTH 540 0
DWIDTH 29 0
BBX 20 40 3 0
BITMAP
001C00
001C00
001C00
006000
006000
006000
038000
038000
030000
000000
000000
000000
E00070
E00070
E00070
E00070
E00070
E00070
E00070
E00070
E00070
E00070
E00070
FFFFF0
FFFFF0
FFFFF0
E00070
E00070
E00070
E00070
E00070
E00070
E00070
E00070
E00070
E00070
E00070
E00070
E00070
E00070
ENDCHAR
STARTCHAR Iotatonos
ENCODING 906
SWIDTH 540 0
DWIDTH 29 0
BBX 14 40 6 0
BITMAP
00E0
00E0
00E0
0300
0300
0300
1C00
1C00
1800
0000
0000
0000
FFFC
FFFC
0780
0300
0300
0300
0300
0300
0300
0300
0300
0300
0300
0300
0300
0300
0300
0300
0300
0300
0300
0300
0300
0300
0300
0780
FFFC
FFFC
ENDCHAR
STARTCHAR Omicrontonos
ENCODING 908
SWIDTH 540 0
DWIDTH 29 0
BBX 20 40 3 0
BITMAP
001C00
001C00
001C00
006000
006000
006000
038000
038000
030000
000000
000000
000000
1FFF80
1FFF80
E00070
E00070
E00070
E00070
E00070
E00070
E00070
E00070
E00070
E00070
E00070
E00070
E00070
E00070
E00070
E00070
E00070
E00070
E00070
E00070
E00070
E00070
E00070
E00070
1FFF80
1FFF80
ENDCHAR
STARTCHAR Upsilontonos
ENCODING 910
SWIDTH 540 0
DWIDTH 29 0
BBX 20 40 3 0
BITMAP
001C00
001C00
001C00
006000
006000
006000
038000
038000
030000
000000
000000
000000
E00070
E00070
E00070
E00070
E00070
180180
1C0380
1C0380
030C00
039C00
039C00
006000
006000
006000
006000
006000
006000
006000
006000
006000
006000
006000
006000
006000
006000
006000
006000
006000
ENDCHAR
STARTCHAR Omegatonos
ENCODING 911
SWIDTH 540 0
DWIDTH 29 0
BBX 20 40 3 0
BITMAP
001C00
001C00
001C00
006000
006000
006000
038000
038000
030000
000000
000000
000000
03FC00
03FC00
1C0380
1C0380
1C0380
E00070
E00070
E00070
E00070
E00070
E00070
E00070
E00070
E00070
E00070
E00070
E00070
E00070
E00070
E00070
1C0380
1C0380
1C0380
039C00
039C00
079E00
FF9FF0
FF9FF0
ENDCHAR
STARTCHAR iotadieresistonos
ENCODING 912
SWIDTH 540 0
DWIDTH 29 0
BBX 20 31 3 0
BITMAP
001C00
001C00
001C00
E06070
E06070
E38070
E38070
E38070
000000
000000
000000
030000
038000
038000
038000
038000
038000
038000
038000
038000
038000
038000
038000
038000
038000
038000
038380
038380
038380
007C00
007C00
ENDCHAR
STARTCHAR Alpha
ENCODING 913
SWIDTH 540 0
DWIDTH 29 0
BBX 20 28 3 0
BITMAP
006000
006000
039C00
039C00
039C00
039C00
039C00
039C00
039C00
039C00
039C00
1C0380
1C0380
1C0380
1FFF80
1FFF80
1FFF80
1C0380
1C0380
1C0380
E00070
E00070
E00070
E00070
E00070
E00070
E00070
E00070
ENDCHAR
STARTCHAR Beta
ENCODING 914
SWIDTH 540 0
DWIDTH 29 0
BBX 20 28 3 0
BITMAP
FFFC00
FFFC00
E00380
E00380
E00380
E00070
E00070
E00070
E00380
E00380
E00380
FFFC00
FFFC00
FFFC00
E00380
E00380
E00380
E00070
E00070
E00070
E00070
E00070
E00070
E00380
E00380
E00380
FFFC00
FFFC00
ENDCHAR
STARTCHAR Gamma
ENCODING 915
SWIDTH 540 0
DWIDTH 29 0
BBX 17 28 3 0
BITMAP
FFFF80
FFFF80
E00000
E00000
E00000
E00000
E00000
E00000
E00000
E00000
E00000
E00000
E00000
E00000
E00000
E00000
E00000
E00000
E00000
E00000
E00000
E00000
E00000
E00000
E00000
E00000
E00000
E00000
ENDCHAR
STARTCHAR Delta
ENCODING 916
SWIDTH 540 0
DWIDTH 29 0
BBX 20 28 3 0
BITMAP
006000
006000
006000
006000
006000
039C00
039C00
039C00
039C00
039C00
039C00
039C00
039C00
039C00
1C0380
1C0380
1C0380
1C0380
1C0380
1C0380
1C0380
1C0380
180180
E00070
E00070
E00070
FFFFF0
FFFFF0
ENDCHAR
STARTCHAR Epsilon
ENCODING 917
SWIDTH 540 0
DWIDTH 29 0
BBX 20 28 3 0
BITMAP
FFFFF0
FFFFF0
E00000
E00000
E00000
E00000
E00000
E00000
E00000
E00000
E00000
FFFC00
FFFC00
FFFC00
E00000
E00000
E00000
E00000
E00000
E00000
E00000
E00000
E00000
E00000
E00000
E00000
FFFFF0
FFFFF0
ENDCHAR
STARTCHAR Zeta
ENCODING 918
SWIDTH 540 0
DWIDTH 29 0
BBX 20 28 3 0
BITMAP
FFFFF0
FFFFF0
000070
000070
000070
000180
000380
000380
000C00
001C00
001C00
006000
006000
006000
038000
038000
030000
1C0000
1C0000
1C0000
E00000
E00000
E00000
E00000
E00000
E00000
FFFFF0
FFFFF0
ENDCHAR
STARTCHAR Eta
ENCODING 919
SWIDTH 540 0
DWIDTH 29 0
BBX 20 28 3 0
BITMAP
E00070
E00070
E00070
E00070
E00070
E00070
E00070
E00070
E00070
E00070
E00070
FFFFF0
FFFFF0
FFFFF0
E00070
E00070
E00070
E00070
E00070
E00070
E00070
E00070
E00070
E00070
E00070
E00070
E00070
E00070
ENDCHAR
STARTCHAR Theta
ENCODING 920
SWIDTH 540 0
DWIDTH 29 0
BBX 20 28 3 0
BITMAP
1FFF80
1FFF80
E00070
E00070
E00070
E00070
E00070
E00070
E00070
E00070
E00070
FFFFF0
FFFFF0
FFFFF0
E00070
E00070
E00070
E00070
E00070
E00070
E00070
E00070
E00070
E00070
E00070
E00070
1FFF80
1FFF80
ENDCHAR
STARTCHAR Iota
ENCODING 921
SWIDTH 540 0
DWIDTH 29 0
BBX 14 28 6 0
BITMAP
FFFC
FFFC
0780
0300
0300
0300
0300
0300
0300
0300
0300
0300
0300
0300
0300
0300
0300
0300
0300
0300
0300
0300
0300
0300
0300
0780
FFFC
FFFC
ENDCHAR
STARTCHAR Kappa
ENCODING 922
SWIDTH 540 0
DWIDTH 29 0
BBX 20 28 3 0
BITMAP
E00070
E00070
E00180
E00380
E00380
E00C00
E01C00
E01C00
E06000
E06000
E06000
E38000
E38000
E38000
FC6000
FC6000
FC6000
E01C00
E01C00
E00C00
E00380
E00380
E00180
E00070
E00070
E00070
E00070
E00070
ENDCHAR
STARTCHAR Lambda
ENCODING 923
SWIDTH 540 0
DWIDTH 29 0
BBX 20 28 3 0
BITMAP
006000
006000
039C00
039C00
039C00
039C00
039C00
039C00
039C00
039C00
039C00
1C0380
1C0380
1C0380
1C0380
1C0380
1C0380
1C0380
1C0380
1C0380
E00070
E00070
E00070
E00070
E00070
E00070
E00070
E00070
ENDCHAR
STARTCHAR Mu
ENCODING 924
SWIDTH 540 0
DWIDTH 29 0
BBX 20 28 3 0
BITMAP
E00070
E00070
E00070
E00070
E00070
F801F0
FC03F0
FC03F0
E30C70
E39C70
E39C70
E06070
E06070
E06070
E00070
E00070
E00070
E00070
E00070
E00070
E00070
E00070
E00070
E00070
E00070
E00070
E00070
E00070
ENDCHAR
STARTCHAR Nu
ENCODING 925
SWIDTH 540 0
DWIDTH 29 0
BBX 20 28 3 0
BITMAP
E00070
E00070
E00070
E00070
E00070
F80070
FC0070
FC0070
E30070
E38070
E38070
E06070
E06070
E06070
E01C70
E01C70
E00C70
E003F0
E003F0
E003F0
E00070
E00070
E00070
E00070
E00070
E00070
E00070
E00070
ENDCHAR
STARTCHAR Xi
ENCODING 926
SWIDTH 540 0
DWIDTH 29 0
BBX 20 28 3 0
BITMAP
FFFFF0
FFFFF0
000000
000000
000000
000000
000000
000000
000000
000000
000000
1FFF80
1FFF80
1FFF80
000000
000000
000000
000000
000000
000000
000000
000000
000000
000000
000000
000000
FFFFF0
FFFFF0
ENDCHAR
ENDFONT
